<?xml version="1.0" encoding="UTF-8" standalone="no"?>
<!-- Created with Inkscape (http://www.inkscape.org/) -->

<svg
   version="1.1"
   id="svg1"
   width="415.98666"
   height="150"
   viewBox="0 0 415.98666 150"
   sodipodi:docname="qub-logo.svg"
   inkscape:version="1.4.3 (0d15f75042, 2025-12-25)"
   inkscape:export-filename="qub-logo.png"
   inkscape:export-xdpi="230.77663"
   inkscape:export-ydpi="230.77663"
   xmlns:inkscape="http://www.inkscape.org/namespaces/inkscape"
   xmlns:sodipodi="http://sodipodi.sourceforge.net/DTD/sodipodi-0.dtd"
   xmlns="http://www.w3.org/2000/svg"
   xmlns:svg="http://www.w3.org/2000/svg">
  <defs
     id="defs1" />
  <sodipodi:namedview
     id="namedview1"
     pagecolor="#ffffff"
     bordercolor="#000000"
     borderopacity="0.25"
     inkscape:showpageshadow="2"
     inkscape:pageopacity="0.0"
     inkscape:pagecheckerboard="0"
     inkscape:deskcolor="#d1d1d1"
     inkscape:zoom="1.4142589"
     inkscape:cx="155.5585"
     inkscape:cy="88.031972"
     inkscape:window-width="1920"
     inkscape:window-height="1011"
     inkscape:window-x="0"
     inkscape:window-y="0"
     inkscape:window-maximized="1"
     inkscape:current-layer="g1">
    <inkscape:page
       x="0"
       y="0"
       id="page1"
       width="415.98666"
       height="150"
       margin="0"
       bleed="0" />
  </sodipodi:namedview>
  <g
     id="g1"
     inkscape:groupmode="layer"
     inkscape:label="Logo">
    <path
       id="path2"
       d="m 159.51466,21.72547 c 0,-5.7468 4.65734,-10.404133 10.40534,-10.404133 5.74533,0 10.40266,4.657333 10.40266,10.404133 0,3.3828 -1.62266,6.3808 -4.12266,8.280266 l -0.904,-1.287466 c -0.20134,-0.471334 -0.74534,-0.854267 -1.21734,-0.854267 H 167.664 c -0.472,0 -0.692,0.382933 -0.492,0.854267 l 2.37733,3.392133 C 163.976,31.914003 159.51466,27.346936 159.51466,21.72547 m 20.75867,14.093866 c 4.32,-3.1948 7.132,-8.31 7.132,-14.093866 0,-9.6868 -7.852,-17.5374664 -17.53733,-17.5374664 -9.68534,0 -17.536,7.8506664 -17.536,17.5374664 0,9.6844 7.85066,17.537599 17.536,17.537599 1.48933,0 2.92666,-0.205733 4.30533,-0.555733 l 1.92667,2.7468 c 0.2,0.471867 0.74533,0.854667 1.21733,0.854667 h 6.41467 c 0.47333,0 0.692,-0.3828 0.492,-0.854667 l -3.95067,-5.6348"
       style="fill:#ed1c24;fill-opacity:1;fill-rule:nonzero;stroke:none;stroke-width:0.133333" />
    <path
       id="path3"
       d="m 204.74933,39.092669 c -7.67067,0 -13.452,-5.557199 -13.452,-12.931199 V 6.0573369 c 0,-0.6226666 0.54667,-1.1693333 1.17067,-1.1693333 h 4.504 c 0.648,0 1.172,0.5253333 1.172,1.1693333 V 25.83067 c 0,3.922 2.65333,6.5568 6.60533,6.5568 3.91733,0 6.65066,-2.676534 6.65066,-6.509334 V 6.0573369 c 0,-0.644 0.528,-1.1693333 1.172,-1.1693333 h 4.504 c 0.624,0 1.17067,0.5466667 1.17067,1.1693333 V 26.16147 c 0,7.374 -5.80267,12.931199 -13.49733,12.931199"
       style="fill:#ed1c24;fill-opacity:1;fill-rule:nonzero;stroke:none;stroke-width:0.133333" />
    <path
       id="path4"
       d="m 242.73333,38.618803 h -19.296 c -0.64667,0 -1.17334,-0.526134 -1.17334,-1.170934 V 6.0586703 c 0,-0.6466667 0.52667,-1.1706667 1.17334,-1.1706667 h 19.296 c 0.64666,0 1.17066,0.524 1.17066,1.1706667 v 3.8879999 c 0,0.6466668 -0.524,1.1719998 -1.17066,1.1719998 h -13.76534 v 7.2344 h 11.44134 c 0.62533,0 1.17066,0.545867 1.17066,1.171867 v 3.935999 c 0,0.644267 -0.52133,1.1708 -1.17066,1.1708 h -11.44134 v 7.756267 h 13.76534 c 0.64666,0 1.17066,0.524 1.17066,1.1708 v 3.889066 c 0,0.6448 -0.524,1.170934 -1.17066,1.170934"
       style="fill:#ed1c24;fill-opacity:1;fill-rule:nonzero;stroke:none;stroke-width:0.133333" />
    <path
       id="path5"
       d="m 268.73599,38.618803 h -19.29733 c -0.64533,0 -1.172,-0.526134 -1.172,-1.170934 V 6.0586703 c 0,-0.6466667 0.52667,-1.1706667 1.172,-1.1706667 h 19.29733 c 0.64667,0 1.17067,0.524 1.17067,1.1706667 v 3.8879999 c 0,0.6466668 -0.524,1.1719998 -1.17067,1.1719998 h -13.76533 v 7.2344 h 11.44267 c 0.624,0 1.16933,0.545867 1.16933,1.171867 v 3.935999 c 0,0.644267 -0.52267,1.1708 -1.16933,1.1708 h -11.44267 v 7.756267 h 13.76533 c 0.64667,0 1.17067,0.524 1.17067,1.1708 v 3.889066 c 0,0.6448 -0.524,1.170934 -1.17067,1.170934"
       style="fill:#ed1c24;fill-opacity:1;fill-rule:nonzero;stroke:none;stroke-width:0.133333" />
    <path
       id="path6"
       d="m 301.91199,39.092669 h -0.664 c -0.404,0 -0.712,-0.126533 -0.99733,-0.4104 l -19.072,-21.025999 v 19.790666 c 0,0.6468 -0.52533,1.171867 -1.172,1.171867 h -4.31333 c -0.624,0 -1.17334,-0.548534 -1.17334,-1.171867 V 5.5360036 c 0,-0.608 0.53867,-1.1226666 1.17334,-1.1226666 h 0.70933 c 0.40533,0 0.71467,0.1266666 0.99733,0.4093333 L 296.37866,25.059336 V 6.0573369 c 0,-0.644 0.52533,-1.1693333 1.17333,-1.1693333 h 4.36 c 0.62534,0 1.17067,0.5466667 1.17067,1.1693333 V 37.969336 c 0,0.609333 -0.53467,1.123333 -1.17067,1.123333"
       style="fill:#ed1c24;fill-opacity:1;fill-rule:nonzero;stroke:none;stroke-width:0.133333" />
    <path
       id="path7"
       d="m 309.25333,14.696003 c -0.28134,0 -0.53467,-0.16 -0.65067,-0.230666 l -1.25067,-0.892 c -0.20266,-0.153334 -0.59866,-0.585334 -0.009,-1.373334 1.372,-1.778666 2.15867,-3.6866661 2.15867,-5.2373328 0,-0.172 -0.0107,-0.3106666 -0.0293,-0.4399999 -0.39866,0.1906666 -0.852,0.2946666 -1.30933,0.2946666 -1.788,0 -2.98933,-1.344 -2.98933,-3.3439999 0,-1.9813333 1.588,-3.47599992 3.69466,-3.47599992 2.10534,0 4.228,1.70266662 4.228,5.50799982 0,4.0733333 -1.844,7.0026661 -3.232,8.8533331 -0.18933,0.253333 -0.40933,0.337333 -0.61066,0.337333"
       style="fill:#ed1c24;fill-opacity:1;fill-rule:nonzero;stroke:none;stroke-width:0.133333" />
    <path
       id="path8"
       d="m 325.19333,39.092669 c -6.24134,0 -9.41334,-2.733866 -10.60934,-3.762399 -0.55733,-0.448534 -0.78933,-0.8824 -0.296,-1.760934 l 1.71067,-2.943333 c 0.19733,-0.347333 0.52,-0.583333 0.90267,-0.657733 0.388,-0.07507 0.81466,0.01773 1.108,0.247866 2.00933,1.518267 4.05733,2.883867 6.99333,2.883867 2.268,0 4.04533,-1.485467 4.04533,-3.3812 0,-2.1532 -1.75066,-3.778133 -5.85466,-5.4396 -3.89734,-1.5756 -9.08134,-4.378666 -9.08134,-10.492533 0,-4.5133331 3.42267,-9.373333 10.94,-9.373333 5.08,0 8.92533,2.6919999 9.64533,3.2319999 0.25467,0.1506667 0.45867,0.46 0.53734,0.828 0.0853,0.3986666 0.012,0.812 -0.19467,1.1079999 l -1.79866,2.6973332 c -0.22534,0.336 -0.54534,0.606667 -0.88267,0.74 -0.40667,0.162667 -0.816,0.128 -1.15067,-0.09733 l -0.34933,-0.218667 c -1.90933,-1.205333 -3.71333,-2.342667 -6.092,-2.342667 -2.696,0 -3.90133,1.530667 -3.90133,3.048 0,2.024 1.572,3.489334 5.42533,5.060267 4.984,2.0036 10.07866,4.8724 10.07866,10.966133 0,4.682267 -3.91733,9.658266 -11.17599,9.658266"
       style="fill:#ed1c24;fill-opacity:1;fill-rule:nonzero;stroke:none;stroke-width:0.133333" />
    <path
       id="path9"
       d="m 212.12933,84.218268 h -0.66267 c -0.404,0 -0.71467,-0.126666 -0.99867,-0.411466 L 191.396,62.780269 v 19.790533 c 0,0.648533 -0.52667,1.173466 -1.17067,1.173466 h -4.316 c -0.624,0 -1.172,-0.5484 -1.172,-1.173466 V 50.661469 c 0,-0.607867 0.53733,-1.122933 1.172,-1.122933 H 186.62 c 0.40533,0 0.71466,0.125067 0.99733,0.409867 l 18.97866,20.234399 v -19 c 0,-0.645866 0.52534,-1.170266 1.172,-1.170266 h 4.36134 c 0.624,0 1.172,0.547866 1.172,1.170266 v 31.911466 c 0,0.6084 -0.53734,1.124 -1.172,1.124"
       style="fill:#ed1c24;fill-opacity:1;fill-rule:nonzero;stroke:none;stroke-width:0.133333" />
    <path
       id="path10"
       d="m 225.35999,83.746935 h -4.408 c -0.62533,0 -1.17333,-0.548533 -1.17333,-1.172 V 51.184936 c 0,-0.622934 0.548,-1.169334 1.17333,-1.169334 h 4.408 c 0.624,0 1.17067,0.5464 1.17067,1.169334 v 31.389999 c 0,0.623467 -0.54667,1.172 -1.17067,1.172"
       style="fill:#ed1c24;fill-opacity:1;fill-rule:nonzero;stroke:none;stroke-width:0.133333" />
    <path
       id="path11"
       d="m 246.89466,84.220802 h -0.47467 c -0.324,0 -0.76933,-0.1172 -1.048,-0.6708 l -0.004,-0.0088 -14.65066,-31.910933 c -0.176,-0.378667 -0.15734,-0.7824 0.048,-1.105333 0.20533,-0.3244 0.57333,-0.509867 1.004,-0.509867 h 4.836 c 0.54,0 0.92,0.347467 1.05866,0.6912 l 9.01734,20.091066 9.02266,-20.100399 c 0.13467,-0.335467 0.51334,-0.681867 1.052,-0.681867 h 4.83734 c 0.432,0 0.79733,0.185467 1.004,0.509867 0.20533,0.322933 0.224,0.726666 0.048,1.1068 l -14.7,31.909466 c -0.28,0.5624 -0.72667,0.6796 -1.05067,0.6796"
       style="fill:#ed1c24;fill-opacity:1;fill-rule:nonzero;stroke:none;stroke-width:0.133333" />
    <path
       id="path12"
       d="m 287.05066,83.815602 h -19.29867 c -0.644,0 -1.17333,-0.526 -1.17333,-1.171867 V 51.255736 c 0,-0.6464 0.52933,-1.1708 1.17333,-1.1708 h 19.29867 c 0.64667,0 1.17067,0.5244 1.17067,1.1708 v 3.886933 c 0,0.646933 -0.524,1.172933 -1.17067,1.172933 h -13.76533 v 7.2344 h 11.44133 c 0.624,0 1.16933,0.5464 1.16933,1.171867 v 3.934933 c 0,0.645867 -0.52266,1.171867 -1.16933,1.171867 h -11.44133 v 7.757733 h 13.76533 c 0.64667,0 1.17067,0.523466 1.17067,1.169333 v 3.888 c 0,0.645867 -0.524,1.171867 -1.17067,1.171867"
       style="fill:#ed1c24;fill-opacity:1;fill-rule:nonzero;stroke:none;stroke-width:0.133333" />
    <path
       id="path13"
       d="m 300.64399,65.209335 h 7.45867 c 2.396,0 4.42133,-2.089999 4.42133,-4.565599 0,-2.345334 -2.02533,-4.328134 -4.42133,-4.328134 h -7.45867 z m 16.988,18.606267 h -4.97733 c -0.66133,0 -0.93333,-0.440134 -1.00267,-0.576534 l -6.23066,-12.414133 h -4.82534 v 11.8188 c 0,0.625067 -0.54666,1.171867 -1.17333,1.171867 h -4.36 c -0.64533,0 -1.17067,-0.5244 -1.17067,-1.171867 V 51.255202 c 0,-0.6448 0.52534,-1.170266 1.17067,-1.170266 h 13.55867 c 5.85066,0 10.60933,4.694266 10.60933,10.465066 0,4.188 -2.63867,7.885467 -6.908,9.712 l 6.352,11.780133 c 0.21467,0.3948 0.21333,0.862 -0.001,1.2204 -0.20934,0.352533 -0.58934,0.553067 -1.04134,0.553067"
       style="fill:#ed1c24;fill-opacity:1;fill-rule:nonzero;stroke:none;stroke-width:0.133333" />
    <path
       id="path14"
       d="m 334.21999,84.289602 c -6.24133,0 -9.41333,-2.7344 -10.608,-3.763067 -0.56,-0.447867 -0.792,-0.8828 -0.29866,-1.761467 l 1.70933,-2.941599 c 0.2,-0.347467 0.52267,-0.583334 0.90533,-0.6584 0.38667,-0.0744 0.812,0.01773 1.108,0.248533 2.008,1.518133 4.056,2.883733 6.992,2.883733 2.268,0 4.044,-1.485333 4.044,-3.3812 0,-2.1516 -1.74933,-3.7792 -5.85066,-5.440666 -3.9,-1.5744 -9.08534,-4.376534 -9.08534,-10.4916 0,-4.5136 3.42667,-9.374 10.94133,-9.374 5.07734,0 8.92534,2.690133 9.64534,3.230267 0.25466,0.152533 0.45866,0.462 0.53733,0.8312 0.0853,0.3984 0.012,0.810933 -0.19467,1.1052 l -1.79733,2.698933 c -0.22533,0.334933 -0.54667,0.606267 -0.884,0.7412 -0.40533,0.160933 -0.81467,0.127067 -1.152,-0.09693 l -0.34667,-0.2192 c -1.90933,-1.205734 -3.71333,-2.343734 -6.09333,-2.343734 -2.69466,0 -3.9,1.531734 -3.9,3.047867 0,2.024533 1.572,3.4896 5.42533,5.059333 4.98134,2.0032 10.07867,4.873467 10.07867,10.967733 0,4.6828 -3.91733,9.657867 -11.176,9.657867"
       style="fill:#ed1c24;fill-opacity:1;fill-rule:nonzero;stroke:none;stroke-width:0.133333" />
    <path
       id="path15"
       d="m 356.68932,83.815602 h -4.40933 c -0.624,0 -1.172,-0.5468 -1.172,-1.171867 V 51.255736 c 0,-0.624 0.548,-1.1708 1.172,-1.1708 h 4.40933 c 0.624,0 1.17067,0.5468 1.17067,1.1708 v 31.387999 c 0,0.625067 -0.54667,1.171867 -1.17067,1.171867"
       style="fill:#ed1c24;fill-opacity:1;fill-rule:nonzero;stroke:none;stroke-width:0.133333" />
    <path
       id="path16"
       d="m 375.19332,83.746935 h -4.408 c -0.624,0 -1.172,-0.548533 -1.172,-1.172 V 56.245336 h -6.98533 c -0.64267,0 -1.17067,-0.526 -1.17067,-1.1724 v -3.888 c 0,-0.644267 0.528,-1.169334 1.17067,-1.169334 h 20.72133 c 0.64667,0 1.172,0.525067 1.172,1.169334 v 3.888 c 0,0.6464 -0.52533,1.1724 -1.172,1.1724 h -6.98533 v 26.329599 c 0,0.623467 -0.54533,1.172 -1.17067,1.172"
       style="fill:#ed1c24;fill-opacity:1;fill-rule:nonzero;stroke:none;stroke-width:0.133333" />
    <path
       id="path17"
       d="m 403.71866,83.746935 h -4.36134 c -0.64533,0 -1.172,-0.5276 -1.172,-1.172 V 67.580269 L 387.42266,51.812002 c -0.24534,-0.393733 -0.26,-0.843733 -0.0533,-1.2156 0.20134,-0.364133 0.58934,-0.5808 1.03334,-0.5808 h 4.83733 c 0.38267,0 0.71067,0.179734 0.976,0.536 l 7.36933,10.5916 7.364,-10.5864 c 0.27334,-0.363066 0.6,-0.5412 0.98267,-0.5412 h 4.88267 c 0.444,0 0.832,0.216667 1.03333,0.579734 0.20933,0.372933 0.19067,0.822933 -0.0453,1.2068 l -10.912,15.731733 v 15.041066 c 0,0.623467 -0.54934,1.172 -1.172,1.172"
       style="fill:#ed1c24;fill-opacity:1;fill-rule:nonzero;stroke:none;stroke-width:0.133333" />
    <path
       id="path18"
       d="m 165.716,84.292135 c -7.64267,0 -13.40667,-5.539067 -13.40667,-12.885866 V 51.268802 c 0,-0.590133 0.516,-1.1068 1.10533,-1.1068 h 4.51067 c 0.61067,0 1.10667,0.496267 1.10667,1.1068 v 19.805733 c 0,3.968134 2.68666,6.636933 6.684,6.636933 3.96266,0 6.732,-2.709333 6.732,-6.589599 V 51.268802 c 0,-0.610533 0.49733,-1.1068 1.10533,-1.1068 h 4.51333 c 0.588,0 1.10534,0.516667 1.10534,1.1068 v 20.137467 c 0,7.346799 -5.78534,12.885866 -13.456,12.885866"
       style="fill:#ed1c24;fill-opacity:1;fill-rule:nonzero;stroke:none;stroke-width:0.133333" />
    <path
       id="path19"
       d="m 156.824,120.00827 v -9.5624 h 6.97066 c 2.592,0 4.64534,1.96773 4.64534,4.69266 0,2.76974 -1.608,4.86974 -4.64534,4.86974 z m 0.044,-13.58334 v -9.382795 h 5.85333 c 2.86,0 4.78,1.653733 4.78,4.601595 0,2.81667 -1.92,4.7812 -4.78,4.7812 z m 11.26,1.74227 c 2.45733,-1.20573 4.33466,-3.7068 4.33466,-7.0584 0,-4.689999 -3.888,-8.265599 -9.29333,-8.265599 h -10.008 c -0.492,0 -0.85067,0.402134 -0.85067,0.847467 v 29.579602 c 0,0.44533 0.35867,0.84906 0.85067,0.84906 h 10.5 c 5.628,0 9.73867,-3.61986 9.73867,-8.624 0,-3.97653 -2.59067,-6.21093 -5.272,-7.23706 v -0.0911"
       style="fill:#ed1c24;fill-opacity:1;fill-rule:nonzero;stroke:none;stroke-width:0.133333" />
    <path
       id="path20"
       d="m 176.91733,123.2688 c 0,0.4468 0.35733,0.84893 0.84933,0.84893 h 17.87067 c 0.49333,0 0.848,-0.40213 0.848,-0.84893 v -2.4584 c 0,-0.44533 -0.35467,-0.84733 -0.848,-0.84733 H 181.52 v -9.60574 h 11.92933 c 0.44667,0 0.848,-0.35786 0.848,-0.84906 v -2.50254 c 0,-0.4464 -0.40133,-0.84746 -0.848,-0.84746 H 181.52 v -9.114535 h 14.11733 c 0.49333,0 0.848,-0.402534 0.848,-0.850534 v -2.501066 c 0,-0.4468 -0.35467,-0.847867 -0.848,-0.847867 h -17.87067 c -0.492,0 -0.84933,0.401067 -0.84933,0.847867 V 123.2688"
       style="fill:#ed1c24;fill-opacity:1;fill-rule:nonzero;stroke:none;stroke-width:0.133333" />
    <path
       id="path21"
       d="m 201.30133,123.2688 c 0,0.4468 0.35733,0.84893 0.848,0.84893 h 15.90666 c 0.49067,0 0.848,-0.40213 0.848,-0.84893 v -2.4584 c 0,-0.44533 -0.35733,-0.84733 -0.848,-0.84733 h -12.108 V 93.692135 c 0,-0.4468 -0.40266,-0.847867 -0.84933,-0.847867 h -2.94933 c -0.49067,0 -0.848,0.401067 -0.848,0.847867 V 123.2688"
       style="fill:#ed1c24;fill-opacity:1;fill-rule:nonzero;stroke:none;stroke-width:0.133333" />
    <path
       id="path22"
       d="m 222.33466,123.2688 c 0,0.4468 0.35733,0.84893 0.84667,0.84893 h 2.90666 c 0.44534,0 0.848,-0.40213 0.848,-0.84893 v -11.75 h 11.92934 c 0.44666,0 0.84933,-0.40107 0.84933,-0.84907 v -2.45826 c 0,-0.44534 -0.40267,-0.84747 -0.84933,-0.84747 H 226.93599 V 97.043735 h 14.11867 c 0.49067,0 0.848,-0.402534 0.848,-0.850534 v -2.501066 c 0,-0.4468 -0.35733,-0.847867 -0.848,-0.847867 h -17.87333 c -0.48934,0 -0.84667,0.401067 -0.84667,0.847867 V 123.2688"
       style="fill:#ed1c24;fill-opacity:1;fill-rule:nonzero;stroke:none;stroke-width:0.133333" />
    <path
       id="path23"
       d="m 249.35199,113.48493 5.452,-12.24066 h 0.224 l 5.49334,12.24066 z m -8.30933,10.6328 h 2.81467 c 0.536,0 0.89333,-0.3568 1.028,-0.66933 l 2.72533,-6.1208 h 14.60933 l 2.77067,6.1208 c 0.17733,0.40107 0.49067,0.66933 1.02667,0.66933 h 2.81466 c 0.66934,0 1.02934,-0.5792 0.76134,-1.15986 l -13.628,-30.069335 c -0.13334,-0.2692 -0.53734,-0.4932 -0.75867,-0.4932 h -0.448 c -0.22267,0 -0.62533,0.224 -0.76,0.4932 l -13.716,30.069335 c -0.26933,0.58066 0.0893,1.15986 0.76,1.15986"
       style="fill:#ed1c24;fill-opacity:1;fill-rule:nonzero;stroke:none;stroke-width:0.133333" />
    <path
       id="path24"
       d="m 272.88933,121.036 c 0.71333,0.6692 4.15466,3.5296 9.60533,3.5296 5.80933,0 9.96133,-3.79787 9.96133,-8.44373 0,-5.45054 -4.42133,-7.9088 -9.604,-10.00787 -3.708,-1.51973 -5.67466,-3.08333 -5.67466,-5.63013 0,-1.653602 1.296,-4.020802 5.05066,-4.020802 2.59067,0 4.28667,1.1156 6.02934,2.2328 0.62666,0.401067 1.20666,0.1344 1.56533,-0.448 l 1.116,-1.696267 c 0.448,-0.670933 0.0893,-1.295866 -0.268,-1.519866 -0.44533,-0.313467 -3.79733,-2.635334 -8.26533,-2.635334 -7.10267,0 -9.784,4.7812 -9.784,8.267199 0,5.18067 3.57333,7.54947 8.13066,9.46973 4.424,1.83227 6.74667,3.53027 6.74667,6.21094 0,2.2776 -1.96667,4.1536 -5.048,4.1536 -3.44133,0 -5.048,-1.33854 -7.148,-3.08067 -0.492,-0.40213 -1.16267,-0.224 -1.52,0.3568 l -1.16133,1.83067 c -0.49334,0.7604 -0.13467,1.07293 0.268,1.43133"
       style="fill:#ed1c24;fill-opacity:1;fill-rule:nonzero;stroke:none;stroke-width:0.133333" />
    <path
       id="path25"
       d="m 302.27599,123.2688 c 0,0.4468 0.40267,0.84893 0.84934,0.84893 h 2.948 c 0.44666,0 0.84933,-0.40213 0.84933,-0.84893 V 97.043735 h 7.284 c 0.49067,0 0.848,-0.402534 0.848,-0.850534 v -2.501066 c 0,-0.4468 -0.35733,-0.847867 -0.848,-0.847867 h -19.212 c -0.492,0 -0.84933,0.401067 -0.84933,0.847867 v 2.501066 c 0,0.448 0.35733,0.850534 0.84933,0.850534 h 7.28133 V 123.2688"
       style="fill:#ed1c24;fill-opacity:1;fill-rule:nonzero;stroke:none;stroke-width:0.133333" />
    <path
       id="path26"
       d="M 0,0.42267041 V 83.898935 C 0,120.40573 29.593733,150 66.100532,150 102.60626,150 132.20053,120.40573 132.20053,83.898935 V 0.42267041 H 0"
       style="fill:#ed1c24;fill-opacity:1;fill-rule:nonzero;stroke:none;stroke-width:0.133333" />
    <path
       id="path27"
       d="m 124.94173,7.6826702 h -11.6824 L 66.100532,54.841202 v -5.33e-4 l -0.0011,5.33e-4 L 18.9412,7.6826702 H 7.2593732 V 21.021337 L 53.589599,67.351602 12.590626,108.34947 c 2.549507,5.58333 5.911507,10.60933 9.958307,15.06413 L 66.099465,79.862535 h 0.0011 v 0 L 109.65213,123.4136 c 4.04573,-4.4548 7.40827,-9.4808 9.9572,-15.06413 L 78.611465,67.351602 124.94173,21.021337 V 7.6826702"
       style="fill:#ffffff;fill-opacity:1;fill-rule:nonzero;stroke:none;stroke-width:0.133333" />
    <path
       id="path28"
       d="m 77.054131,64.520802 c -1.764,-1.286933 -3.3812,1.583867 -3.3812,1.583867 -1.107866,-1.5016 -2.173466,0.126 -2.173466,0.126 1.494267,1.031866 1.3636,3.454266 -1.468267,2.842266 -2.8312,-0.614666 -3.137466,-3.0604 -3.137466,-3.0604 l 2.124,0.779067 -0.0021,-3.526533 -2.027066,0.756266 0.6792,-2.477066 h -1.590134 -1.5912 l 0.6792,2.477066 -2.0292,-0.756266 -0.0015,3.526533 2.1244,-0.779067 c 0,0 -0.305734,2.445734 -3.139067,3.0604 -2.8312,0.612 -2.960933,-1.8104 -1.466133,-2.842266 0,0 -1.0656,-1.6276 -2.171867,-0.126 0,0 -1.618266,-2.8708 -3.3828,-1.583867 0,0 2.488534,3.072933 2.795867,11.260933 0,0 2.345333,-1.5068 8.182266,-1.4468 5.836,-0.06 8.180267,1.4468 8.180267,1.4468 0.3072,-8.188 2.796266,-11.260933 2.796266,-11.260933"
       style="fill:#ed1c24;fill-opacity:1;fill-rule:nonzero;stroke:none;stroke-width:0.133333" />
    <path
       id="path29"
       d="m 56.633865,63.072402 c 0.181734,0.03907 0.3552,0.1 0.5224,0.171867 1.5776,-3.358267 4.988533,-5.6844 8.944267,-5.6844 3.9552,0 7.365599,2.326133 8.943199,5.6844 0.168267,-0.07187 0.3412,-0.1328 0.522934,-0.171867 0.550533,-0.119733 1.096933,-0.062 1.609866,0.1604 -1.488533,-3.917733 -4.994799,-6.840666 -9.249999,-7.498933 l -1.826,1.825467 v 0 h -0.0011 l -1.824933,-1.825467 c -4.2552,0.658267 -7.762533,3.5812 -9.25,7.4984 0.511867,-0.221867 1.057733,-0.2796 1.609333,-0.159867"
       style="fill:#ed1c24;fill-opacity:1;fill-rule:nonzero;stroke:none;stroke-width:0.133333" />
    <path
       id="path30"
       d="m 66.077598,76.762002 v 0 l 2.2188,2.217733 c 2.987467,-0.212 5.1552,-0.8448 5.1552,-1.5912 0,-0.920266 -3.3016,-1.667733 -7.374,-1.667733 -4.0724,0 -7.373999,0.747467 -7.373999,1.667733 0,0.7464 2.167733,1.3792 5.155199,1.5912 l 2.2188,-2.217733 v 0"
       style="fill:#ed1c24;fill-opacity:1;fill-rule:nonzero;stroke:none;stroke-width:0.133333" />
    <path
       id="path31"
       d="m 75.894798,13.96667 c -0.340133,0.028 -1.7088,0.07067 -3.236,-0.888 -1.521333,-0.957333 -3.1468,-0.586667 -3.5604,-0.468 v 1.454667 c 0.4136,-0.12 2.039067,-0.490667 3.5604,0.466666 1.5272,0.958667 2.895867,0.917334 3.236,0.888 z m 0,5.433867 c -0.340133,0.02813 -1.7088,0.0708 -3.236,-0.8896 -1.521333,-0.957334 -3.1468,-0.5864 -3.5604,-0.466667 v 1.4536 c 0.4136,-0.119733 2.039067,-0.490533 3.5604,0.466133 1.5272,0.960934 2.895867,0.918267 3.236,0.890134 z m 0,5.433333 c -0.340133,0.02867 -1.7088,0.06973 -3.236,-0.890134 -1.521333,-0.956799 -3.1468,-0.585466 -3.5604,-0.4672 v 1.453734 c 0.4136,-0.118267 2.039067,-0.4896 3.5604,0.4676 1.5272,0.9604 2.895867,0.918266 3.236,0.889066 z M 63.102665,12.61067 c -0.417733,-0.118667 -2.039067,-0.489333 -3.561466,0.468 -1.526134,0.958667 -2.895867,0.916 -3.236,0.888 v 1.453333 c 0.340133,0.02933 1.709866,0.07067 3.236,-0.888 1.522399,-0.957333 3.143733,-0.586666 3.561466,-0.466666 z m 0,5.4336 c -0.417733,-0.119733 -2.039067,-0.490667 -3.561466,0.466667 -1.526134,0.9604 -2.895867,0.917733 -3.236,0.8896 v 1.4536 c 0.340133,0.02813 1.709866,0.0708 3.236,-0.890134 1.522399,-0.956666 3.143733,-0.585866 3.561466,-0.466133 z m 0,5.432266 c -0.417733,-0.118266 -2.039067,-0.489599 -3.561466,0.4672 -1.526134,0.959867 -2.895867,0.9188 -3.236,0.890134 v 1.453066 c 0.340133,0.0292 1.709866,0.07133 3.236,-0.889066 1.522399,-0.9572 3.143733,-0.585867 3.561466,-0.4676 z M 72.703598,9.2213369 c 2.337067,1.8306661 5.697467,0.9546661 5.697467,0.9546661 v 20.208933 c 0,0 -3.3604,0.876 -5.697467,-0.9552 -2.323333,-1.819866 -6.5484,-0.302666 -6.602,1.8692 v 0.0396 c 0,-0.0068 -0.0011,-0.01307 -0.0011,-0.01827 0,0.0052 -0.0032,0.01147 -0.0032,0.01827 v -0.0396 c -0.052,-2.171866 -4.278534,-3.689066 -6.600933,-1.8692 -2.337067,1.8312 -5.696934,0.9552 -5.696934,0.9552 V 10.176003 c 0,0 3.359867,0.876 5.696934,-0.9546661 2.329599,-1.8266667 6.578133,-0.2933334 6.604133,1.8906661 0.02547,-2.1839995 4.273466,-3.7173328 6.603066,-1.8906661 m 7.7704,0.9533331 c 1.130133,0 2.045733,0.914667 2.0468,2.044 V 34.440136 H 68.396932 c -0.3224,0.9656 -1.221467,1.665067 -2.295334,1.670267 h -0.0011 -0.0032 c -1.072267,-0.0052 -1.971334,-0.704667 -2.2932,-1.670267 H 49.679199 V 12.21867 c 0.0015,-1.129333 0.916666,-2.044 2.0468,-2.044 v 22.23 h 12.153733 c 0,0 1.830666,-0.04427 2.2208,2.0276 0.389066,-2.071867 2.221333,-2.0276 2.221333,-2.0276 h 12.152133 v -22.23"
       style="fill:#ffffff;fill-opacity:1;fill-rule:nonzero;stroke:none;stroke-width:0.133333" />
    <path
       id="path32"
       d="m 62.742665,129.56827 h 0.5428 c 0.6864,0 1.1848,0.50666 1.1848,1.20306 0,0.69947 -0.4984,1.2084 -1.1848,1.2084 h -0.5428 z m 0.611467,3.35826 c 1.189066,0 2.155733,-0.96506 2.155733,-2.1552 0,-1.18333 -0.966667,-2.14586 -2.155733,-2.14586 h -1.375467 c -0.121867,0 -0.223467,0.1068 -0.223467,0.2308 v 3.84213 c 0,0.12507 0.100534,0.22813 0.223467,0.22813 h 1.375467 m -0.980667,1.3948 c 0,0.4016 0.322933,0.7256 0.723867,0.7256 0.402666,0 0.727733,-0.324 0.727733,-0.7256 0,-0.4016 -0.325067,-0.72546 -0.727733,-0.72546 -0.400934,0 -0.723867,0.32386 -0.723867,0.72546 m 21.6984,0.0437 c 0.229733,0.27613 0.822933,0.75893 1.8,0.75893 1.260933,0 2.210399,-0.95053 2.210399,-2.09333 0,-1.1952 -0.793733,-2.0276 -2.090533,-2.0276 h -0.786533 v -1.21454 h 2.028133 c 0.1,0 0.172933,-0.0807 0.172933,-0.17346 v -0.6208 c 0,-0.0912 -0.07293,-0.17187 -0.172933,-0.17187 h -2.886933 c -0.1016,0 -0.1724,0.0807 -0.1724,0.17187 v 2.69533 c 0,0.14587 0.100533,0.31867 0.2828,0.31867 h 1.4068 c 0.721333,0 1.104666,0.4584 1.104666,1.0224 0,0.5772 -0.437999,1.07973 -1.059466,1.07973 -0.612933,0 -1.1416,-0.47547 -1.178533,-0.512 -0.07147,-0.0635 -0.1552,-0.0453 -0.2204,0.009 l -0.455734,0.4484 c -0.109866,0.10773 -0.100533,0.17186 0.01773,0.3088 m -3.5364,-1.6068 v -2.19267 l -1.827067,2.19267 z m -2.858934,0.94853 c -0.100533,0 -0.1744,-0.0813 -0.1744,-0.17187 v -0.7584 l 3.289067,-4.00253 c 0.0276,-0.0271 0.0728,-0.0521 0.137467,-0.0521 h 0.4948 c 0.09053,0 0.172933,0.0703 0.172933,0.17346 v 3.88907 h 0.729067 c 0.100533,0 0.174533,0.0729 0.174533,0.1656 v 0.56613 c 0,0.0917 -0.074,0.17294 -0.174533,0.17294 h -0.729067 l 0.0077,1.16973 c 0,0.0907 -0.0828,0.17453 -0.172933,0.17453 h -0.758267 c -0.09227,0 -0.175066,-0.0839 -0.175066,-0.17453 v -1.152 h -2.821334 m -4.841599,-0.35467 c 0,0.50254 0.456266,0.83854 0.949999,0.83854 0.502,0 0.9484,-0.336 0.9484,-0.83854 0,-0.41253 -0.336,-0.83186 -0.9484,-0.9672 -0.611466,0.13534 -0.949999,0.55467 -0.949999,0.9672 m 0.949999,-2.03653 c 0.5656,-0.13013 0.830134,-0.47653 0.830134,-0.86827 0,-0.43906 -0.372934,-0.776 -0.85,-0.776 -0.436933,0 -0.812,0.33694 -0.812,0.776 0,0.41 0.255333,0.73027 0.831866,0.86827 m -2.164666,2.05373 c 0,-0.7944 0.849467,-1.39746 1.1052,-1.52613 v -0.026 c -0.376,-0.20053 -0.9416,-0.70467 -0.9416,-1.41667 0,-1.01306 0.876533,-1.67186 1.9812,-1.67186 1.143333,0 2.019866,0.6588 2.019866,1.67186 0,0.69534 -0.566133,1.18747 -0.941733,1.40627 v 0.0364 c 0.413067,0.212 1.106267,0.7396 1.106267,1.52613 0,0.99574 -0.840667,1.7536 -2.1844,1.7536 -1.3052,0 -2.1448,-0.75786 -2.1448,-1.7536 m -3.24,1.48947 c 0,0.0907 0.0728,0.17187 0.171333,0.17187 h 0.788 c 0.0916,0 0.164534,-0.0812 0.164534,-0.17187 v -5.86453 c 0,-0.0912 -0.07293,-0.17347 -0.164534,-0.17347 h -0.639066 l -1.316134,1.10573 c -0.036,0.0365 -0.05373,0.0896 -0.04587,0.16507 l 0.0552,0.44693 c 0.0099,0.0817 0.100533,0.1364 0.182266,0.11827 l 0.804267,-0.17453 z m -10.7724,0 c 0,0.0907 0.08013,0.17187 0.1708,0.17187 h 0.852534 c 0.09013,0 0.172933,-0.0812 0.172933,-0.17187 v -5.12493 h 1.397466 c 0.1,0 0.1744,-0.0823 0.1744,-0.17347 v -0.7484 c 0,-0.0912 -0.0744,-0.17453 -0.1744,-0.17453 h -3.991199 c -0.100534,0 -0.1744,0.0833 -0.1744,0.17453 v 0.7484 c 0,0.0912 0.07387,0.17347 0.1744,0.17347 h 1.397466 z m -7.264133,-0.4484 c 0.181333,0.17507 0.8568,0.71253 2.008933,0.71253 1.288,0 2.1,-0.86826 2.1,-1.8084 0,-1.17853 -1.022,-1.7072 -1.9084,-2.06506 -0.740133,-0.30107 -1.078133,-0.59267 -1.078133,-1.0224 0,-0.2916 0.2828,-0.63907 0.8036,-0.63907 0.502667,0 1.1964,0.45573 1.269333,0.50267 0.109867,0.0729 0.247334,0 0.321867,-0.10947 l 0.345867,-0.5208 c 0.06453,-0.0927 0.03533,-0.24733 -0.05467,-0.30213 -0.1824,-0.138 -0.894267,-0.61094 -1.826133,-0.61094 -1.4536,0 -2.0552,0.93907 -2.0552,1.75267 0,1.07707 0.857866,1.6276 1.7156,1.97293 0.768266,0.31094 1.161466,0.6312 1.161466,1.09787 0,0.39173 -0.356133,0.70267 -0.8312,0.70267 -0.593733,0 -1.3344,-0.53854 -1.379733,-0.56827 -0.08227,-0.0599 -0.237467,-0.0599 -0.3104,0.0656 l -0.3296,0.56667 c -0.0824,0.14533 -0.03547,0.19173 0.0468,0.27293 m -6.225466,-5.5984 c 0,-0.0912 0.07293,-0.17453 0.171866,-0.17453 h 3.718667 c 0.1,0 0.172933,0.0833 0.172933,0.17453 v 0.7484 c 0,0.0912 -0.07293,0.17347 -0.172933,0.17347 h -2.7036 v 1.4984 h 2.2552 c 0.09267,0 0.175066,0.0808 0.175066,0.17346 v 0.7588 c 0,0.10054 -0.0824,0.17347 -0.175066,0.17347 h -2.2552 v 1.598 h 2.7036 c 0.1,0 0.172933,0.0812 0.172933,0.17333 v 0.74947 c 0,0.0907 -0.07293,0.17187 -0.172933,0.17187 h -3.718667 c -0.09893,0 -0.171866,-0.0812 -0.171866,-0.17187 v -6.0468"
       style="fill:#ffffff;fill-opacity:1;fill-rule:nonzero;stroke:none;stroke-width:0.133333" />
    <path
       id="path33"
       d="m 16.697333,70.865069 c 5.5048,-9.206267 10.595333,-6.4744 10.595333,-6.4744 -5.9364,-0.399067 -10.058266,5.643733 -10.595333,6.4744 z m 16.652133,-12.712 c 0,-1.056133 -0.857333,-1.913467 -1.913067,-1.913467 -1.0572,0 -1.914,0.857334 -1.914,1.913467 l 0.0011,9.051066 c 0,0 -5.289067,-0.614 -8.251067,5.737467 0,0 2.1568,-6.809333 7.174534,-6.959867 0,0 0.01093,-16.901066 0.01093,-16.918666 0,-0.952666 -0.772933,-1.724 -1.723467,-1.724 -0.952666,0 -1.7224,0.771334 -1.7224,1.724 v 12.34 c 0,0 1.145334,0.217733 1.418667,0.302133 0,0 -0.970267,-0.0844 -1.418667,-0.1016 -0.343733,-0.01293 -0.683866,-0.0208 -1.018266,-0.0124 V 46.988003 c 0,-0.952 -0.771867,-1.721867 -1.722934,-1.721867 -0.950533,0 -1.721866,0.769867 -1.721866,1.721867 v 14.853199 c -0.342134,0.03427 -0.664533,0.0708 -0.9812,0.1088 V 50.069736 c 0,-0.866133 -0.703733,-1.5692 -1.5704,-1.5692 -0.866133,0 -1.554133,0.7036 -1.554133,1.569733 v 12.3912 c -1.3672,0.240667 -2.327067,0.4484 -2.477067,0.497333 0.493733,-0.2228 0.982267,-0.420266 1.466667,-0.5948 v -7.3604 c 0,-0.715066 -0.580134,-1.2948 -1.295334,-1.2948 -0.716133,0 -1.266106,0.579734 -1.266106,1.2948 v 15.680267 c 0.138533,3.5948 1.136506,10.410399 6.98224,10.353066 0,0 -1.434267,0.551067 -3.179067,-0.29 0,0 0.0744,0.330667 -0.0172,1.527067 -0.0928,1.1968 0.07493,2.223866 0.352,2.699466 h 10.486533 c 0,0 -1.419867,-3.557333 1.932267,-8.2776 0,0 3.919733,-5.489599 3.919733,-9.491733 l 0.0016,-9.051066"
       style="fill:#ffffff;fill-opacity:1;fill-rule:nonzero;stroke:none;stroke-width:0.133333" />
    <path
       id="path34"
       d="m 104.69013,52.552669 c 0.36093,-0.657333 1.57813,0.433733 1.57813,0.433733 0,0 -0.2136,-0.02493 -0.92506,0.438134 -0.862,0.561466 -1.01294,-0.214134 -0.65307,-0.871867 z m 3.0484,4.8848 c 0.0339,0 3.6672,0.3464 4.20267,-3.151067 0,0 0.2036,3.746934 3.68333,1.7584 0,0 -0.33027,3.807334 3.302,2.012 0,0 -0.79627,3.0828 2.01307,2.712 0,0 7.04786,-16.709466 -11.75574,-12.901066 0,0 4.93854,-3.667733 10.4448,-0.6928 0,0 -4.87706,-7.1484 -15.69226,-0.8676 0,0 2.2568,1.180133 1.24333,3.3296 0,0 -1.34227,0.988533 -1.862,2.146933 -0.5188,1.1588 -0.0751,4.590133 -4.425999,4.799467 0,0 -0.696933,2.154133 2.263469,2.9896 0.5464,0.154133 0.6672,0.0276 2.024,-1.095867 1.4156,-1.170267 4.52546,-1.0396 4.55933,-1.0396"
       style="fill:#ffffff;fill-opacity:1;fill-rule:nonzero;stroke:none;stroke-width:0.133333" />
    <path
       id="path35"
       d="m 116.83333,66.037469 c 0.36667,-0.495334 1.97547,-1.955734 1.6636,-2.402 -1.19013,-1.7052 -5.04333,-5.5448 -7.96933,-4.271467 -0.96614,0.419867 -2.42134,1.2084 -2.95054,1.430267 -2.02293,0.851067 -3.74893,2.2396 -4.65573,4.2844 -1.92867,4.3484 1.40893,8.240666 4.58133,10.840666 1.65614,1.3572 3.3864,2.621867 5.02854,3.9952 1.2084,1.012 2.73026,2.669333 2.14426,4.406267 -0.52813,1.5652 -2.84626,2.671866 -4.05826,1.059866 -0.55267,-0.735333 -0.61774,-1.979066 0.24266,-2.516666 0.9016,-0.564 1.90987,0.375066 2.12867,1.2292 0.1536,-1.647334 -0.3792,-3.571867 -2.17347,-4.0328 -1.69626,-0.435867 -3.50146,0.6536 -4.3672,2.078133 -1.56146,2.575467 -0.63226,6.471333 1.9428,8.0432 2.66507,1.626133 6.45667,0.6432 8.20574,-1.8776 1.10053,-1.585867 1.23906,-3.676 0.51146,-5.445333 -0.76573,-1.860934 -2.43333,-3.0208 -3.986,-4.1848 -1.7864,-1.340134 -3.16666,-2.681333 -4.49586,-4.562533 -1.92027,-2.718267 -1.98334,-6.013067 -1.51974,-7.099467 -0.52706,2.3192 0.90307,4.666667 2.3192,6.380133 1.6344,1.9776 3.73187,3.466667 5.8224,4.919867 1.0876,0.7552 2.1084,1.635333 2.71667,2.8344 -0.15,-1.66 -0.94627,-3.1808 -1.81613,-4.570933 0.71253,0.128133 1.67453,0.314666 2.34586,-0.052 1.09427,-0.598934 -0.18386,-2.0156 -0.6828,-2.5552 1.6068,-0.202134 3.15734,-1.195334 3.72494,-2.757867 0.66573,-1.828667 -0.14374,-3.826 -0.98747,-5.452133 -1.37547,5.742266 -5.95627,3.308933 -3.7156,0.2792"
       style="fill:#ffffff;fill-opacity:1;fill-rule:nonzero;stroke:none;stroke-width:0.133333" />
    <path
       id="path36"
       d="m 79.030265,98.478668 v 2.084402 c 0,0 -1.8172,-0.548 -2.7308,0.74373 -0.875467,1.238 -12.330667,17.6468 -13.284933,19.0156 -0.350934,-0.64747 -0.659867,-1.29693 -0.932267,-1.94267 l 0.1208,-15.14066 c -2.180667,0.43746 -4.335866,0.3552 -5.880666,-0.69174 v -2.641595 c 0,0 3.839066,3.003595 10.870799,0.08853 7.032267,-2.9156 9.337067,-2.579733 11.25,-1.497333 0,0 -3.152,-2.525067 -10.253066,0.5676 -7.257867,3.159998 -11.033867,0.619866 -12.302667,-0.492134 l 0.01773,-3.6396 c 0,0 4.722399,5.583332 12.086933,2.5808 7.365733,-3.002666 11.038133,0.965067 11.038133,0.965067 z m 1.34,4.580662 c 0,1.14427 -0.929067,2.07294 -2.0724,2.07294 -0.480667,0 -0.900534,-0.19014 -1.251467,-0.46347 l -0.406267,0.75093 0.877067,0.56934 -8.7584,19.12346 c 0,0 -2.071866,0 -2.228133,0 -0.298933,-0.18853 -0.4432,-0.4688 -0.6536,-0.7068 l 10.839066,-20.04946 c 0,-0.003 0,-0.003 -0.0011,-0.004 l -11.292133,19.5276 c -0.792667,-0.9532 -1.470267,-1.9324 -2.048934,-2.92093 l 13.101467,-18.888 c 0.45,-0.66507 1.034933,-1.0844 1.8224,-1.0844 1.143333,0 2.0724,0.92813 2.0724,2.07293 z m -20.711866,1.29427 c -1.249067,-0.026 -2.403734,-0.30467 -3.336534,-0.9364 -0.897333,11.68227 5.936933,17.99213 5.936933,17.99213 -0.479066,-0.43066 -1.132266,-0.67293 -1.860933,-0.52866 -0.928133,0.18493 -1.65,0.974 -1.74,1.91573 -0.124533,1.2968 0.890534,2.3864 2.161467,2.3864 0.5468,0 1.016666,-0.20933 1.414533,-0.52347 1.5968,-1.2536 3.140667,0.32294 3.2604,0.44947 v 0 c -8.257866,-8.63693 -6.1568,-19.35053 -5.835866,-20.7552 z m 13.886932,-5.579599 c 0,0 -0.618266,0.1744 -1.598933,0.530134 l 0.1296,5.085995 1.469333,-2.10946 z m -1.748399,0.583334 c -0.5136,0.189066 -1.116267,0.423333 -1.779734,0.705735 l 0.179734,7.02493 1.556666,-2.2344 z m -1.919334,0.765595 c -0.563066,0.24214 -1.164,0.51827 -1.787466,0.82814 l 0.225466,8.83746 1.502134,-2.15626 z m -1.9192,0.8948 c -0.248533,0.12494 -0.498533,0.25254 -0.752666,0.388 -0.333334,0.17974 -0.6844,0.35 -1.0432,0.5156 l 0.270266,10.57134 1.45,-2.08174 z m -1.919866,0.96094 c -0.580134,0.26293 -1.186934,0.50106 -1.807334,0.71093 l 0.319867,12.5052 1.397333,-2.00787 z m -1.918267,0.74733 c -0.600933,0.198 -1.2124,0.36827 -1.8244,0.49587 l 0.375467,14.67186 1.3432,-1.92813 0.105733,-13.2396"
       style="fill:#ffffff;fill-opacity:1;fill-rule:nonzero;stroke:none;stroke-width:0.133333" />
  </g>
</svg>
