<?xml version="1.0" encoding="UTF-8" standalone="no"?>
<!-- Created with Inkscape (http://www.inkscape.org/) -->

<svg
   width="1100"
   height="440"
   viewBox="0 0 1100 440"
   version="1.1"
   id="svg1"
   inkscape:version="1.4.3 (0d15f75042, 2025-12-25)"
   sodipodi:docname="estático.svg"
   inkscape:export-filename="cover.png"
   inkscape:export-xdpi="96"
   inkscape:export-ydpi="96"
   xmlns:inkscape="http://www.inkscape.org/namespaces/inkscape"
   xmlns:sodipodi="http://sodipodi.sourceforge.net/DTD/sodipodi-0.dtd"
   xmlns="http://www.w3.org/2000/svg"
   xmlns:svg="http://www.w3.org/2000/svg"
   xmlns:rdf="http://www.w3.org/1999/02/22-rdf-syntax-ns#"
   xmlns:cc="http://creativecommons.org/ns#"
   xmlns:dc="http://purl.org/dc/elements/1.1/">
  <sodipodi:namedview
     id="namedview1"
     pagecolor="#ffffff"
     bordercolor="#000000"
     borderopacity="0.25"
     inkscape:showpageshadow="2"
     inkscape:pageopacity="0.0"
     inkscape:pagecheckerboard="0"
     inkscape:deskcolor="#d1d1d1"
     inkscape:document-units="px"
     showguides="true"
     inkscape:zoom="0.70644641"
     inkscape:cx="467.12673"
     inkscape:cy="263.99738"
     inkscape:window-width="1920"
     inkscape:window-height="1011"
     inkscape:window-x="0"
     inkscape:window-y="0"
     inkscape:window-maximized="1"
     inkscape:current-layer="text9-9">
    <sodipodi:guide
       position="55,495"
       orientation="-1,0"
       id="guide24"
       inkscape:locked="false"
       inkscape:label=""
       inkscape:color="rgb(0,134,229)" />
    <sodipodi:guide
       position="-55,385"
       orientation="0,1"
       id="guide25"
       inkscape:locked="false"
       inkscape:label=""
       inkscape:color="rgb(0,134,229)" />
    <sodipodi:guide
       position="1045,495"
       orientation="-1,0"
       id="guide26"
       inkscape:locked="false"
       inkscape:label=""
       inkscape:color="rgb(0,134,229)" />
    <sodipodi:guide
       position="-55,55"
       orientation="0,1"
       id="guide27"
       inkscape:locked="false"
       inkscape:label=""
       inkscape:color="rgb(0,134,229)" />
    <sodipodi:guide
       position="-55,219.17646"
       orientation="0,1"
       id="guide28"
       inkscape:locked="false"
       inkscape:label=""
       inkscape:color="rgb(0,134,229)" />
    <sodipodi:guide
       position="-55,412.5"
       orientation="0,1"
       id="guide29"
       inkscape:locked="false"
       inkscape:label=""
       inkscape:color="rgb(0,134,229)" />
    <sodipodi:guide
       position="-55,27.5"
       orientation="0,1"
       id="guide30"
       inkscape:locked="false"
       inkscape:label=""
       inkscape:color="rgb(0,134,229)" />
    <sodipodi:guide
       position="1072.5,495"
       orientation="-1,0"
       id="guide32"
       inkscape:locked="false"
       inkscape:label=""
       inkscape:color="rgb(0,134,229)" />
  </sodipodi:namedview>
  <defs
     id="defs1">
    <rect
       x="450"
       y="400"
       width="503.55011"
       height="84.995087"
       id="rect10" />
    <rect
       x="450"
       y="400"
       width="503.55011"
       height="84.995087"
       id="rect24" />
    <rect
       x="450"
       y="400"
       width="503.55011"
       height="84.995087"
       id="rect10-7" />
  </defs>
  <g
     inkscape:groupmode="layer"
     id="layer2"
     inkscape:label="Background"
     sodipodi:insensitive="true">
    <rect
       style="fill:#ffd000;stroke-width:0.944882;stroke-linecap:square;stroke-miterlimit:5"
       id="rect1"
       width="1100"
       height="440"
       x="0"
       y="0" />
  </g>
  <g
     inkscape:label="Name"
     inkscape:groupmode="layer"
     id="layer1"
     transform="matrix(0.66027147,0,0,0.66027147,-54.556423,10.133342)"
     style="stroke-width:1.51453"
     sodipodi:insensitive="true">
    <g
       id="text9-9"
       style="font-weight:bold;font-size:27.4682px;line-height:1.25;font-family:'Inter 28pt';-inkscape-font-specification:'Inter 28pt Bold';text-align:center;letter-spacing:0px;word-spacing:0px;white-space:pre;stroke-width:3.44575;stroke-linecap:round;stroke-miterlimit:0"
       inkscape:label="Simpósio Interdisciplinar Brasileieo de Modelos Baseados em Agentes"
       transform="matrix(1.255695,0,0,1.255695,299.75441,-157.26893)"
       aria-label="Simpósio Interdisciplinar Brasileiro&#10;de Modelos Baseados em Agentes">
      <path
         style="font-weight:500;font-family:Montserrat;-inkscape-font-specification:'Montserrat Medium';text-align:start"
         d="m 458.48767,425.64557 q -2.16998,0 -4.20263,-0.65924 -2.00518,-0.6867 -3.15884,-1.75796 l 1.01632,-2.14252 q 1.09873,0.98885 2.80176,1.62062 1.73049,0.6043 3.54339,0.6043 2.38974,0 3.57087,-0.79658 1.18113,-0.82404 1.18113,-2.16999 0,-0.98885 -0.65923,-1.59315 -0.63177,-0.63177 -1.59316,-0.96139 -0.93392,-0.32962 -2.66442,-0.74164 -2.16998,-0.5219 -3.51592,-1.04379 -1.31848,-0.5219 -2.27987,-1.59316 -0.93391,-1.09873 -0.93391,-2.93909 0,-1.53822 0.79657,-2.77429 0.82405,-1.23607 2.47214,-1.97771 1.64809,-0.74164 4.09276,-0.74164 1.70303,0 3.35112,0.43949 1.6481,0.43949 2.82923,1.26353 l -0.90645,2.19746 q -1.2086,-0.76911 -2.58201,-1.15366 -1.37341,-0.41203 -2.69189,-0.41203 -2.33479,0 -3.51593,0.85152 -1.15366,0.85151 -1.15366,2.19745 0,0.98886 0.65924,1.62063 0.65923,0.6043 1.62062,0.96138 0.98886,0.32962 2.66442,0.71418 2.16998,0.52189 3.48846,1.04379 1.31847,0.52189 2.25239,1.59315 0.96139,1.07126 0.96139,2.88417 0,1.51075 -0.82405,2.77428 -0.82405,1.23607 -2.49961,1.97771 -1.67556,0.71418 -4.12023,0.71418 z m 11.0697,-14.7779 h 2.63694 v 14.55815 h -2.63694 z m 1.31847,-2.80175 q -0.76911,0 -1.29101,-0.49443 -0.49442,-0.49443 -0.49442,-1.2086 0,-0.71417 0.49442,-1.2086 0.5219,-0.5219 1.29101,-0.5219 0.76911,0 1.26354,0.49443 0.52189,0.46696 0.52189,1.18113 0,0.74165 -0.52189,1.26354 -0.49443,0.49443 -1.26354,0.49443 z m 24.55655,2.66441 q 2.74682,0 4.33998,1.59316 1.62062,1.59316 1.62062,4.72453 v 8.3778 h -2.63694 v -8.07565 q 0,-2.11505 -0.98886,-3.18631 -0.96139,-1.07126 -2.77429,-1.07126 -2.00518,0 -3.18631,1.26354 -1.18113,1.23607 -1.18113,3.57086 v 7.49882 h -2.63695 v -8.07565 q 0,-2.11505 -0.98885,-3.18631 -0.96139,-1.07126 -2.77429,-1.07126 -2.00518,0 -3.18631,1.26354 -1.18114,1.23607 -1.18114,3.57086 v 7.49882 h -2.63694 v -14.55815 h 2.52707 v 2.16999 q 0.79658,-1.12619 2.08758,-1.70303 1.29101,-0.6043 2.9391,-0.6043 1.70303,0 3.0215,0.68671 1.31848,0.6867 2.03265,2.00518 0.82405,-1.26354 2.27986,-1.97771 1.48328,-0.71418 3.32365,-0.71418 z m 18.54102,0 q 2.11505,0 3.79061,0.93392 1.67556,0.93392 2.60948,2.60948 0.96139,1.67556 0.96139,3.87302 0,2.19745 -0.96139,3.90048 -0.93392,1.67556 -2.60948,2.60948 -1.67556,0.93392 -3.79061,0.93392 -1.56569,0 -2.88416,-0.6043 -1.29101,-0.6043 -2.19746,-1.75796 v 7.52628 h -2.63695 v -19.88698 h 2.52708 v 2.30733 q 0.87898,-1.2086 2.22492,-1.8129 1.34594,-0.63177 2.96657,-0.63177 z m -0.21975,12.55297 q 1.40088,0 2.49961,-0.63177 1.1262,-0.65923 1.75796,-1.8129 0.65924,-1.18113 0.65924,-2.69188 0,-1.51075 -0.65924,-2.66442 -0.63176,-1.18113 -1.75796,-1.8129 -1.09873,-0.63177 -2.49961,-0.63177 -1.37341,0 -2.4996,0.65924 -1.09873,0.63177 -1.75797,1.78543 -0.63177,1.15367 -0.63177,2.66442 0,1.51075 0.63177,2.69188 0.63177,1.15367 1.75797,1.8129 1.12619,0.63177 2.4996,0.63177 z m 17.46975,2.30733 q -2.16998,0 -3.90048,-0.96139 -1.7305,-0.96138 -2.71935,-2.63694 -0.96139,-1.70303 -0.96139,-3.84555 0,-2.14252 0.96139,-3.81808 0.98885,-1.70303 2.71935,-2.63695 1.7305,-0.96139 3.90048,-0.96139 2.16999,0 3.87302,0.96139 1.7305,0.93392 2.69188,2.63695 0.98886,1.67556 0.98886,3.81808 0,2.14252 -0.98886,3.84555 -0.96138,1.67556 -2.69188,2.63694 -1.70303,0.96139 -3.87302,0.96139 z m 0,-2.30733 q 1.40088,0 2.49961,-0.63177 1.1262,-0.65923 1.75796,-1.8129 0.63177,-1.18113 0.63177,-2.69188 0,-1.51075 -0.63177,-2.66442 -0.63176,-1.18113 -1.75796,-1.8129 -1.09873,-0.63177 -2.49961,-0.63177 -1.40088,0 -2.52707,0.63177 -1.09873,0.63177 -1.75797,1.8129 -0.63176,1.15367 -0.63176,2.66442 0,1.51075 0.63176,2.69188 0.65924,1.15367 1.75797,1.8129 1.12619,0.63177 2.52707,0.63177 z m 1.6481,-18.10154 h 3.35112 l -4.61466,3.57086 h -2.47214 z m 13.7341,20.40887 q -1.78543,0 -3.43352,-0.46696 -1.64809,-0.49443 -2.58201,-1.23607 l 1.09872,-2.08758 q 0.96139,0.6867 2.3348,1.09873 1.37341,0.41202 2.77429,0.41202 3.46099,0 3.46099,-1.97771 0,-0.65924 -0.46696,-1.04379 -0.46696,-0.38456 -1.18113,-0.54937 -0.6867,-0.19227 -1.97771,-0.41202 -1.75796,-0.27468 -2.88416,-0.63177 -1.09873,-0.35708 -1.89531,-1.2086 -0.79657,-0.85151 -0.79657,-2.38973 0,-1.97771 1.64809,-3.15885 1.64809,-1.2086 4.42238,-1.2086 1.45581,0 2.91163,0.35709 1.45581,0.35709 2.38973,0.96139 l -1.1262,2.08758 q -1.78543,-1.15366 -4.20263,-1.15366 -1.67556,0 -2.55454,0.54936 -0.87899,0.54936 -0.87899,1.45582 0,0.71417 0.49443,1.12619 0.49443,0.41202 1.2086,0.6043 0.74164,0.19228 2.06012,0.43949 1.75796,0.30215 2.82922,0.65924 1.09873,0.32962 1.86784,1.15366 0.76911,0.82405 0.76911,2.30733 0,1.97771 -1.70303,3.15885 -1.67556,1.15366 -4.58719,1.15366 z m 9.58639,-14.72296 h 2.63695 v 14.55815 H 556.192 Z m 1.31848,-2.80175 q -0.76911,0 -1.29101,-0.49443 -0.49443,-0.49443 -0.49443,-1.2086 0,-0.71417 0.49443,-1.2086 0.5219,-0.5219 1.29101,-0.5219 0.76911,0 1.26354,0.49443 0.52189,0.46696 0.52189,1.18113 0,0.74165 -0.52189,1.26354 -0.49443,0.49443 -1.26354,0.49443 z m 12.58041,17.52471 q -2.16999,0 -3.90048,-0.96139 -1.7305,-0.96138 -2.71936,-2.63694 -0.96138,-1.70303 -0.96138,-3.84555 0,-2.14252 0.96138,-3.81808 0.98886,-1.70303 2.71936,-2.63695 1.73049,-0.96139 3.90048,-0.96139 2.16999,0 3.87302,0.96139 1.73049,0.93392 2.69188,2.63695 0.98886,1.67556 0.98886,3.81808 0,2.14252 -0.98886,3.84555 -0.96139,1.67556 -2.69188,2.63694 -1.70303,0.96139 -3.87302,0.96139 z m 0,-2.30733 q 1.40088,0 2.49961,-0.63177 1.12619,-0.65923 1.75796,-1.8129 0.63177,-1.18113 0.63177,-2.69188 0,-1.51075 -0.63177,-2.66442 -0.63177,-1.18113 -1.75796,-1.8129 -1.09873,-0.63177 -2.49961,-0.63177 -1.40088,0 -2.52707,0.63177 -1.09873,0.63177 -1.75797,1.8129 -0.63177,1.15367 -0.63177,2.66442 0,1.51075 0.63177,2.69188 0.65924,1.15367 1.75797,1.8129 1.12619,0.63177 2.52707,0.63177 z m 18.98051,-17.08522 h 2.74682 v 19.22774 h -2.74682 z m 15.90407,4.53225 q 2.77429,0 4.39491,1.62063 1.64809,1.59315 1.64809,4.69706 v 8.3778 h -2.63694 v -8.07565 q 0,-2.11505 -1.01633,-3.18631 -1.01632,-1.07126 -2.91163,-1.07126 -2.14252,0 -3.37859,1.26354 -1.23606,1.23607 -1.23606,3.57086 v 7.49882 h -2.63695 v -14.55815 h 2.52707 v 2.19746 q 0.79658,-1.1262 2.14252,-1.7305 1.37341,-0.6043 3.10391,-0.6043 z m 19.11786,13.84398 q -0.57683,0.49442 -1.42834,0.76911 -0.85152,0.24721 -1.75797,0.24721 -2.19745,0 -3.40605,-1.18113 -1.20861,-1.18113 -1.20861,-3.37859 v -7.99325 h -2.47213 v -2.16999 h 2.47213 v -3.18631 h 2.63695 v 3.18631 h 4.17517 v 2.16999 h -4.17517 v 7.88338 q 0,1.18113 0.57683,1.8129 0.6043,0.63177 1.70303,0.63177 1.2086,0 2.06012,-0.68671 z m 15.84916,-6.34516 q 0,0.30215 -0.0549,0.79658 h -11.81132 q 0.24721,1.92277 1.67556,3.10391 1.45581,1.15366 3.59833,1.15366 2.60948,0 4.20263,-1.75796 l 1.45582,1.70303 q -0.98886,1.15366 -2.47214,1.75796 -1.45581,0.6043 -3.26871,0.6043 -2.30733,0 -4.09277,-0.93392 -1.78543,-0.96139 -2.77428,-2.66441 -0.96139,-1.70303 -0.96139,-3.84555 0,-2.11505 0.93392,-3.81808 0.96138,-1.70303 2.60948,-2.63695 1.67556,-0.96139 3.76314,-0.96139 2.08758,0 3.70821,0.96139 1.64809,0.93392 2.55454,2.63695 0.93392,1.70303 0.93392,3.90048 z m -7.19667,-5.27389 q -1.89531,0 -3.18631,1.15366 -1.26354,1.15367 -1.48328,3.0215 h 9.33918 q -0.21974,-1.84036 -1.51075,-2.99403 -1.26353,-1.18113 -3.15884,-1.18113 z m 13.37699,0.35708 q 0.68671,-1.26353 2.03265,-1.92277 1.34594,-0.65924 3.26871,-0.65924 v 2.55455 q -0.21974,-0.0275 -0.6043,-0.0275 -2.14252,0 -3.37859,1.291 -1.2086,1.26354 -1.2086,3.62581 v 7.2516 h -2.63694 v -14.55815 h 2.52707 z m 22.1394,-8.26792 v 20.3814 h -2.52707 v -2.30733 q -0.87899,1.2086 -2.22493,1.84037 -1.34594,0.63177 -2.96656,0.63177 -2.11506,0 -3.79062,-0.93392 -1.67556,-0.93392 -2.63694,-2.60948 -0.93392,-1.70303 -0.93392,-3.90048 0,-2.19746 0.93392,-3.87302 0.96138,-1.67556 2.63694,-2.60948 1.67556,-0.93392 3.79062,-0.93392 1.56568,0 2.88416,0.6043 1.31847,0.57684 2.19745,1.7305 v -8.02071 z m -7.49882,18.23888 q 1.37341,0 2.49961,-0.63177 1.12619,-0.65923 1.75796,-1.8129 0.63177,-1.18113 0.63177,-2.69188 0,-1.51075 -0.63177,-2.66442 -0.63177,-1.18113 -1.75796,-1.8129 -1.1262,-0.63177 -2.49961,-0.63177 -1.40088,0 -2.52707,0.63177 -1.09873,0.63177 -1.75797,1.8129 -0.63177,1.15367 -0.63177,2.66442 0,1.51075 0.63177,2.69188 0.65924,1.15367 1.75797,1.8129 1.12619,0.63177 2.52707,0.63177 z m 12.49801,-12.41563 h 2.63695 v 14.55815 h -2.63695 z m 1.31847,-2.80175 q -0.7691,0 -1.291,-0.49443 -0.49443,-0.49443 -0.49443,-1.2086 0,-0.71417 0.49443,-1.2086 0.5219,-0.5219 1.291,-0.5219 0.76911,0 1.26354,0.49443 0.5219,0.46696 0.5219,1.18113 0,0.74165 -0.5219,1.26354 -0.49443,0.49443 -1.26354,0.49443 z m 10.5203,17.52471 q -1.78543,0 -3.43352,-0.46696 -1.64809,-0.49443 -2.58201,-1.23607 l 1.09872,-2.08758 q 0.96139,0.6867 2.3348,1.09873 1.37341,0.41202 2.77429,0.41202 3.46099,0 3.46099,-1.97771 0,-0.65924 -0.46696,-1.04379 -0.46696,-0.38456 -1.18113,-0.54937 -0.6867,-0.19227 -1.97771,-0.41202 -1.75796,-0.27468 -2.88416,-0.63177 -1.09873,-0.35708 -1.89531,-1.2086 -0.79657,-0.85151 -0.79657,-2.38973 0,-1.97771 1.64809,-3.15885 1.64809,-1.2086 4.42238,-1.2086 1.45581,0 2.91163,0.35709 1.45581,0.35709 2.38973,0.96139 l -1.1262,2.08758 q -1.78543,-1.15366 -4.20263,-1.15366 -1.67556,0 -2.55454,0.54936 -0.87898,0.54936 -0.87898,1.45582 0,0.71417 0.49442,1.12619 0.49443,0.41202 1.2086,0.6043 0.74164,0.19228 2.06012,0.43949 1.75796,0.30215 2.82922,0.65924 1.09873,0.32962 1.86784,1.15366 0.76911,0.82405 0.76911,2.30733 0,1.97771 -1.70303,3.15885 -1.67556,1.15366 -4.58719,1.15366 z m 15.93154,0 q -2.22492,0 -3.98289,-0.96139 -1.73049,-0.96138 -2.71935,-2.63694 -0.98885,-1.70303 -0.98885,-3.84555 0,-2.14252 0.98885,-3.81808 0.98886,-1.70303 2.71935,-2.63695 1.75797,-0.96139 3.98289,-0.96139 1.97771,0 3.51593,0.79658 1.56569,0.79658 2.4172,2.30733 l -2.00518,1.29101 q -0.6867,-1.0438 -1.70302,-1.56569 -1.01633,-0.5219 -2.2524,-0.5219 -1.42834,0 -2.58201,0.63177 -1.12619,0.63177 -1.78543,1.8129 -0.63177,1.15367 -0.63177,2.66442 0,1.53822 0.63177,2.71935 0.65924,1.15366 1.78543,1.78543 1.15367,0.63177 2.58201,0.63177 1.23607,0 2.2524,-0.52189 1.01632,-0.5219 1.70302,-1.56569 l 2.00518,1.26354 q -0.85151,1.51075 -2.4172,2.33479 -1.53822,0.79658 -3.51593,0.79658 z m 9.33917,-14.72296 h 2.63695 v 14.55815 h -2.63695 z m 1.31848,-2.80175 q -0.76911,0 -1.29101,-0.49443 -0.49443,-0.49443 -0.49443,-1.2086 0,-0.71417 0.49443,-1.2086 0.5219,-0.5219 1.29101,-0.5219 0.76911,0 1.26353,0.49443 0.5219,0.46696 0.5219,1.18113 0,0.74165 -0.5219,1.26354 -0.49442,0.49443 -1.26353,0.49443 z m 14.06369,2.66441 q 2.11505,0 3.79061,0.93392 1.67556,0.93392 2.60948,2.60948 0.96139,1.67556 0.96139,3.87302 0,2.19745 -0.96139,3.90048 -0.93392,1.67556 -2.60948,2.60948 -1.67556,0.93392 -3.79061,0.93392 -1.56569,0 -2.88416,-0.6043 -1.291,-0.6043 -2.19745,-1.75796 v 7.52628 h -2.63695 v -19.88698 h 2.52707 v 2.30733 q 0.87898,-1.2086 2.22493,-1.8129 1.34594,-0.63177 2.96656,-0.63177 z m -0.21974,12.55297 q 1.40087,0 2.4996,-0.63177 1.1262,-0.65923 1.75797,-1.8129 0.65923,-1.18113 0.65923,-2.69188 0,-1.51075 -0.65923,-2.66442 -0.63177,-1.18113 -1.75797,-1.8129 -1.09873,-0.63177 -2.4996,-0.63177 -1.37341,0 -2.49961,0.65924 -1.09873,0.63177 -1.75796,1.78543 -0.63177,1.15367 -0.63177,2.66442 0,1.51075 0.63177,2.69188 0.63176,1.15367 1.75796,1.8129 1.1262,0.63177 2.49961,0.63177 z m 11.23448,-18.23888 h 2.63695 v 20.3814 h -2.63695 z m 7.66361,5.82325 h 2.63695 v 14.55815 h -2.63695 z m 1.31847,-2.80175 q -0.76911,0 -1.291,-0.49443 -0.49443,-0.49443 -0.49443,-1.2086 0,-0.71417 0.49443,-1.2086 0.52189,-0.5219 1.291,-0.5219 0.76911,0 1.26354,0.49443 0.5219,0.46696 0.5219,1.18113 0,0.74165 -0.5219,1.26354 -0.49443,0.49443 -1.26354,0.49443 z m 14.11864,2.66441 q 2.77428,0 4.39491,1.62063 1.64809,1.59315 1.64809,4.69706 v 8.3778 h -2.63695 v -8.07565 q 0,-2.11505 -1.01632,-3.18631 -1.01632,-1.07126 -2.91163,-1.07126 -2.14252,0 -3.37859,1.26354 -1.23607,1.23607 -1.23607,3.57086 v 7.49882 H 752.095 v -14.55815 h 2.52708 v 2.19746 q 0.79658,-1.1262 2.14252,-1.7305 1.37341,-0.6043 3.10391,-0.6043 z m 16.2337,0 q 3.0215,0 4.61466,1.48329 1.62062,1.48328 1.62062,4.42238 v 8.78982 h -2.49961 v -1.92277 q -0.65923,1.01632 -1.8953,1.56568 -1.2086,0.5219 -2.88416,0.5219 -2.44467,0 -3.92796,-1.18113 -1.45581,-1.18113 -1.45581,-3.10391 0,-1.92277 1.40088,-3.07644 1.40088,-1.18113 4.44985,-1.18113 h 4.17516 v -0.5219 q 0,-1.70302 -0.98885,-2.60947 -0.98886,-0.90646 -2.91163,-0.90646 -1.29101,0 -2.52708,0.4395 -1.23607,0.41202 -2.08758,1.12619 l -1.09873,-1.97771 q 1.1262,-0.90645 2.69189,-1.37341 1.56568,-0.49443 3.32365,-0.49443 z m -0.6043,12.82765 q 1.51075,0 2.60948,-0.65923 1.09872,-0.68671 1.59315,-1.92278 v -2.03264 h -4.06529 q -3.35112,0 -3.35112,2.25239 0,1.09873 0.85151,1.7305 0.85152,0.63176 2.36227,0.63176 z m 14.25597,-10.24564 q 0.68671,-1.26353 2.03265,-1.92277 1.34594,-0.65924 3.26872,-0.65924 v 2.55455 q -0.21975,-0.0275 -0.6043,-0.0275 -2.14252,0 -3.37859,1.291 -1.2086,1.26354 -1.2086,3.62581 v 7.2516 h -2.63695 v -14.55815 h 2.52707 z m 29.44589,2.14252 q 1.67556,0.46696 2.63694,1.70303 0.96139,1.2086 0.96139,3.07644 0,2.49961 -1.89531,3.84555 -1.86783,1.34594 -5.46617,1.34594 h -9.17438 v -19.22774 h 8.62502 q 3.29618,0 5.08162,1.31847 1.8129,1.31848 1.8129,3.65328 0,1.51075 -0.71418,2.60947 -0.6867,1.09873 -1.86783,1.67556 z m -10.19071,-7.03185 v 6.15287 h 5.63098 q 2.11506,0 3.24125,-0.76911 1.15367,-0.79658 1.15367,-2.30733 0,-1.51075 -1.15367,-2.27986 -1.12619,-0.79657 -3.24125,-0.79657 z m 6.31769,14.77789 q 2.3348,0 3.51593,-0.76911 1.18113,-0.76911 1.18113,-2.4172 0,-3.21378 -4.69706,-3.21378 h -6.31769 v 6.40009 z m 13.87144,-9.88856 q 0.6867,-1.26353 2.03265,-1.92277 1.34594,-0.65924 3.26871,-0.65924 v 2.55455 q -0.21974,-0.0275 -0.6043,-0.0275 -2.14252,0 -3.37859,1.291 -1.2086,1.26354 -1.2086,3.62581 v 7.2516 h -2.63694 v -14.55815 h 2.52707 z m 13.81652,-2.58201 q 3.02151,0 4.61466,1.48329 1.62063,1.48328 1.62063,4.42238 v 8.78982 h -2.49961 v -1.92277 q -0.65924,1.01632 -1.89531,1.56568 -1.2086,0.5219 -2.88416,0.5219 -2.44467,0 -3.92795,-1.18113 -1.45581,-1.18113 -1.45581,-3.10391 0,-1.92277 1.40087,-3.07644 1.40088,-1.18113 4.44985,-1.18113 h 4.17517 v -0.5219 q 0,-1.70302 -0.98886,-2.60947 -0.98885,-0.90646 -2.91163,-0.90646 -1.291,0 -2.52707,0.4395 -1.23607,0.41202 -2.08758,1.12619 l -1.09873,-1.97771 q 1.12619,-0.90645 2.69188,-1.37341 1.56569,-0.49443 3.32365,-0.49443 z m -0.6043,12.82765 q 1.51075,0 2.60948,-0.65923 1.09873,-0.68671 1.59316,-1.92278 v -2.03264 h -4.0653 q -3.35112,0 -3.35112,2.25239 0,1.09873 0.85152,1.7305 0.85151,0.63176 2.36226,0.63176 z m 15.90407,2.03265 q -1.78543,0 -3.43352,-0.46696 -1.64809,-0.49443 -2.58201,-1.23607 l 1.09872,-2.08758 q 0.96139,0.6867 2.3348,1.09873 1.37341,0.41202 2.77429,0.41202 3.46099,0 3.46099,-1.97771 0,-0.65924 -0.46696,-1.04379 -0.46696,-0.38456 -1.18113,-0.54937 -0.6867,-0.19227 -1.97771,-0.41202 -1.75796,-0.27468 -2.88416,-0.63177 -1.09873,-0.35708 -1.89531,-1.2086 -0.79657,-0.85151 -0.79657,-2.38973 0,-1.97771 1.64809,-3.15885 1.64809,-1.2086 4.42238,-1.2086 1.45581,0 2.91163,0.35709 1.45581,0.35709 2.38973,0.96139 l -1.1262,2.08758 q -1.78543,-1.15366 -4.20263,-1.15366 -1.67556,0 -2.55454,0.54936 -0.87899,0.54936 -0.87899,1.45582 0,0.71417 0.49443,1.12619 0.49443,0.41202 1.2086,0.6043 0.74164,0.19228 2.06012,0.43949 1.75796,0.30215 2.82922,0.65924 1.09873,0.32962 1.86784,1.15366 0.76911,0.82405 0.76911,2.30733 0,1.97771 -1.70303,3.15885 -1.67556,1.15366 -4.58719,1.15366 z m 9.5864,-14.72296 h 2.63695 v 14.55815 h -2.63695 z m 1.31848,-2.80175 q -0.76911,0 -1.29101,-0.49443 -0.49443,-0.49443 -0.49443,-1.2086 0,-0.71417 0.49443,-1.2086 0.5219,-0.5219 1.29101,-0.5219 0.76911,0 1.26353,0.49443 0.5219,0.46696 0.5219,1.18113 0,0.74165 -0.5219,1.26354 -0.49442,0.49443 -1.26353,0.49443 z m 6.34513,-3.0215 h 2.63694 v 20.3814 h -2.63694 z m 20.82087,13.18473 q 0,0.30215 -0.0549,0.79658 H 884.5191 q 0.24721,1.92277 1.67556,3.10391 1.45581,1.15366 3.59833,1.15366 2.60948,0 4.20264,-1.75796 l 1.45581,1.70303 q -0.98885,1.15366 -2.47214,1.75796 -1.45581,0.6043 -3.26871,0.6043 -2.30733,0 -4.09277,-0.93392 -1.78543,-0.96139 -2.77428,-2.66441 -0.96139,-1.70303 -0.96139,-3.84555 0,-2.11505 0.93392,-3.81808 0.96139,-1.70303 2.60948,-2.63695 1.67556,-0.96139 3.76314,-0.96139 2.08758,0 3.70821,0.96139 1.64809,0.93392 2.55454,2.63695 0.93392,1.70303 0.93392,3.90048 z m -7.19667,-5.27389 q -1.8953,0 -3.18631,1.15366 -1.26354,1.15367 -1.48328,3.0215 h 9.33919 q -0.21975,-1.84036 -1.51076,-2.99403 -1.26353,-1.18113 -3.15884,-1.18113 z m 10.84992,-2.08759 h 2.63694 v 14.55815 h -2.63694 z m 1.31847,-2.80175 q -0.76911,0 -1.291,-0.49443 -0.49443,-0.49443 -0.49443,-1.2086 0,-0.71417 0.49443,-1.2086 0.52189,-0.5219 1.291,-0.5219 0.76911,0 1.26354,0.49443 0.52189,0.46696 0.52189,1.18113 0,0.74165 -0.52189,1.26354 -0.49443,0.49443 -1.26354,0.49443 z m 8.87221,5.24642 q 0.6867,-1.26353 2.03264,-1.92277 1.34595,-0.65924 3.26872,-0.65924 v 2.55455 q -0.21975,-0.0275 -0.6043,-0.0275 -2.14252,0 -3.37859,1.291 -1.2086,1.26354 -1.2086,3.62581 v 7.2516 h -2.63695 v -14.55815 h 2.52708 z m 14.64058,12.27829 q -2.16999,0 -3.90049,-0.96139 -1.73049,-0.96138 -2.71935,-2.63694 -0.96139,-1.70303 -0.96139,-3.84555 0,-2.14252 0.96139,-3.81808 0.98886,-1.70303 2.71935,-2.63695 1.7305,-0.96139 3.90049,-0.96139 2.16998,0 3.87301,0.96139 1.7305,0.93392 2.69189,2.63695 0.98885,1.67556 0.98885,3.81808 0,2.14252 -0.98885,3.84555 -0.96139,1.67556 -2.69189,2.63694 -1.70303,0.96139 -3.87301,0.96139 z m 0,-2.30733 q 1.40088,0 2.4996,-0.63177 1.1262,-0.65923 1.75797,-1.8129 0.63177,-1.18113 0.63177,-2.69188 0,-1.51075 -0.63177,-2.66442 -0.63177,-1.18113 -1.75797,-1.8129 -1.09872,-0.63177 -2.4996,-0.63177 -1.40088,0 -2.52708,0.63177 -1.09873,0.63177 -1.75796,1.8129 -0.63177,1.15367 -0.63177,2.66442 0,1.51075 0.63177,2.69188 0.65923,1.15367 1.75796,1.8129 1.1262,0.63177 2.52708,0.63177 z"
         id="path6" />
      <path
         style="font-weight:500;font-family:Montserrat;-inkscape-font-specification:'Montserrat Medium';letter-spacing:0.131263px;word-spacing:0.166266px"
         d="m 466.23371,439.55964 v 20.38141 h -2.52708 v -2.30733 q -0.87898,1.2086 -2.22492,1.84037 -1.34594,0.63177 -2.96657,0.63177 -2.11505,0 -3.79061,-0.93392 -1.67556,-0.93392 -2.63695,-2.60948 -0.93392,-1.70303 -0.93392,-3.90048 0,-2.19746 0.93392,-3.87302 0.96139,-1.67556 2.63695,-2.60948 1.67556,-0.93392 3.79061,-0.93392 1.56569,0 2.88416,0.6043 1.31848,0.57683 2.19746,1.7305 v -8.02072 z m -7.49882,18.23889 q 1.37341,0 2.4996,-0.63177 1.1262,-0.65924 1.75797,-1.8129 0.63177,-1.18113 0.63177,-2.69188 0,-1.51075 -0.63177,-2.66442 -0.63177,-1.18113 -1.75797,-1.8129 -1.12619,-0.63177 -2.4996,-0.63177 -1.40088,0 -2.52708,0.63177 -1.09872,0.63177 -1.75796,1.8129 -0.63177,1.15367 -0.63177,2.66442 0,1.51075 0.63177,2.69188 0.65924,1.15366 1.75796,1.8129 1.1262,0.63177 2.52708,0.63177 z m 25.78654,-5.05415 q 0,0.30215 -0.0549,0.79658 h -11.81132 q 0.24721,1.92277 1.67556,3.10391 1.45581,1.15366 3.59833,1.15366 2.60948,0 4.20264,-1.75796 l 1.45581,1.70302 q -0.98885,1.15367 -2.47214,1.75797 -1.45581,0.6043 -3.26871,0.6043 -2.30733,0 -4.09276,-0.93392 -1.78544,-0.96139 -2.77429,-2.66442 -0.96139,-1.70302 -0.96139,-3.84554 0,-2.11506 0.93392,-3.81808 0.96139,-1.70303 2.60948,-2.63695 1.67556,-0.96139 3.76314,-0.96139 2.08758,0 3.70821,0.96139 1.64809,0.93392 2.55454,2.63695 0.93392,1.70302 0.93392,3.90048 z m -7.19667,-5.27389 q -1.8953,0 -3.18631,1.15366 -1.26354,1.15367 -1.48328,3.0215 h 9.33919 q -0.21975,-1.84037 -1.51076,-2.99403 -1.26353,-1.18113 -3.15884,-1.18113 z m 36.87906,12.47056 -0.0275,-14.00878 -6.94946,11.67398 h -1.26353 l -6.94946,-11.59158 v 13.92638 h -2.63694 v -19.22774 h 2.25239 l 8.02071,13.51435 7.91084,-13.51435 h 2.2524 l 0.0275,19.22774 z m 14.38725,0.16481 q -2.16998,0 -3.90048,-0.96139 -1.7305,-0.96139 -2.71935,-2.63695 -0.96139,-1.70302 -0.96139,-3.84554 0,-2.14252 0.96139,-3.81808 0.98885,-1.70303 2.71935,-2.63695 1.7305,-0.96139 3.90048,-0.96139 2.16999,0 3.87302,0.96139 1.7305,0.93392 2.69188,2.63695 0.98886,1.67556 0.98886,3.81808 0,2.14252 -0.98886,3.84554 -0.96138,1.67556 -2.69188,2.63695 -1.70303,0.96139 -3.87302,0.96139 z m 0,-2.30733 q 1.40088,0 2.49961,-0.63177 1.1262,-0.65924 1.75796,-1.8129 0.63177,-1.18113 0.63177,-2.69188 0,-1.51075 -0.63177,-2.66442 -0.63176,-1.18113 -1.75796,-1.8129 -1.09873,-0.63177 -2.49961,-0.63177 -1.40087,0 -2.52707,0.63177 -1.09873,0.63177 -1.75797,1.8129 -0.63176,1.15367 -0.63176,2.66442 0,1.51075 0.63176,2.69188 0.65924,1.15366 1.75797,1.8129 1.1262,0.63177 2.52707,0.63177 z m 25.0724,-18.23889 v 20.38141 h -2.52707 v -2.30733 q -0.87899,1.2086 -2.22493,1.84037 -1.34594,0.63177 -2.96656,0.63177 -2.11506,0 -3.79062,-0.93392 -1.67556,-0.93392 -2.63694,-2.60948 -0.93392,-1.70303 -0.93392,-3.90048 0,-2.19746 0.93392,-3.87302 0.96138,-1.67556 2.63694,-2.60948 1.67556,-0.93392 3.79062,-0.93392 1.56568,0 2.88416,0.6043 1.31847,0.57683 2.19745,1.7305 v -8.02072 z m -7.49882,18.23889 q 1.37341,0 2.49961,-0.63177 1.12619,-0.65924 1.75796,-1.8129 0.63177,-1.18113 0.63177,-2.69188 0,-1.51075 -0.63177,-2.66442 -0.63177,-1.18113 -1.75796,-1.8129 -1.1262,-0.63177 -2.49961,-0.63177 -1.40088,0 -2.52707,0.63177 -1.09873,0.63177 -1.75797,1.8129 -0.63177,1.15367 -0.63177,2.66442 0,1.51075 0.63177,2.69188 0.65924,1.15366 1.75797,1.8129 1.12619,0.63177 2.52707,0.63177 z m 25.78654,-5.05415 q 0,0.30215 -0.0549,0.79658 h -11.81133 q 0.24721,1.92277 1.67556,3.10391 1.45582,1.15366 3.59834,1.15366 2.60947,0 4.20263,-1.75796 l 1.45581,1.70302 q -0.98885,1.15367 -2.47213,1.75797 -1.45582,0.6043 -3.26872,0.6043 -2.30733,0 -4.09276,-0.93392 -1.78543,-0.96139 -2.77429,-2.66442 -0.96139,-1.70302 -0.96139,-3.84554 0,-2.11506 0.93392,-3.81808 0.96139,-1.70303 2.60948,-2.63695 1.67556,-0.96139 3.76314,-0.96139 2.08759,0 3.70821,0.96139 1.64809,0.93392 2.55454,2.63695 0.93392,1.70302 0.93392,3.90048 z m -7.19667,-5.27389 q -1.8953,0 -3.18631,1.15366 -1.26353,1.15367 -1.48328,3.0215 h 9.33919 q -0.21975,-1.84037 -1.51075,-2.99403 -1.26354,-1.18113 -3.15885,-1.18113 z m 10.98119,-7.91085 h 2.63695 v 20.38141 h -2.63695 z m 14.03015,20.54622 q -2.16998,0 -3.90048,-0.96139 -1.7305,-0.96139 -2.71935,-2.63695 -0.96139,-1.70302 -0.96139,-3.84554 0,-2.14252 0.96139,-3.81808 0.98885,-1.70303 2.71935,-2.63695 1.7305,-0.96139 3.90048,-0.96139 2.16999,0 3.87302,0.96139 1.7305,0.93392 2.69188,2.63695 0.98886,1.67556 0.98886,3.81808 0,2.14252 -0.98886,3.84554 -0.96138,1.67556 -2.69188,2.63695 -1.70303,0.96139 -3.87302,0.96139 z m 0,-2.30733 q 1.40088,0 2.49961,-0.63177 1.1262,-0.65924 1.75796,-1.8129 0.63177,-1.18113 0.63177,-2.69188 0,-1.51075 -0.63177,-2.66442 -0.63176,-1.18113 -1.75796,-1.8129 -1.09873,-0.63177 -2.49961,-0.63177 -1.40088,0 -2.52707,0.63177 -1.09873,0.63177 -1.75797,1.8129 -0.63176,1.15367 -0.63176,2.66442 0,1.51075 0.63176,2.69188 0.65924,1.15366 1.75797,1.8129 1.12619,0.63177 2.52707,0.63177 z m 15.51347,2.30733 q -1.78544,0 -3.43353,-0.46696 -1.64809,-0.49443 -2.58201,-1.23607 l 1.09873,-2.08758 q 0.96139,0.6867 2.3348,1.09873 1.37341,0.41202 2.77428,0.41202 3.461,0 3.461,-1.97771 0,-0.65924 -0.46696,-1.04379 -0.46696,-0.38456 -1.18114,-0.54937 -0.6867,-0.19228 -1.97771,-0.41202 -1.75796,-0.27468 -2.88416,-0.63177 -1.09872,-0.35709 -1.8953,-1.2086 -0.79658,-0.85151 -0.79658,-2.38973 0,-1.97771 1.64809,-3.15885 1.64809,-1.2086 4.42238,-1.2086 1.45582,0 2.91163,0.35709 1.45582,0.35709 2.38973,0.96139 l -1.12619,2.08758 q -1.78543,-1.15367 -4.20264,-1.15367 -1.67556,0 -2.55454,0.54937 -0.87898,0.54936 -0.87898,1.45581 0,0.71418 0.49443,1.1262 0.49442,0.41202 1.2086,0.6043 0.74164,0.19228 2.06011,0.43949 1.75797,0.30215 2.82923,0.65924 1.09872,0.32962 1.86783,1.15366 0.76911,0.82405 0.76911,2.30733 0,1.97771 -1.70302,3.15884 -1.67556,1.15367 -4.58719,1.15367 z m 30.72618,-10.13577 q 1.67556,0.46696 2.63694,1.70303 0.96139,1.2086 0.96139,3.07644 0,2.49961 -1.89531,3.84555 -1.86783,1.34594 -5.46617,1.34594 h -9.17438 v -19.22774 h 8.62502 q 3.29618,0 5.08162,1.31847 1.8129,1.31848 1.8129,3.65327 0,1.51075 -0.71418,2.60948 -0.6867,1.09873 -1.86783,1.67556 z m -10.19071,-7.03186 v 6.15288 h 5.63098 q 2.11506,0 3.24125,-0.76911 1.15367,-0.79658 1.15367,-2.30733 0,-1.51075 -1.15367,-2.27986 -1.12619,-0.79658 -3.24125,-0.79658 z m 6.31769,14.7779 q 2.3348,0 3.51593,-0.76911 1.18113,-0.76911 1.18113,-2.41721 0,-3.21378 -4.69706,-3.21378 h -6.31769 v 6.4001 z m 16.777,-12.47057 q 3.0215,0 4.61466,1.48329 1.62062,1.48328 1.62062,4.42238 v 8.78982 h -2.49961 v -1.92277 q -0.65923,1.01632 -1.8953,1.56568 -1.2086,0.5219 -2.88416,0.5219 -2.44467,0 -3.92795,-1.18113 -1.45582,-1.18114 -1.45582,-3.10391 0,-1.92277 1.40088,-3.07644 1.40088,-1.18113 4.44985,-1.18113 h 4.17516 v -0.5219 q 0,-1.70303 -0.98885,-2.60948 -0.98886,-0.90645 -2.91163,-0.90645 -1.29101,0 -2.52708,0.43949 -1.23606,0.41203 -2.08758,1.1262 l -1.09873,-1.97771 q 1.1262,-0.90645 2.69189,-1.37341 1.56568,-0.49443 3.32365,-0.49443 z m -0.6043,12.82765 q 1.51075,0 2.60948,-0.65923 1.09873,-0.68671 1.59315,-1.92278 v -2.03265 h -4.06529 q -3.35112,0 -3.35112,2.2524 0,1.09872 0.85151,1.73049 0.85152,0.63177 2.36227,0.63177 z m 16.03534,2.03265 q -1.78543,0 -3.43353,-0.46696 -1.64809,-0.49443 -2.58201,-1.23607 l 1.09873,-2.08758 q 0.96139,0.6867 2.3348,1.09873 1.37341,0.41202 2.77429,0.41202 3.46099,0 3.46099,-1.97771 0,-0.65924 -0.46696,-1.04379 -0.46696,-0.38456 -1.18113,-0.54937 -0.68671,-0.19228 -1.97771,-0.41202 -1.75797,-0.27468 -2.88416,-0.63177 -1.09873,-0.35709 -1.89531,-1.2086 -0.79658,-0.85151 -0.79658,-2.38973 0,-1.97771 1.64809,-3.15885 1.6481,-1.2086 4.42238,-1.2086 1.45582,0 2.91163,0.35709 1.45582,0.35709 2.38974,0.96139 l -1.1262,2.08758 q -1.78543,-1.15367 -4.20263,-1.15367 -1.67556,0 -2.55455,0.54937 -0.87898,0.54936 -0.87898,1.45581 0,0.71418 0.49443,1.1262 0.49443,0.41202 1.2086,0.6043 0.74164,0.19228 2.06012,0.43949 1.75796,0.30215 2.82922,0.65924 1.09873,0.32962 1.86784,1.15366 0.76911,0.82405 0.76911,2.30733 0,1.97771 -1.70303,3.15884 -1.67556,1.15367 -4.58719,1.15367 z m 22.87491,-7.36148 q 0,0.30215 -0.0549,0.79658 h -11.81133 q 0.24722,1.92277 1.67557,3.10391 1.45581,1.15366 3.59833,1.15366 2.60948,0 4.20263,-1.75796 l 1.45582,1.70302 q -0.98886,1.15367 -2.47214,1.75797 -1.45581,0.6043 -3.26872,0.6043 -2.30732,0 -4.09276,-0.93392 -1.78543,-0.96139 -2.77429,-2.66442 -0.96138,-1.70302 -0.96138,-3.84554 0,-2.11506 0.93392,-3.81808 0.96138,-1.70303 2.60948,-2.63695 1.67556,-0.96139 3.76314,-0.96139 2.08758,0 3.70821,0.96139 1.64809,0.93392 2.55454,2.63695 0.93392,1.70302 0.93392,3.90048 z m -7.19667,-5.27389 q -1.89531,0 -3.18631,1.15366 -1.26354,1.15367 -1.48329,3.0215 h 9.33919 q -0.21974,-1.84037 -1.51075,-2.99403 -1.26354,-1.18113 -3.15884,-1.18113 z m 15.87055,-2.22493 q 3.0215,0 4.61466,1.48329 1.62062,1.48328 1.62062,4.42238 v 8.78982 h -2.49961 v -1.92277 q -0.65923,1.01632 -1.8953,1.56568 -1.2086,0.5219 -2.88416,0.5219 -2.44467,0 -3.92796,-1.18113 -1.45581,-1.18114 -1.45581,-3.10391 0,-1.92277 1.40088,-3.07644 1.40087,-1.18113 4.44985,-1.18113 h 4.17516 v -0.5219 q 0,-1.70303 -0.98885,-2.60948 -0.98886,-0.90645 -2.91163,-0.90645 -1.29101,0 -2.52708,0.43949 -1.23607,0.41203 -2.08758,1.1262 l -1.09873,-1.97771 q 1.1262,-0.90645 2.69189,-1.37341 1.56568,-0.49443 3.32365,-0.49443 z m -0.6043,12.82765 q 1.51075,0 2.60948,-0.65923 1.09872,-0.68671 1.59315,-1.92278 v -2.03265 h -4.06529 q -3.35112,0 -3.35112,2.2524 0,1.09872 0.85151,1.73049 0.85152,0.63177 2.36227,0.63177 z m 25.67668,-18.51357 v 20.38141 h -2.52707 v -2.30733 q -0.87898,1.2086 -2.22493,1.84037 -1.34594,0.63177 -2.96656,0.63177 -2.11505,0 -3.79061,-0.93392 -1.67556,-0.93392 -2.63695,-2.60948 -0.93392,-1.70303 -0.93392,-3.90048 0,-2.19746 0.93392,-3.87302 0.96139,-1.67556 2.63695,-2.60948 1.67556,-0.93392 3.79061,-0.93392 1.56569,0 2.88416,0.6043 1.31847,0.57683 2.19746,1.7305 v -8.02072 z m -7.49882,18.23889 q 1.37341,0 2.49961,-0.63177 1.1262,-0.65924 1.75797,-1.8129 0.63176,-1.18113 0.63176,-2.69188 0,-1.51075 -0.63176,-2.66442 -0.63177,-1.18113 -1.75797,-1.8129 -1.1262,-0.63177 -2.49961,-0.63177 -1.40087,0 -2.52707,0.63177 -1.09873,0.63177 -1.75796,1.8129 -0.63177,1.15367 -0.63177,2.66442 0,1.51075 0.63177,2.69188 0.65923,1.15366 1.75796,1.8129 1.1262,0.63177 2.52707,0.63177 z m 18.86457,2.30733 q -2.16999,0 -3.90049,-0.96139 -1.73049,-0.96139 -2.71935,-2.63695 -0.96139,-1.70302 -0.96139,-3.84554 0,-2.14252 0.96139,-3.81808 0.98886,-1.70303 2.71935,-2.63695 1.7305,-0.96139 3.90049,-0.96139 2.16999,0 3.87301,0.96139 1.7305,0.93392 2.69189,2.63695 0.98885,1.67556 0.98885,3.81808 0,2.14252 -0.98885,3.84554 -0.96139,1.67556 -2.69189,2.63695 -1.70302,0.96139 -3.87301,0.96139 z m 0,-2.30733 q 1.40088,0 2.4996,-0.63177 1.1262,-0.65924 1.75797,-1.8129 0.63177,-1.18113 0.63177,-2.69188 0,-1.51075 -0.63177,-2.66442 -0.63177,-1.18113 -1.75797,-1.8129 -1.09872,-0.63177 -2.4996,-0.63177 -1.40088,0 -2.52708,0.63177 -1.09872,0.63177 -1.75796,1.8129 -0.63177,1.15367 -0.63177,2.66442 0,1.51075 0.63177,2.69188 0.65924,1.15366 1.75796,1.8129 1.1262,0.63177 2.52708,0.63177 z m 15.51346,2.30733 q -1.78543,0 -3.43352,-0.46696 -1.6481,-0.49443 -2.58202,-1.23607 l 1.09873,-2.08758 q 0.96139,0.6867 2.3348,1.09873 1.37341,0.41202 2.77429,0.41202 3.46099,0 3.46099,-1.97771 0,-0.65924 -0.46696,-1.04379 -0.46696,-0.38456 -1.18113,-0.54937 -0.68671,-0.19228 -1.97771,-0.41202 -1.75797,-0.27468 -2.88416,-0.63177 -1.09873,-0.35709 -1.89531,-1.2086 -0.79658,-0.85151 -0.79658,-2.38973 0,-1.97771 1.6481,-3.15885 1.64809,-1.2086 4.42238,-1.2086 1.45581,0 2.91163,0.35709 1.45581,0.35709 2.38973,0.96139 l -1.1262,2.08758 q -1.78543,-1.15367 -4.20263,-1.15367 -1.67556,0 -2.55454,0.54937 -0.87899,0.54936 -0.87899,1.45581 0,0.71418 0.49443,1.1262 0.49443,0.41202 1.2086,0.6043 0.74164,0.19228 2.06012,0.43949 1.75796,0.30215 2.82922,0.65924 1.09873,0.32962 1.86784,1.15366 0.76911,0.82405 0.76911,2.30733 0,1.97771 -1.70303,3.15884 -1.67556,1.15367 -4.58719,1.15367 z m 30.56136,-7.36148 q 0,0.30215 -0.0549,0.79658 H 766.536 q 0.24722,1.92277 1.67556,3.10391 1.45582,1.15366 3.59834,1.15366 2.60948,0 4.20263,-1.75796 l 1.45582,1.70302 q -0.98886,1.15367 -2.47214,1.75797 -1.45582,0.6043 -3.26872,0.6043 -2.30733,0 -4.09276,-0.93392 -1.78543,-0.96139 -2.77429,-2.66442 -0.96138,-1.70302 -0.96138,-3.84554 0,-2.11506 0.93392,-3.81808 0.96138,-1.70303 2.60947,-2.63695 1.67556,-0.96139 3.76315,-0.96139 2.08758,0 3.7082,0.96139 1.6481,0.93392 2.55455,2.63695 0.93392,1.70302 0.93392,3.90048 z m -7.19667,-5.27389 q -1.89531,0 -3.18631,1.15366 -1.26354,1.15367 -1.48329,3.0215 h 9.33919 q -0.21974,-1.84037 -1.51075,-2.99403 -1.26354,-1.18113 -3.15884,-1.18113 z m 29.19262,-2.22493 q 2.74682,0 4.33997,1.59316 1.62063,1.59315 1.62063,4.72453 v 8.3778 h -2.63695 v -8.07565 q 0,-2.11505 -0.98885,-3.18631 -0.96139,-1.07126 -2.77429,-1.07126 -2.00518,0 -3.18631,1.26353 -1.18114,1.23607 -1.18114,3.57087 v 7.49882 h -2.63694 v -8.07565 q 0,-2.11505 -0.98886,-3.18631 -0.96139,-1.07126 -2.77429,-1.07126 -2.00518,0 -3.18631,1.26353 -1.18113,1.23607 -1.18113,3.57087 v 7.49882 H 782.1868 V 445.3829 h 2.52708 v 2.16999 q 0.79657,-1.1262 2.08758,-1.70303 1.291,-0.6043 2.9391,-0.6043 1.70302,0 3.0215,0.68671 1.31847,0.6867 2.03265,2.00518 0.82404,-1.26354 2.27986,-1.97771 1.48328,-0.71418 3.32365,-0.71418 z m 31.27552,9.88855 h -10.21817 l -2.11506,4.80694 h -2.82922 l 8.70742,-19.22774 h 2.71935 l 8.73489,19.22774 h -2.88416 z m -0.96139,-2.19745 -4.1477,-9.42159 -4.1477,9.42159 z m 22.35307,-7.55376 v 12.58044 q 0,3.81808 -1.89531,5.63098 -1.8953,1.84037 -5.65845,1.84037 -2.06011,0 -3.92795,-0.57683 -1.86784,-0.54937 -3.0215,-1.59316 l 1.26354,-2.03264 q 1.01632,0.87898 2.4996,1.37341 1.51075,0.52189 3.10391,0.52189 2.55454,0 3.76314,-1.2086 1.23607,-1.2086 1.23607,-3.68074 v -1.15366 q -0.93392,1.12619 -2.30733,1.70303 -1.34594,0.54936 -2.93909,0.54936 -2.08759,0 -3.79062,-0.87898 -1.67556,-0.90645 -2.63694,-2.49961 -0.96139,-1.62062 -0.96139,-3.68074 0,-2.06011 0.96139,-3.65327 0.96138,-1.62062 2.63694,-2.49961 1.70303,-0.87898 3.79062,-0.87898 1.64809,0 3.04897,0.6043 1.42834,0.6043 2.33479,1.78544 v -2.2524 z m -7.58122,11.64652 q 1.42834,0 2.55454,-0.6043 1.15366,-0.6043 1.78543,-1.67556 0.65924,-1.09873 0.65924,-2.47214 0,-2.11505 -1.40088,-3.40606 -1.40088,-1.31847 -3.59833,-1.31847 -2.22493,0 -3.62581,1.31847 -1.40088,1.29101 -1.40088,3.40606 0,1.37341 0.63177,2.47214 0.65924,1.07126 1.78544,1.67556 1.15366,0.6043 2.60948,0.6043 z m 25.89646,-4.28504 q 0,0.30215 -0.0549,0.79658 H 859.5144 q 0.24721,1.92277 1.67556,3.10391 1.45581,1.15366 3.59833,1.15366 2.60948,0 4.20264,-1.75796 l 1.45581,1.70302 q -0.98885,1.15367 -2.47214,1.75797 -1.45581,0.6043 -3.26871,0.6043 -2.30733,0 -4.09276,-0.93392 -1.78544,-0.96139 -2.77429,-2.66442 -0.96139,-1.70302 -0.96139,-3.84554 0,-2.11506 0.93392,-3.81808 0.96139,-1.70303 2.60948,-2.63695 1.67556,-0.96139 3.76314,-0.96139 2.08758,0 3.70821,0.96139 1.64809,0.93392 2.55454,2.63695 0.93392,1.70302 0.93392,3.90048 z m -7.19667,-5.27389 q -1.8953,0 -3.18631,1.15366 -1.26354,1.15367 -1.48328,3.0215 h 9.33919 q -0.21975,-1.84037 -1.51076,-2.99403 -1.26353,-1.18113 -3.15884,-1.18113 z m 18.75467,-2.22493 q 2.77429,0 4.39492,1.62063 1.64809,1.59315 1.64809,4.69706 v 8.3778 h -2.63695 v -8.07565 q 0,-2.11505 -1.01632,-3.18631 -1.01633,-1.07126 -2.91163,-1.07126 -2.14252,0 -3.37859,1.26353 -1.23607,1.23607 -1.23607,3.57087 v 7.49882 h -2.63695 V 445.3829 h 2.52708 v 2.19746 q 0.79658,-1.1262 2.14252,-1.7305 1.37341,-0.6043 3.1039,-0.6043 z m 19.24913,13.84398 q -0.57684,0.49442 -1.42835,0.76911 -0.85152,0.24721 -1.75797,0.24721 -2.19745,0 -3.40605,-1.18113 -1.2086,-1.18114 -1.2086,-3.37859 v -7.99325 h -2.47214 v -2.16999 h 2.47214 v -3.18631 h 2.63694 v 3.18631 h 4.17517 v 2.16999 h -4.17517 v 7.88337 q 0,1.18114 0.57684,1.81291 0.6043,0.63176 1.70302,0.63176 1.2086,0 2.06012,-0.6867 z m 15.98041,-6.34516 q 0,0.30215 -0.0549,0.79658 h -11.81133 q 0.24722,1.92277 1.67556,3.10391 1.45582,1.15366 3.59834,1.15366 2.60948,0 4.20263,-1.75796 l 1.45582,1.70302 q -0.98886,1.15367 -2.47214,1.75797 -1.45582,0.6043 -3.26872,0.6043 -2.30733,0 -4.09276,-0.93392 -1.78543,-0.96139 -2.77429,-2.66442 -0.96138,-1.70302 -0.96138,-3.84554 0,-2.11506 0.93392,-3.81808 0.96138,-1.70303 2.60947,-2.63695 1.67556,-0.96139 3.76315,-0.96139 2.08758,0 3.7082,0.96139 1.6481,0.93392 2.55455,2.63695 0.93392,1.70302 0.93392,3.90048 z m -7.19667,-5.27389 q -1.89531,0 -3.18631,1.15366 -1.26354,1.15367 -1.48329,3.0215 h 9.33919 q -0.21974,-1.84037 -1.51075,-2.99403 -1.26354,-1.18113 -3.15884,-1.18113 z m 15.15637,12.63537 q -1.78544,0 -3.43353,-0.46696 -1.64809,-0.49443 -2.58201,-1.23607 l 1.09873,-2.08758 q 0.96139,0.6867 2.3348,1.09873 1.37341,0.41202 2.77429,0.41202 3.46099,0 3.46099,-1.97771 0,-0.65924 -0.46696,-1.04379 -0.46696,-0.38456 -1.18113,-0.54937 -0.68671,-0.19228 -1.97771,-0.41202 -1.75797,-0.27468 -2.88417,-0.63177 -1.09872,-0.35709 -1.8953,-1.2086 -0.79658,-0.85151 -0.79658,-2.38973 0,-1.97771 1.64809,-3.15885 1.6481,-1.2086 4.42238,-1.2086 1.45582,0 2.91163,0.35709 1.45582,0.35709 2.38974,0.96139 l -1.1262,2.08758 q -1.78543,-1.15367 -4.20263,-1.15367 -1.67556,0 -2.55455,0.54937 -0.87898,0.54936 -0.87898,1.45581 0,0.71418 0.49443,1.1262 0.49443,0.41202 1.2086,0.6043 0.74164,0.19228 2.06011,0.43949 1.75797,0.30215 2.82923,0.65924 1.09873,0.32962 1.86784,1.15366 0.76911,0.82405 0.76911,2.30733 0,1.97771 -1.70303,3.15884 -1.67556,1.15367 -4.58719,1.15367 z"
         id="path7" />
    </g>
    <g
       id="text1-9"
       style="font-weight:bold;font-size:142.942px;font-family:Oswald;-inkscape-font-specification:'Oswald Bold';letter-spacing:0px;word-spacing:0px;stroke-width:3.69404;stroke-linecap:round;stroke-miterlimit:0"
       inkscape:label="SIMBRA"
       aria-label="SIMBRA">
      <path
         style="font-weight:800;font-family:Montserrat;-inkscape-font-specification:'Montserrat Ultra-Bold'"
         d="m 908.39923,319.85025 q -12.15007,0 -23.58543,-3.00178 -11.43536,-3.00179 -18.58246,-8.00476 l 9.29123,-20.86953 q 6.71827,4.4312 15.58067,7.1471 8.86241,2.7159 17.43893,2.7159 16.29539,0 16.29539,-8.14769 0,-4.28826 -4.71709,-6.28945 -4.57414,-2.14413 -14.86597,-4.4312 -11.29242,-2.43002 -18.86834,-5.14592 -7.57593,-2.85884 -13.00772,-9.00534 -5.4318,-6.14651 -5.4318,-16.58127 0,-9.14829 5.00297,-16.43833 5.00297,-7.43299 14.86597,-11.72125 10.00594,-4.28826 24.44308,-4.28826 9.863,0 19.44011,2.28707 9.57712,2.14413 16.86716,6.43239 l -8.71946,21.01248 q -14.2942,-7.71887 -27.73075,-7.71887 -8.43358,0 -12.29301,2.57296 -3.85944,2.43001 -3.85944,6.43239 0,4.00237 4.57415,6.00356 4.57414,2.00119 14.72302,4.14532 11.43536,2.43001 18.86835,5.28885 7.57592,2.7159 13.00772,8.86241 5.57474,6.00356 5.57474,16.43833 0,9.00534 -5.00297,16.29538 -5.00297,7.29005 -15.00891,11.72125 -10.00594,4.28826 -24.30014,4.28826 z"
         id="path1" />
      <path
         style="font-weight:800;font-family:Montserrat;-inkscape-font-specification:'Montserrat Ultra-Bold'"
         d="m 965.71888,217.78966 h 28.30251 v 100.0594 h -28.30251 z"
         id="path2" />
      <path
         style="font-weight:800;font-family:Montserrat;-inkscape-font-specification:'Montserrat Ultra-Bold'"
         d="m 1104.5157,317.84906 -0.2859,-53.03148 -25.7296,43.16848 h -12.5789 L 1040.3347,266.247 v 51.60206 h -26.1584 v -100.0594 h 23.2996 l 35.1637,57.74857 34.3061,-57.74857 h 23.2995 l 0.2859,100.0594 z"
         id="path3" />
      <path
         style="font-weight:800;font-family:Montserrat;-inkscape-font-specification:'Montserrat Ultra-Bold'"
         d="m 1227.4458,265.67523 q 8.5766,3.00178 13.4366,9.43417 4.86,6.28945 4.86,15.2948 0,13.15066 -10.5777,20.29776 -10.5777,7.1471 -30.5896,7.1471 h -54.0321 v -100.0594 h 51.1733 q 19.1542,0 29.1602,7.1471 10.0059,7.00416 10.0059,19.01129 0,7.1471 -3.5736,12.86478 -3.4306,5.57473 -9.863,8.8624 z m -48.8861,-27.44486 v 19.29717 h 19.4401 q 14.2942,0 14.2942,-9.72006 0,-9.57711 -14.2942,-9.57711 z m 23.7284,59.17798 q 14.8659,0 14.8659,-10.14888 0,-10.14888 -14.8659,-10.14888 h -23.7284 v 20.29776 z"
         id="path4" />
      <path
         style="font-weight:800;font-family:Montserrat;-inkscape-font-specification:'Montserrat Ultra-Bold'"
         d="m 1304.2056,291.26185 h -15.4378 v 26.58721 h -28.3025 v -100.0594 h 45.7415 q 13.5795,0 23.5854,4.57414 10.0059,4.43121 15.4377,12.86478 5.4318,8.29064 5.4318,19.58306 0,10.86359 -5.1459,19.01128 -5.003,8.00476 -14.4371,12.5789 l 21.5842,31.44724 h -30.3037 z m 17.8677,-36.45021 q 0,-7.00416 -4.4312,-10.86359 -4.4312,-3.85944 -13.1506,-3.85944 h -15.7237 v 29.30311 h 15.7237 q 8.7194,0 13.1506,-3.71649 4.4312,-3.85943 4.4312,-10.86359 z m 111.2089,43.59731 h -42.3109 l -7.8618,19.44011 h -28.8743 l 44.1691,-100.0594 h 27.8737 l 44.312,100.0594 h -29.446 z m -8.2907,-20.86953 -12.8648,-32.01901 -12.8647,32.01901 z"
         id="path5" />
    </g>
  </g>
  <g
     inkscape:groupmode="layer"
     id="layer3"
     inkscape:label="Symbol"
     sodipodi:insensitive="true">
    <path
       d="m 284.77531,352.87384 6.31751,6.73256 12.62815,6.95707 8.67865,6.83814 4.6359,5.09458 2.49084,4.02269 9.47304,-11.07592 9.29779,-11.13306 7.50978,-10.27405 8.36626,-9.12281 1.14943,-14.14071 4.11697,-13.19223 11.0526,-8.14715 12.06864,-6.33349 13.83929,-4.35997 14.78157,-3.02349 7.51034,-11.38614 6.70649,-12.23554 4.16656,-12.1794 5.29148,-12.36434 -0.6705,-14.20148 -0.57198,-11.17658 7.97773,-11.90563 8.85564,-11.72251 7.10126,-8.89817 6.95832,-9.02305 3.41189,-11.08948 -1.40555,-12.8572 -7.12043,-10.13295 -10.7003,-2.13224 -8.47033,-6.10492 -8.58664,-8.08563 -8.40591,-2.07617 -11.21511,-0.40374 -9.79827,-2.48653 -9.04826,-1.58859 -7.88104,-7.81878 -11.20773,-4.41586 -14.01451,-3.83132 -12.06304,-4.523015 -3.68416,-12.352354 -6.39066,-6.026108 -2.10052,-6.842855 -3.79684,-9.234349 -5.11407,3.359967 -7.96319,9.82601 -13.02452,1.480602 -12.79965,-0.06723 -12.49996,4.29399 -9.96117,2.575396 -7.7531,-4.31643 -0.25164,-12.574597 -1.34762,-12.095975 -8.60082,3.454379 -9.85107,2.355507 -11.26855,3.136808 -8.69532,-0.830721 4.07731,8.522188 4.04261,8.115421 -13.14319,8.963095 -12.46044,-1.744184 -5.08912,-6.674814 -6.97367,0.756948 -10.31811,2.370251 0.70357,7.173372 -5.13479,5.335575 2.65031,6.753633 1.88278,14.79756 -4.95266,13.05166 -13.34469,4.86557 -11.1537,7.97279 -4.53704,13.85349 2.51982,13.22119 5.27918,7.65697 9.53536,4.74459 7.04033,-0.65278 0.51924,7.54279 13.09338,0.41255 13.25092,-3.52645 11.96838,-5.16791 3.83824,8.67671 6.80031,11.32136 14.44573,5.83734 12.33579,5.14046 7.8141,9.90143 2.53384,11.73225 11.63285,3.00322 4.93832,8.22628 3.31489,7.9241 -3.02923,13.85102 2.57156,15.21957 9.53595,3.37367 8.35041,9.5318 5.9324,6.30166 4.35275,7.11857 2.55472,9.10224 0.92829,10.2036 -9.04085,5.36548 -8.41651,4.3274 -6.86695,8.67473 z"
       style="display:inline;fill:#183eff;fill-rule:nonzero;stroke:#000000;stroke-width:2.9878;stroke-linecap:square;stroke-linejoin:miter;stroke-dasharray:none"
       id="path16"
       inkscape:label="Brazil"
       inkscape:linked-fill="path7" />
    <path
       style="baseline-shift:baseline;display:inline;overflow:visible;vector-effect:none;fill:#ffffff;stroke-width:0.398375;stroke-linecap:square;stroke-miterlimit:0;enable-background:accumulate;stop-color:#000000"
       d="m 412.86427,164.80332 v 1.61477 c 0,26.80506 -2.70595,52.51523 -9.3268,71.3204 -3.31043,9.40257 -7.59607,17.05871 -12.89826,22.29718 -5.3022,5.23847 -11.55583,8.11251 -19.21619,8.11251 h -1.61461 v 3.22951 h 1.61461 c 8.4856,0 15.6869,-3.31587 21.48503,-9.04434 5.79817,-5.72846 10.25825,-13.81627 13.6753,-23.52172 6.83412,-19.41091 9.51014,-45.37317 9.51014,-72.39354 v -1.61477 z"
       id="path17"
       inkscape:label="Link Segment 3" />
    <path
       style="baseline-shift:baseline;display:inline;overflow:visible;vector-effect:none;fill:#ffffff;stroke-width:0.398375;stroke-linecap:square;stroke-miterlimit:0;enable-background:accumulate;stop-color:#000000"
       d="m 220.72744,141.12014 -1.6146,1.61475 c 0,5.56197 3.45744,12.14658 8.80206,19.23924 5.34463,7.09265 12.68081,14.62537 20.82998,21.55288 15.81829,13.44696 34.4734,24.69797 48.2293,25.35094 13.71452,51.10101 25.47278,89.50467 25.47278,129.78156 v 1.61476 h 3.22918 v -1.61476 c 0,-41.22288 -12.05212,-80.10981 -25.88819,-131.75207 l -1.55993,-1.19678 c -11.97491,0 -31.39899,-11.04852 -47.39258,-24.64449 -7.9968,-6.79798 -15.19198,-14.20181 -20.34222,-21.03649 -4.50556,-5.97914 -7.36597,-11.57461 -8.01159,-15.64469 58.88302,0.37849 95.53288,19.41239 117.59301,44.36393 22.28277,25.2034 29.73377,56.58194 29.73377,81.01401 v 1.61476 h 3.22922 v -1.61476 c 0,-25.08732 -7.61858,-57.2228 -30.54447,-83.15357 -22.92587,-25.93078 -61.1415,-45.48922 -121.76572,-45.48922 z"
       id="path18"
       inkscape:label="Link Segment 2" />
    <path
       style="baseline-shift:baseline;display:inline;overflow:visible;vector-effect:none;fill:#ffffff;stroke-width:0.398375;stroke-linecap:square;stroke-miterlimit:3;enable-background:accumulate;stop-color:#000000"
       d="m 308.58665,113.02998 c -28.20473,0.12334 -57.27569,10.18092 -88.66652,28.3063 l -1.39846,0.80738 1.61459,2.79724 1.39848,-0.80737 c 35.53298,-20.51712 67.6787,-30.38707 98.77456,-27.3282 30.92684,3.04226 60.98661,18.87879 92.51211,50.25363 -0.22966,12.50974 -6.92539,21 -17.3199,27.0641 -10.57736,6.17076 -24.93119,9.5956 -39.34064,11.33025 -28.81886,3.4693 -57.75457,0.26746 -57.75457,0.26746 l -1.79288,-0.19934 v 1.804 c 0,2.10815 0.86196,4.43077 2.26716,7.13608 1.4052,2.70529 3.40008,5.7587 5.85964,9.03847 4.91913,6.55951 11.69985,14.0143 19.29947,21.07182 7.5996,7.0575 16.01078,13.71184 24.21724,18.63621 4.93974,2.96415 9.79467,5.30142 14.40185,6.70716 -3.72485,1.46964 -7.27856,3.76833 -10.59744,6.67267 -5.83956,5.11011 -11.03364,12.0346 -15.40259,19.54452 -8.7379,15.01985 -14.21179,32.2405 -14.21179,42.52715 v 1.61476 h 3.22918 v -1.61476 c 0,-9.09052 5.29009,-26.31814 13.77452,-40.90229 4.24221,-7.29207 9.27392,-13.95851 14.73658,-18.73882 5.46262,-4.78032 11.29315,-7.64071 17.23578,-7.64071 v -3.22951 c -5.94263,0 -13.5649,-2.94461 -21.50437,-7.70881 -7.93952,-4.7642 -16.2125,-11.29712 -23.68244,-18.23422 -7.46994,-6.9371 -14.1442,-14.28432 -18.91264,-20.6429 -2.38421,-3.17928 -4.2913,-6.11396 -5.57707,-8.58937 -0.78625,-1.51365 -1.24071,-2.76699 -1.53891,-3.84767 5.30092,0.52141 30.18202,2.68287 56.33846,-0.46593 14.65325,-1.764 29.36216,-5.20189 40.58183,-11.7474 11.2197,-6.54549 18.96561,-16.45611 18.96561,-30.49379 v -0.66862 l -0.47264,-0.47349 c -32.05666,-32.06006 -63.01022,-48.53869 -94.99536,-51.68504 -3.99815,-0.3933 -8.00958,-0.57859 -12.03884,-0.56096 z"
       id="path19"
       inkscape:label="Link Segment 1" />
    <path
       id="path20"
       d="m 320.14366,344.92153 4.56677,15.98534 12.55859,-33.11249 -33.10904,12.55992 z"
       style="display:inline;fill:#ff0000;fill-opacity:1;fill-rule:nonzero;stroke:none;stroke-width:0.0398372"
       sodipodi:nodetypes="ccccc"
       inkscape:transform-center-x="-9.9575775"
       inkscape:transform-center-y="23.234326"
       inkscape:label="South" />
    <path
       id="path21"
       d="m 376.52618,273.66722 15.98367,-4.56725 -33.10905,-12.5599 12.55863,33.11248 z"
       style="display:inline;fill:#ff0000;fill-opacity:1;fill-rule:nonzero;stroke:none;stroke-width:0.0398372"
       sodipodi:nodetypes="ccccc"
       inkscape:transform-center-x="-23.234314"
       inkscape:transform-center-y="-9.957531"
       inkscape:label="Southeast" />
    <path
       id="path22"
       d="m 292.31061,207.82186 -4.03688,16.12731 27.43057,-22.39629 -34.95257,-5.67906 z"
       style="display:inline;fill:#ff0000;fill-opacity:1;fill-rule:nonzero;stroke:none;stroke-width:0.0398372"
       sodipodi:nodetypes="ccccc"
       inkscape:transform-center-x="-24.985802"
       inkscape:transform-center-y="37.617315"
       inkscape:label="Central-West" />
    <path
       id="path23"
       d="m 418.60596,165.9859 4.03689,-16.12733 -27.4306,22.3963 34.95262,5.67904 z"
       style="display:inline;fill:#ff0000;fill-opacity:1;fill-rule:nonzero;stroke:none;stroke-width:0.398375;stroke-dasharray:none"
       sodipodi:nodetypes="ccccc"
       inkscape:transform-center-x="24.985777"
       inkscape:transform-center-y="-37.617284"
       inkscape:label="Northeast" />
    <path
       id="path24"
       d="m 214.19261,140.35912 -11.55889,11.94802 34.95258,-5.67905 -27.4306,-22.3963 z"
       style="display:inline;fill:#ff0000;fill-opacity:1;fill-rule:nonzero;stroke:none;stroke-width:0.0398372"
       sodipodi:nodetypes="ccccc"
       inkscape:transform-center-x="-12.836776"
       inkscape:transform-center-y="7.7236449"
       inkscape:label="North" />
  </g>
  <metadata
     id="metadata1">
    <rdf:RDF>
      <cc:Work
         rdf:about="">
        <cc:license
           rdf:resource="http://creativecommons.org/licenses/by-nc-sa/4.0/" />
        <dc:creator>
          <cc:Agent>
            <dc:title>Daniel Vartanian</dc:title>
          </cc:Agent>
        </dc:creator>
        <dc:publisher>
          <cc:Agent>
            <dc:title>SIMBRA</dc:title>
          </cc:Agent>
        </dc:publisher>
      </cc:Work>
      <cc:License
         rdf:about="http://creativecommons.org/licenses/by-nc-sa/4.0/">
        <cc:permits
           rdf:resource="http://creativecommons.org/ns#Reproduction" />
        <cc:permits
           rdf:resource="http://creativecommons.org/ns#Distribution" />
        <cc:requires
           rdf:resource="http://creativecommons.org/ns#Notice" />
        <cc:requires
           rdf:resource="http://creativecommons.org/ns#Attribution" />
        <cc:prohibits
           rdf:resource="http://creativecommons.org/ns#CommercialUse" />
        <cc:permits
           rdf:resource="http://creativecommons.org/ns#DerivativeWorks" />
        <cc:requires
           rdf:resource="http://creativecommons.org/ns#ShareAlike" />
      </cc:License>
    </rdf:RDF>
  </metadata>
</svg>
