<?xml version="1.0" encoding="UTF-8" standalone="no"?>
<!-- Created with Inkscape (http://www.inkscape.org/) -->

<svg
   width="1000"
   height="400"
   viewBox="0 0 1000 400"
   version="1.1"
   id="svg1"
   inkscape:version="1.4.3 (0d15f75042, 2025-12-25)"
   sodipodi:docname="logo-2.svg"
   xml:space="preserve"
   inkscape:export-filename="logo.png"
   inkscape:export-xdpi="96"
   inkscape:export-ydpi="96"
   xmlns:inkscape="http://www.inkscape.org/namespaces/inkscape"
   xmlns:sodipodi="http://sodipodi.sourceforge.net/DTD/sodipodi-0.dtd"
   xmlns="http://www.w3.org/2000/svg"
   xmlns:svg="http://www.w3.org/2000/svg"
   xmlns:rdf="http://www.w3.org/1999/02/22-rdf-syntax-ns#"
   xmlns:cc="http://creativecommons.org/ns#"
   xmlns:dc="http://purl.org/dc/elements/1.1/"><title
     id="title8">Logo SIMBRA</title><sodipodi:namedview
     id="namedview1"
     pagecolor="#ffffff"
     bordercolor="#000000"
     borderopacity="0.25"
     inkscape:showpageshadow="2"
     inkscape:pageopacity="0.0"
     inkscape:pagecheckerboard="0"
     inkscape:deskcolor="#d1d1d1"
     inkscape:document-units="px"
     inkscape:zoom="0.70710678"
     inkscape:cx="439.82042"
     inkscape:cy="229.8097"
     inkscape:window-width="1920"
     inkscape:window-height="1011"
     inkscape:window-x="0"
     inkscape:window-y="0"
     inkscape:window-maximized="1"
     inkscape:current-layer="layer17"
     showguides="true"
     guidecolor="#ff00ff"
     guideopacity="1"
     showgrid="true"
     inkscape:lockguides="false" /><defs
     id="defs1"><rect
       x="450"
       y="400"
       width="503.55011"
       height="84.995087"
       id="rect10" /><rect
       x="450"
       y="400"
       width="500"
       height="150"
       id="rect9" /><inkscape:path-effect
       effect="roughen"
       id="path-effect9"
       is_visible="false"
       lpeversion="1.2"
       global_randomize="1;964689919"
       displace_x="5;936998185"
       displace_y="5;1601183165"
       method="segments"
       max_segment_size="25"
       segments="1"
       handles="rand"
       shift_nodes="true"
       fixed_displacement="false"
       spray_tool_friendly="false" /><inkscape:path-effect
       effect="offset"
       id="path-effect8"
       is_visible="true"
       lpeversion="1.3"
       linejoin_type="miter"
       unit="mm"
       offset="0"
       miter_limit="4"
       attempt_force_join="false"
       update_on_knot_move="true" /><inkscape:path-effect
       effect="powerstroke"
       message=""
       id="path-effect6"
       is_visible="true"
       lpeversion="1.3"
       scale_width="1"
       interpolator_type="CentripetalCatmullRom"
       interpolator_beta="0.2"
       start_linecap_type="zerowidth"
       end_linecap_type="zerowidth"
       offset_points="33.5,0.85082501"
       linejoin_type="round"
       miter_limit="4"
       not_jump="false"
       sort_points="true" /><inkscape:path-effect
       effect="transform_2pts"
       start="445.62223,807.66053"
       end="445.62444,807.48112"
       id="path-effect5"
       is_visible="true"
       lpeversion="1"
       first_knot="1"
       last_knot="4210"
       helper_size="3"
       stretch="1"
       offset="0"
       elastic="false"
       from_original_width="false"
       flip_vertical="false"
       flip_horizontal="false"
       lock_length="false"
       lock_angle="false" /><inkscape:path-effect
       effect="tiling"
       id="path-effect2"
       is_visible="true"
       lpeversion="1.3.1"
       unit="px"
       seed="1;1"
       lpesatellites=""
       num_rows="3"
       num_cols="3"
       gapx="0"
       gapy="0"
       offset="0"
       offset_type="false"
       scale="0"
       rotate="0"
       mirrorrowsx="false"
       mirrorrowsy="false"
       mirrorcolsx="false"
       mirrorcolsy="false"
       mirrortrans="false"
       shrink_interp="false"
       split_items="false"
       link_styles="false"
       interpolate_scalex="false"
       interpolate_scaley="true"
       interpolate_rotatex="false"
       interpolate_rotatey="true"
       random_scale="false"
       random_rotate="false"
       random_gap_y="false"
       random_gap_x="false"
       transformorigin="" /><inkscape:path-effect
       effect="roughen"
       id="path-effect1"
       is_visible="true"
       lpeversion="1.2"
       global_randomize="1;1"
       displace_x="5;1"
       displace_y="5;1"
       method="size"
       max_segment_size="14.945"
       segments="2"
       handles="along"
       shift_nodes="true"
       fixed_displacement="false"
       spray_tool_friendly="false" /><inkscape:path-effect
       effect="simplify"
       id="path-effect4"
       is_visible="true"
       lpeversion="1.3"
       threshold="7.5"
       steps="5"
       smooth_angles="0"
       helper_size="10"
       simplify_individual_paths="false"
       simplify_just_coalesce="false" /><inkscape:path-effect
       effect="simplify"
       id="path-effect3"
       is_visible="true"
       lpeversion="1.3"
       threshold="5"
       steps="1"
       smooth_angles="360"
       helper_size="10"
       simplify_individual_paths="false"
       simplify_just_coalesce="false" /><inkscape:path-effect
       effect="fill_between_many"
       method="bsplinespiro"
       autoreverse="false"
       close="false"
       join="false"
       linkedpaths="#path24-9,0,1"
       id="path-effect7"
       is_visible="true"
       lpeversion="0" /><clipPath
       clipPathUnits="userSpaceOnUse"
       id="clipPath4"><circle
         style="fill:#141414;fill-opacity:0.503824;stroke-width:3.35506;stroke-linecap:square;stroke-miterlimit:3"
         id="circle4"
         cx="500"
         cy="500"
         r="500"
         inkscape:label="Circle" /></clipPath><clipPath
       clipPathUnits="userSpaceOnUse"
       id="clipPath3"><circle
         style="fill:#141414;fill-opacity:0.503824;stroke-width:3.35506;stroke-linecap:square;stroke-miterlimit:3"
         id="circle3"
         cx="500"
         cy="500"
         r="500"
         inkscape:label="Circle" /></clipPath><clipPath
       clipPathUnits="userSpaceOnUse"
       id="clipPath2"><circle
         style="fill:#141414;fill-opacity:0.503824;stroke-width:3.35506;stroke-linecap:square;stroke-miterlimit:3"
         id="circle2"
         cx="500"
         cy="500"
         r="500"
         inkscape:label="Circle" /></clipPath><clipPath
       clipPathUnits="userSpaceOnUse"
       id="clipPath1"><circle
         style="fill:#141414;fill-opacity:0.503824;stroke-width:3.35506;stroke-linecap:square;stroke-miterlimit:3"
         id="circle1"
         cx="500"
         cy="500"
         r="500"
         inkscape:label="Circle" /></clipPath></defs><g
     inkscape:groupmode="layer"
     id="layer4"
     inkscape:label="Text"
     style="display:inline"><g
       id="text9"
       style="font-weight:bold;font-size:27.4682px;line-height:1.25;font-family:'Inter 28pt';-inkscape-font-specification:'Inter 28pt Bold';text-align:center;letter-spacing:0px;word-spacing:0px;white-space:pre;stroke-width:2.5;stroke-linecap:round;stroke-miterlimit:0"
       inkscape:label="Simpósio Interdisciplinar Brasileieo de Modelos Baseados em Agentes"
       transform="matrix(1.1427478,0,0,1.1427478,-65.523465,-232.39281)"
       aria-label="Simpósio Interdisciplinar Brasileiro&#10;de Modelos Baseados em Agentes"><path
         style="font-weight:500;font-family:Montserrat;-inkscape-font-specification:'Montserrat Medium';text-align:start"
         d="m 458.48767,425.64557 q -2.16998,0 -4.20263,-0.65924 -2.00518,-0.6867 -3.15884,-1.75796 l 1.01632,-2.14252 q 1.09873,0.98885 2.80176,1.62062 1.73049,0.6043 3.54339,0.6043 2.38974,0 3.57087,-0.79658 1.18113,-0.82404 1.18113,-2.16999 0,-0.98885 -0.65923,-1.59315 -0.63177,-0.63177 -1.59316,-0.96139 -0.93392,-0.32962 -2.66442,-0.74164 -2.16998,-0.5219 -3.51592,-1.04379 -1.31848,-0.5219 -2.27987,-1.59316 -0.93391,-1.09873 -0.93391,-2.93909 0,-1.53822 0.79657,-2.77429 0.82405,-1.23607 2.47214,-1.97771 1.64809,-0.74164 4.09276,-0.74164 1.70303,0 3.35112,0.43949 1.6481,0.43949 2.82923,1.26353 l -0.90645,2.19746 q -1.2086,-0.76911 -2.58201,-1.15366 -1.37341,-0.41203 -2.69189,-0.41203 -2.33479,0 -3.51593,0.85152 -1.15366,0.85151 -1.15366,2.19745 0,0.98886 0.65924,1.62063 0.65923,0.6043 1.62062,0.96138 0.98886,0.32962 2.66442,0.71418 2.16998,0.52189 3.48846,1.04379 1.31847,0.52189 2.25239,1.59315 0.96139,1.07126 0.96139,2.88417 0,1.51075 -0.82405,2.77428 -0.82405,1.23607 -2.49961,1.97771 -1.67556,0.71418 -4.12023,0.71418 z m 11.0697,-14.7779 h 2.63694 v 14.55815 h -2.63694 z m 1.31847,-2.80175 q -0.76911,0 -1.29101,-0.49443 -0.49442,-0.49443 -0.49442,-1.2086 0,-0.71417 0.49442,-1.2086 0.5219,-0.5219 1.29101,-0.5219 0.76911,0 1.26354,0.49443 0.52189,0.46696 0.52189,1.18113 0,0.74165 -0.52189,1.26354 -0.49443,0.49443 -1.26354,0.49443 z m 24.55655,2.66441 q 2.74682,0 4.33998,1.59316 1.62062,1.59316 1.62062,4.72453 v 8.3778 h -2.63694 v -8.07565 q 0,-2.11505 -0.98886,-3.18631 -0.96139,-1.07126 -2.77429,-1.07126 -2.00518,0 -3.18631,1.26354 -1.18113,1.23607 -1.18113,3.57086 v 7.49882 h -2.63695 v -8.07565 q 0,-2.11505 -0.98885,-3.18631 -0.96139,-1.07126 -2.77429,-1.07126 -2.00518,0 -3.18631,1.26354 -1.18114,1.23607 -1.18114,3.57086 v 7.49882 h -2.63694 v -14.55815 h 2.52707 v 2.16999 q 0.79658,-1.12619 2.08758,-1.70303 1.29101,-0.6043 2.9391,-0.6043 1.70303,0 3.0215,0.68671 1.31848,0.6867 2.03265,2.00518 0.82405,-1.26354 2.27986,-1.97771 1.48328,-0.71418 3.32365,-0.71418 z m 18.54102,0 q 2.11505,0 3.79061,0.93392 1.67556,0.93392 2.60948,2.60948 0.96139,1.67556 0.96139,3.87302 0,2.19745 -0.96139,3.90048 -0.93392,1.67556 -2.60948,2.60948 -1.67556,0.93392 -3.79061,0.93392 -1.56569,0 -2.88416,-0.6043 -1.29101,-0.6043 -2.19746,-1.75796 v 7.52628 h -2.63695 v -19.88698 h 2.52708 v 2.30733 q 0.87898,-1.2086 2.22492,-1.8129 1.34594,-0.63177 2.96657,-0.63177 z m -0.21975,12.55297 q 1.40088,0 2.49961,-0.63177 1.1262,-0.65923 1.75796,-1.8129 0.65924,-1.18113 0.65924,-2.69188 0,-1.51075 -0.65924,-2.66442 -0.63176,-1.18113 -1.75796,-1.8129 -1.09873,-0.63177 -2.49961,-0.63177 -1.37341,0 -2.4996,0.65924 -1.09873,0.63177 -1.75797,1.78543 -0.63177,1.15367 -0.63177,2.66442 0,1.51075 0.63177,2.69188 0.63177,1.15367 1.75797,1.8129 1.12619,0.63177 2.4996,0.63177 z m 17.46975,2.30733 q -2.16998,0 -3.90048,-0.96139 -1.7305,-0.96138 -2.71935,-2.63694 -0.96139,-1.70303 -0.96139,-3.84555 0,-2.14252 0.96139,-3.81808 0.98885,-1.70303 2.71935,-2.63695 1.7305,-0.96139 3.90048,-0.96139 2.16999,0 3.87302,0.96139 1.7305,0.93392 2.69188,2.63695 0.98886,1.67556 0.98886,3.81808 0,2.14252 -0.98886,3.84555 -0.96138,1.67556 -2.69188,2.63694 -1.70303,0.96139 -3.87302,0.96139 z m 0,-2.30733 q 1.40088,0 2.49961,-0.63177 1.1262,-0.65923 1.75796,-1.8129 0.63177,-1.18113 0.63177,-2.69188 0,-1.51075 -0.63177,-2.66442 -0.63176,-1.18113 -1.75796,-1.8129 -1.09873,-0.63177 -2.49961,-0.63177 -1.40088,0 -2.52707,0.63177 -1.09873,0.63177 -1.75797,1.8129 -0.63176,1.15367 -0.63176,2.66442 0,1.51075 0.63176,2.69188 0.65924,1.15367 1.75797,1.8129 1.12619,0.63177 2.52707,0.63177 z m 1.6481,-18.10154 h 3.35112 l -4.61466,3.57086 h -2.47214 z m 13.7341,20.40887 q -1.78543,0 -3.43352,-0.46696 -1.64809,-0.49443 -2.58201,-1.23607 l 1.09872,-2.08758 q 0.96139,0.6867 2.3348,1.09873 1.37341,0.41202 2.77429,0.41202 3.46099,0 3.46099,-1.97771 0,-0.65924 -0.46696,-1.04379 -0.46696,-0.38456 -1.18113,-0.54937 -0.6867,-0.19227 -1.97771,-0.41202 -1.75796,-0.27468 -2.88416,-0.63177 -1.09873,-0.35708 -1.89531,-1.2086 -0.79657,-0.85151 -0.79657,-2.38973 0,-1.97771 1.64809,-3.15885 1.64809,-1.2086 4.42238,-1.2086 1.45581,0 2.91163,0.35709 1.45581,0.35709 2.38973,0.96139 l -1.1262,2.08758 q -1.78543,-1.15366 -4.20263,-1.15366 -1.67556,0 -2.55454,0.54936 -0.87899,0.54936 -0.87899,1.45582 0,0.71417 0.49443,1.12619 0.49443,0.41202 1.2086,0.6043 0.74164,0.19228 2.06012,0.43949 1.75796,0.30215 2.82922,0.65924 1.09873,0.32962 1.86784,1.15366 0.76911,0.82405 0.76911,2.30733 0,1.97771 -1.70303,3.15885 -1.67556,1.15366 -4.58719,1.15366 z m 9.58639,-14.72296 h 2.63695 v 14.55815 H 556.192 Z m 1.31848,-2.80175 q -0.76911,0 -1.29101,-0.49443 -0.49443,-0.49443 -0.49443,-1.2086 0,-0.71417 0.49443,-1.2086 0.5219,-0.5219 1.29101,-0.5219 0.76911,0 1.26354,0.49443 0.52189,0.46696 0.52189,1.18113 0,0.74165 -0.52189,1.26354 -0.49443,0.49443 -1.26354,0.49443 z m 12.58041,17.52471 q -2.16999,0 -3.90048,-0.96139 -1.7305,-0.96138 -2.71936,-2.63694 -0.96138,-1.70303 -0.96138,-3.84555 0,-2.14252 0.96138,-3.81808 0.98886,-1.70303 2.71936,-2.63695 1.73049,-0.96139 3.90048,-0.96139 2.16999,0 3.87302,0.96139 1.73049,0.93392 2.69188,2.63695 0.98886,1.67556 0.98886,3.81808 0,2.14252 -0.98886,3.84555 -0.96139,1.67556 -2.69188,2.63694 -1.70303,0.96139 -3.87302,0.96139 z m 0,-2.30733 q 1.40088,0 2.49961,-0.63177 1.12619,-0.65923 1.75796,-1.8129 0.63177,-1.18113 0.63177,-2.69188 0,-1.51075 -0.63177,-2.66442 -0.63177,-1.18113 -1.75796,-1.8129 -1.09873,-0.63177 -2.49961,-0.63177 -1.40088,0 -2.52707,0.63177 -1.09873,0.63177 -1.75797,1.8129 -0.63177,1.15367 -0.63177,2.66442 0,1.51075 0.63177,2.69188 0.65924,1.15367 1.75797,1.8129 1.12619,0.63177 2.52707,0.63177 z m 18.98051,-17.08522 h 2.74682 v 19.22774 h -2.74682 z m 15.90407,4.53225 q 2.77429,0 4.39491,1.62063 1.64809,1.59315 1.64809,4.69706 v 8.3778 h -2.63694 v -8.07565 q 0,-2.11505 -1.01633,-3.18631 -1.01632,-1.07126 -2.91163,-1.07126 -2.14252,0 -3.37859,1.26354 -1.23606,1.23607 -1.23606,3.57086 v 7.49882 h -2.63695 v -14.55815 h 2.52707 v 2.19746 q 0.79658,-1.1262 2.14252,-1.7305 1.37341,-0.6043 3.10391,-0.6043 z m 19.11786,13.84398 q -0.57683,0.49442 -1.42834,0.76911 -0.85152,0.24721 -1.75797,0.24721 -2.19745,0 -3.40605,-1.18113 -1.20861,-1.18113 -1.20861,-3.37859 v -7.99325 h -2.47213 v -2.16999 h 2.47213 v -3.18631 h 2.63695 v 3.18631 h 4.17517 v 2.16999 h -4.17517 v 7.88338 q 0,1.18113 0.57683,1.8129 0.6043,0.63177 1.70303,0.63177 1.2086,0 2.06012,-0.68671 z m 15.84916,-6.34516 q 0,0.30215 -0.0549,0.79658 h -11.81132 q 0.24721,1.92277 1.67556,3.10391 1.45581,1.15366 3.59833,1.15366 2.60948,0 4.20263,-1.75796 l 1.45582,1.70303 q -0.98886,1.15366 -2.47214,1.75796 -1.45581,0.6043 -3.26871,0.6043 -2.30733,0 -4.09277,-0.93392 -1.78543,-0.96139 -2.77428,-2.66441 -0.96139,-1.70303 -0.96139,-3.84555 0,-2.11505 0.93392,-3.81808 0.96138,-1.70303 2.60948,-2.63695 1.67556,-0.96139 3.76314,-0.96139 2.08758,0 3.70821,0.96139 1.64809,0.93392 2.55454,2.63695 0.93392,1.70303 0.93392,3.90048 z m -7.19667,-5.27389 q -1.89531,0 -3.18631,1.15366 -1.26354,1.15367 -1.48328,3.0215 h 9.33918 q -0.21974,-1.84036 -1.51075,-2.99403 -1.26353,-1.18113 -3.15884,-1.18113 z m 13.37699,0.35708 q 0.68671,-1.26353 2.03265,-1.92277 1.34594,-0.65924 3.26871,-0.65924 v 2.55455 q -0.21974,-0.0275 -0.6043,-0.0275 -2.14252,0 -3.37859,1.291 -1.2086,1.26354 -1.2086,3.62581 v 7.2516 h -2.63694 v -14.55815 h 2.52707 z m 22.1394,-8.26792 v 20.3814 h -2.52707 v -2.30733 q -0.87899,1.2086 -2.22493,1.84037 -1.34594,0.63177 -2.96656,0.63177 -2.11506,0 -3.79062,-0.93392 -1.67556,-0.93392 -2.63694,-2.60948 -0.93392,-1.70303 -0.93392,-3.90048 0,-2.19746 0.93392,-3.87302 0.96138,-1.67556 2.63694,-2.60948 1.67556,-0.93392 3.79062,-0.93392 1.56568,0 2.88416,0.6043 1.31847,0.57684 2.19745,1.7305 v -8.02071 z m -7.49882,18.23888 q 1.37341,0 2.49961,-0.63177 1.12619,-0.65923 1.75796,-1.8129 0.63177,-1.18113 0.63177,-2.69188 0,-1.51075 -0.63177,-2.66442 -0.63177,-1.18113 -1.75796,-1.8129 -1.1262,-0.63177 -2.49961,-0.63177 -1.40088,0 -2.52707,0.63177 -1.09873,0.63177 -1.75797,1.8129 -0.63177,1.15367 -0.63177,2.66442 0,1.51075 0.63177,2.69188 0.65924,1.15367 1.75797,1.8129 1.12619,0.63177 2.52707,0.63177 z m 12.49801,-12.41563 h 2.63695 v 14.55815 h -2.63695 z m 1.31847,-2.80175 q -0.7691,0 -1.291,-0.49443 -0.49443,-0.49443 -0.49443,-1.2086 0,-0.71417 0.49443,-1.2086 0.5219,-0.5219 1.291,-0.5219 0.76911,0 1.26354,0.49443 0.5219,0.46696 0.5219,1.18113 0,0.74165 -0.5219,1.26354 -0.49443,0.49443 -1.26354,0.49443 z m 10.5203,17.52471 q -1.78543,0 -3.43352,-0.46696 -1.64809,-0.49443 -2.58201,-1.23607 l 1.09872,-2.08758 q 0.96139,0.6867 2.3348,1.09873 1.37341,0.41202 2.77429,0.41202 3.46099,0 3.46099,-1.97771 0,-0.65924 -0.46696,-1.04379 -0.46696,-0.38456 -1.18113,-0.54937 -0.6867,-0.19227 -1.97771,-0.41202 -1.75796,-0.27468 -2.88416,-0.63177 -1.09873,-0.35708 -1.89531,-1.2086 -0.79657,-0.85151 -0.79657,-2.38973 0,-1.97771 1.64809,-3.15885 1.64809,-1.2086 4.42238,-1.2086 1.45581,0 2.91163,0.35709 1.45581,0.35709 2.38973,0.96139 l -1.1262,2.08758 q -1.78543,-1.15366 -4.20263,-1.15366 -1.67556,0 -2.55454,0.54936 -0.87898,0.54936 -0.87898,1.45582 0,0.71417 0.49442,1.12619 0.49443,0.41202 1.2086,0.6043 0.74164,0.19228 2.06012,0.43949 1.75796,0.30215 2.82922,0.65924 1.09873,0.32962 1.86784,1.15366 0.76911,0.82405 0.76911,2.30733 0,1.97771 -1.70303,3.15885 -1.67556,1.15366 -4.58719,1.15366 z m 15.93154,0 q -2.22492,0 -3.98289,-0.96139 -1.73049,-0.96138 -2.71935,-2.63694 -0.98885,-1.70303 -0.98885,-3.84555 0,-2.14252 0.98885,-3.81808 0.98886,-1.70303 2.71935,-2.63695 1.75797,-0.96139 3.98289,-0.96139 1.97771,0 3.51593,0.79658 1.56569,0.79658 2.4172,2.30733 l -2.00518,1.29101 q -0.6867,-1.0438 -1.70302,-1.56569 -1.01633,-0.5219 -2.2524,-0.5219 -1.42834,0 -2.58201,0.63177 -1.12619,0.63177 -1.78543,1.8129 -0.63177,1.15367 -0.63177,2.66442 0,1.53822 0.63177,2.71935 0.65924,1.15366 1.78543,1.78543 1.15367,0.63177 2.58201,0.63177 1.23607,0 2.2524,-0.52189 1.01632,-0.5219 1.70302,-1.56569 l 2.00518,1.26354 q -0.85151,1.51075 -2.4172,2.33479 -1.53822,0.79658 -3.51593,0.79658 z m 9.33917,-14.72296 h 2.63695 v 14.55815 h -2.63695 z m 1.31848,-2.80175 q -0.76911,0 -1.29101,-0.49443 -0.49443,-0.49443 -0.49443,-1.2086 0,-0.71417 0.49443,-1.2086 0.5219,-0.5219 1.29101,-0.5219 0.76911,0 1.26353,0.49443 0.5219,0.46696 0.5219,1.18113 0,0.74165 -0.5219,1.26354 -0.49442,0.49443 -1.26353,0.49443 z m 14.06369,2.66441 q 2.11505,0 3.79061,0.93392 1.67556,0.93392 2.60948,2.60948 0.96139,1.67556 0.96139,3.87302 0,2.19745 -0.96139,3.90048 -0.93392,1.67556 -2.60948,2.60948 -1.67556,0.93392 -3.79061,0.93392 -1.56569,0 -2.88416,-0.6043 -1.291,-0.6043 -2.19745,-1.75796 v 7.52628 h -2.63695 v -19.88698 h 2.52707 v 2.30733 q 0.87898,-1.2086 2.22493,-1.8129 1.34594,-0.63177 2.96656,-0.63177 z m -0.21974,12.55297 q 1.40087,0 2.4996,-0.63177 1.1262,-0.65923 1.75797,-1.8129 0.65923,-1.18113 0.65923,-2.69188 0,-1.51075 -0.65923,-2.66442 -0.63177,-1.18113 -1.75797,-1.8129 -1.09873,-0.63177 -2.4996,-0.63177 -1.37341,0 -2.49961,0.65924 -1.09873,0.63177 -1.75796,1.78543 -0.63177,1.15367 -0.63177,2.66442 0,1.51075 0.63177,2.69188 0.63176,1.15367 1.75796,1.8129 1.1262,0.63177 2.49961,0.63177 z m 11.23448,-18.23888 h 2.63695 v 20.3814 h -2.63695 z m 7.66361,5.82325 h 2.63695 v 14.55815 h -2.63695 z m 1.31847,-2.80175 q -0.76911,0 -1.291,-0.49443 -0.49443,-0.49443 -0.49443,-1.2086 0,-0.71417 0.49443,-1.2086 0.52189,-0.5219 1.291,-0.5219 0.76911,0 1.26354,0.49443 0.5219,0.46696 0.5219,1.18113 0,0.74165 -0.5219,1.26354 -0.49443,0.49443 -1.26354,0.49443 z m 14.11864,2.66441 q 2.77428,0 4.39491,1.62063 1.64809,1.59315 1.64809,4.69706 v 8.3778 h -2.63695 v -8.07565 q 0,-2.11505 -1.01632,-3.18631 -1.01632,-1.07126 -2.91163,-1.07126 -2.14252,0 -3.37859,1.26354 -1.23607,1.23607 -1.23607,3.57086 v 7.49882 H 752.095 v -14.55815 h 2.52708 v 2.19746 q 0.79658,-1.1262 2.14252,-1.7305 1.37341,-0.6043 3.10391,-0.6043 z m 16.2337,0 q 3.0215,0 4.61466,1.48329 1.62062,1.48328 1.62062,4.42238 v 8.78982 h -2.49961 v -1.92277 q -0.65923,1.01632 -1.8953,1.56568 -1.2086,0.5219 -2.88416,0.5219 -2.44467,0 -3.92796,-1.18113 -1.45581,-1.18113 -1.45581,-3.10391 0,-1.92277 1.40088,-3.07644 1.40088,-1.18113 4.44985,-1.18113 h 4.17516 v -0.5219 q 0,-1.70302 -0.98885,-2.60947 -0.98886,-0.90646 -2.91163,-0.90646 -1.29101,0 -2.52708,0.4395 -1.23607,0.41202 -2.08758,1.12619 l -1.09873,-1.97771 q 1.1262,-0.90645 2.69189,-1.37341 1.56568,-0.49443 3.32365,-0.49443 z m -0.6043,12.82765 q 1.51075,0 2.60948,-0.65923 1.09872,-0.68671 1.59315,-1.92278 v -2.03264 h -4.06529 q -3.35112,0 -3.35112,2.25239 0,1.09873 0.85151,1.7305 0.85152,0.63176 2.36227,0.63176 z m 14.25597,-10.24564 q 0.68671,-1.26353 2.03265,-1.92277 1.34594,-0.65924 3.26872,-0.65924 v 2.55455 q -0.21975,-0.0275 -0.6043,-0.0275 -2.14252,0 -3.37859,1.291 -1.2086,1.26354 -1.2086,3.62581 v 7.2516 h -2.63695 v -14.55815 h 2.52707 z m 29.44589,2.14252 q 1.67556,0.46696 2.63694,1.70303 0.96139,1.2086 0.96139,3.07644 0,2.49961 -1.89531,3.84555 -1.86783,1.34594 -5.46617,1.34594 h -9.17438 v -19.22774 h 8.62502 q 3.29618,0 5.08162,1.31847 1.8129,1.31848 1.8129,3.65328 0,1.51075 -0.71418,2.60947 -0.6867,1.09873 -1.86783,1.67556 z m -10.19071,-7.03185 v 6.15287 h 5.63098 q 2.11506,0 3.24125,-0.76911 1.15367,-0.79658 1.15367,-2.30733 0,-1.51075 -1.15367,-2.27986 -1.12619,-0.79657 -3.24125,-0.79657 z m 6.31769,14.77789 q 2.3348,0 3.51593,-0.76911 1.18113,-0.76911 1.18113,-2.4172 0,-3.21378 -4.69706,-3.21378 h -6.31769 v 6.40009 z m 13.87144,-9.88856 q 0.6867,-1.26353 2.03265,-1.92277 1.34594,-0.65924 3.26871,-0.65924 v 2.55455 q -0.21974,-0.0275 -0.6043,-0.0275 -2.14252,0 -3.37859,1.291 -1.2086,1.26354 -1.2086,3.62581 v 7.2516 h -2.63694 v -14.55815 h 2.52707 z m 13.81652,-2.58201 q 3.02151,0 4.61466,1.48329 1.62063,1.48328 1.62063,4.42238 v 8.78982 h -2.49961 v -1.92277 q -0.65924,1.01632 -1.89531,1.56568 -1.2086,0.5219 -2.88416,0.5219 -2.44467,0 -3.92795,-1.18113 -1.45581,-1.18113 -1.45581,-3.10391 0,-1.92277 1.40087,-3.07644 1.40088,-1.18113 4.44985,-1.18113 h 4.17517 v -0.5219 q 0,-1.70302 -0.98886,-2.60947 -0.98885,-0.90646 -2.91163,-0.90646 -1.291,0 -2.52707,0.4395 -1.23607,0.41202 -2.08758,1.12619 l -1.09873,-1.97771 q 1.12619,-0.90645 2.69188,-1.37341 1.56569,-0.49443 3.32365,-0.49443 z m -0.6043,12.82765 q 1.51075,0 2.60948,-0.65923 1.09873,-0.68671 1.59316,-1.92278 v -2.03264 h -4.0653 q -3.35112,0 -3.35112,2.25239 0,1.09873 0.85152,1.7305 0.85151,0.63176 2.36226,0.63176 z m 15.90407,2.03265 q -1.78543,0 -3.43352,-0.46696 -1.64809,-0.49443 -2.58201,-1.23607 l 1.09872,-2.08758 q 0.96139,0.6867 2.3348,1.09873 1.37341,0.41202 2.77429,0.41202 3.46099,0 3.46099,-1.97771 0,-0.65924 -0.46696,-1.04379 -0.46696,-0.38456 -1.18113,-0.54937 -0.6867,-0.19227 -1.97771,-0.41202 -1.75796,-0.27468 -2.88416,-0.63177 -1.09873,-0.35708 -1.89531,-1.2086 -0.79657,-0.85151 -0.79657,-2.38973 0,-1.97771 1.64809,-3.15885 1.64809,-1.2086 4.42238,-1.2086 1.45581,0 2.91163,0.35709 1.45581,0.35709 2.38973,0.96139 l -1.1262,2.08758 q -1.78543,-1.15366 -4.20263,-1.15366 -1.67556,0 -2.55454,0.54936 -0.87899,0.54936 -0.87899,1.45582 0,0.71417 0.49443,1.12619 0.49443,0.41202 1.2086,0.6043 0.74164,0.19228 2.06012,0.43949 1.75796,0.30215 2.82922,0.65924 1.09873,0.32962 1.86784,1.15366 0.76911,0.82405 0.76911,2.30733 0,1.97771 -1.70303,3.15885 -1.67556,1.15366 -4.58719,1.15366 z m 9.5864,-14.72296 h 2.63695 v 14.55815 h -2.63695 z m 1.31848,-2.80175 q -0.76911,0 -1.29101,-0.49443 -0.49443,-0.49443 -0.49443,-1.2086 0,-0.71417 0.49443,-1.2086 0.5219,-0.5219 1.29101,-0.5219 0.76911,0 1.26353,0.49443 0.5219,0.46696 0.5219,1.18113 0,0.74165 -0.5219,1.26354 -0.49442,0.49443 -1.26353,0.49443 z m 6.34513,-3.0215 h 2.63694 v 20.3814 h -2.63694 z m 20.82087,13.18473 q 0,0.30215 -0.0549,0.79658 H 884.5191 q 0.24721,1.92277 1.67556,3.10391 1.45581,1.15366 3.59833,1.15366 2.60948,0 4.20264,-1.75796 l 1.45581,1.70303 q -0.98885,1.15366 -2.47214,1.75796 -1.45581,0.6043 -3.26871,0.6043 -2.30733,0 -4.09277,-0.93392 -1.78543,-0.96139 -2.77428,-2.66441 -0.96139,-1.70303 -0.96139,-3.84555 0,-2.11505 0.93392,-3.81808 0.96139,-1.70303 2.60948,-2.63695 1.67556,-0.96139 3.76314,-0.96139 2.08758,0 3.70821,0.96139 1.64809,0.93392 2.55454,2.63695 0.93392,1.70303 0.93392,3.90048 z m -7.19667,-5.27389 q -1.8953,0 -3.18631,1.15366 -1.26354,1.15367 -1.48328,3.0215 h 9.33919 q -0.21975,-1.84036 -1.51076,-2.99403 -1.26353,-1.18113 -3.15884,-1.18113 z m 10.84992,-2.08759 h 2.63694 v 14.55815 h -2.63694 z m 1.31847,-2.80175 q -0.76911,0 -1.291,-0.49443 -0.49443,-0.49443 -0.49443,-1.2086 0,-0.71417 0.49443,-1.2086 0.52189,-0.5219 1.291,-0.5219 0.76911,0 1.26354,0.49443 0.52189,0.46696 0.52189,1.18113 0,0.74165 -0.52189,1.26354 -0.49443,0.49443 -1.26354,0.49443 z m 8.87221,5.24642 q 0.6867,-1.26353 2.03264,-1.92277 1.34595,-0.65924 3.26872,-0.65924 v 2.55455 q -0.21975,-0.0275 -0.6043,-0.0275 -2.14252,0 -3.37859,1.291 -1.2086,1.26354 -1.2086,3.62581 v 7.2516 h -2.63695 v -14.55815 h 2.52708 z m 14.64058,12.27829 q -2.16999,0 -3.90049,-0.96139 -1.73049,-0.96138 -2.71935,-2.63694 -0.96139,-1.70303 -0.96139,-3.84555 0,-2.14252 0.96139,-3.81808 0.98886,-1.70303 2.71935,-2.63695 1.7305,-0.96139 3.90049,-0.96139 2.16998,0 3.87301,0.96139 1.7305,0.93392 2.69189,2.63695 0.98885,1.67556 0.98885,3.81808 0,2.14252 -0.98885,3.84555 -0.96139,1.67556 -2.69189,2.63694 -1.70303,0.96139 -3.87301,0.96139 z m 0,-2.30733 q 1.40088,0 2.4996,-0.63177 1.1262,-0.65923 1.75797,-1.8129 0.63177,-1.18113 0.63177,-2.69188 0,-1.51075 -0.63177,-2.66442 -0.63177,-1.18113 -1.75797,-1.8129 -1.09872,-0.63177 -2.4996,-0.63177 -1.40088,0 -2.52708,0.63177 -1.09873,0.63177 -1.75796,1.8129 -0.63177,1.15367 -0.63177,2.66442 0,1.51075 0.63177,2.69188 0.65923,1.15367 1.75796,1.8129 1.1262,0.63177 2.52708,0.63177 z"
         id="path1" /><path
         style="font-weight:500;font-family:Montserrat;-inkscape-font-specification:'Montserrat Medium';letter-spacing:0.131263px;word-spacing:0.166266px"
         d="m 466.23371,439.55964 v 20.38141 h -2.52708 v -2.30733 q -0.87898,1.2086 -2.22492,1.84037 -1.34594,0.63177 -2.96657,0.63177 -2.11505,0 -3.79061,-0.93392 -1.67556,-0.93392 -2.63695,-2.60948 -0.93392,-1.70303 -0.93392,-3.90048 0,-2.19746 0.93392,-3.87302 0.96139,-1.67556 2.63695,-2.60948 1.67556,-0.93392 3.79061,-0.93392 1.56569,0 2.88416,0.6043 1.31848,0.57683 2.19746,1.7305 v -8.02072 z m -7.49882,18.23889 q 1.37341,0 2.4996,-0.63177 1.1262,-0.65924 1.75797,-1.8129 0.63177,-1.18113 0.63177,-2.69188 0,-1.51075 -0.63177,-2.66442 -0.63177,-1.18113 -1.75797,-1.8129 -1.12619,-0.63177 -2.4996,-0.63177 -1.40088,0 -2.52708,0.63177 -1.09872,0.63177 -1.75796,1.8129 -0.63177,1.15367 -0.63177,2.66442 0,1.51075 0.63177,2.69188 0.65924,1.15366 1.75796,1.8129 1.1262,0.63177 2.52708,0.63177 z m 25.78654,-5.05415 q 0,0.30215 -0.0549,0.79658 h -11.81132 q 0.24721,1.92277 1.67556,3.10391 1.45581,1.15366 3.59833,1.15366 2.60948,0 4.20264,-1.75796 l 1.45581,1.70302 q -0.98885,1.15367 -2.47214,1.75797 -1.45581,0.6043 -3.26871,0.6043 -2.30733,0 -4.09276,-0.93392 -1.78544,-0.96139 -2.77429,-2.66442 -0.96139,-1.70302 -0.96139,-3.84554 0,-2.11506 0.93392,-3.81808 0.96139,-1.70303 2.60948,-2.63695 1.67556,-0.96139 3.76314,-0.96139 2.08758,0 3.70821,0.96139 1.64809,0.93392 2.55454,2.63695 0.93392,1.70302 0.93392,3.90048 z m -7.19667,-5.27389 q -1.8953,0 -3.18631,1.15366 -1.26354,1.15367 -1.48328,3.0215 h 9.33919 q -0.21975,-1.84037 -1.51076,-2.99403 -1.26353,-1.18113 -3.15884,-1.18113 z m 36.87906,12.47056 -0.0275,-14.00878 -6.94946,11.67398 h -1.26353 l -6.94946,-11.59158 v 13.92638 h -2.63694 v -19.22774 h 2.25239 l 8.02071,13.51435 7.91084,-13.51435 h 2.2524 l 0.0275,19.22774 z m 14.38725,0.16481 q -2.16998,0 -3.90048,-0.96139 -1.7305,-0.96139 -2.71935,-2.63695 -0.96139,-1.70302 -0.96139,-3.84554 0,-2.14252 0.96139,-3.81808 0.98885,-1.70303 2.71935,-2.63695 1.7305,-0.96139 3.90048,-0.96139 2.16999,0 3.87302,0.96139 1.7305,0.93392 2.69188,2.63695 0.98886,1.67556 0.98886,3.81808 0,2.14252 -0.98886,3.84554 -0.96138,1.67556 -2.69188,2.63695 -1.70303,0.96139 -3.87302,0.96139 z m 0,-2.30733 q 1.40088,0 2.49961,-0.63177 1.1262,-0.65924 1.75796,-1.8129 0.63177,-1.18113 0.63177,-2.69188 0,-1.51075 -0.63177,-2.66442 -0.63176,-1.18113 -1.75796,-1.8129 -1.09873,-0.63177 -2.49961,-0.63177 -1.40087,0 -2.52707,0.63177 -1.09873,0.63177 -1.75797,1.8129 -0.63176,1.15367 -0.63176,2.66442 0,1.51075 0.63176,2.69188 0.65924,1.15366 1.75797,1.8129 1.1262,0.63177 2.52707,0.63177 z m 25.0724,-18.23889 v 20.38141 h -2.52707 v -2.30733 q -0.87899,1.2086 -2.22493,1.84037 -1.34594,0.63177 -2.96656,0.63177 -2.11506,0 -3.79062,-0.93392 -1.67556,-0.93392 -2.63694,-2.60948 -0.93392,-1.70303 -0.93392,-3.90048 0,-2.19746 0.93392,-3.87302 0.96138,-1.67556 2.63694,-2.60948 1.67556,-0.93392 3.79062,-0.93392 1.56568,0 2.88416,0.6043 1.31847,0.57683 2.19745,1.7305 v -8.02072 z m -7.49882,18.23889 q 1.37341,0 2.49961,-0.63177 1.12619,-0.65924 1.75796,-1.8129 0.63177,-1.18113 0.63177,-2.69188 0,-1.51075 -0.63177,-2.66442 -0.63177,-1.18113 -1.75796,-1.8129 -1.1262,-0.63177 -2.49961,-0.63177 -1.40088,0 -2.52707,0.63177 -1.09873,0.63177 -1.75797,1.8129 -0.63177,1.15367 -0.63177,2.66442 0,1.51075 0.63177,2.69188 0.65924,1.15366 1.75797,1.8129 1.12619,0.63177 2.52707,0.63177 z m 25.78654,-5.05415 q 0,0.30215 -0.0549,0.79658 h -11.81133 q 0.24721,1.92277 1.67556,3.10391 1.45582,1.15366 3.59834,1.15366 2.60947,0 4.20263,-1.75796 l 1.45581,1.70302 q -0.98885,1.15367 -2.47213,1.75797 -1.45582,0.6043 -3.26872,0.6043 -2.30733,0 -4.09276,-0.93392 -1.78543,-0.96139 -2.77429,-2.66442 -0.96139,-1.70302 -0.96139,-3.84554 0,-2.11506 0.93392,-3.81808 0.96139,-1.70303 2.60948,-2.63695 1.67556,-0.96139 3.76314,-0.96139 2.08759,0 3.70821,0.96139 1.64809,0.93392 2.55454,2.63695 0.93392,1.70302 0.93392,3.90048 z m -7.19667,-5.27389 q -1.8953,0 -3.18631,1.15366 -1.26353,1.15367 -1.48328,3.0215 h 9.33919 q -0.21975,-1.84037 -1.51075,-2.99403 -1.26354,-1.18113 -3.15885,-1.18113 z m 10.98119,-7.91085 h 2.63695 v 20.38141 h -2.63695 z m 14.03015,20.54622 q -2.16998,0 -3.90048,-0.96139 -1.7305,-0.96139 -2.71935,-2.63695 -0.96139,-1.70302 -0.96139,-3.84554 0,-2.14252 0.96139,-3.81808 0.98885,-1.70303 2.71935,-2.63695 1.7305,-0.96139 3.90048,-0.96139 2.16999,0 3.87302,0.96139 1.7305,0.93392 2.69188,2.63695 0.98886,1.67556 0.98886,3.81808 0,2.14252 -0.98886,3.84554 -0.96138,1.67556 -2.69188,2.63695 -1.70303,0.96139 -3.87302,0.96139 z m 0,-2.30733 q 1.40088,0 2.49961,-0.63177 1.1262,-0.65924 1.75796,-1.8129 0.63177,-1.18113 0.63177,-2.69188 0,-1.51075 -0.63177,-2.66442 -0.63176,-1.18113 -1.75796,-1.8129 -1.09873,-0.63177 -2.49961,-0.63177 -1.40088,0 -2.52707,0.63177 -1.09873,0.63177 -1.75797,1.8129 -0.63176,1.15367 -0.63176,2.66442 0,1.51075 0.63176,2.69188 0.65924,1.15366 1.75797,1.8129 1.12619,0.63177 2.52707,0.63177 z m 15.51347,2.30733 q -1.78544,0 -3.43353,-0.46696 -1.64809,-0.49443 -2.58201,-1.23607 l 1.09873,-2.08758 q 0.96139,0.6867 2.3348,1.09873 1.37341,0.41202 2.77428,0.41202 3.461,0 3.461,-1.97771 0,-0.65924 -0.46696,-1.04379 -0.46696,-0.38456 -1.18114,-0.54937 -0.6867,-0.19228 -1.97771,-0.41202 -1.75796,-0.27468 -2.88416,-0.63177 -1.09872,-0.35709 -1.8953,-1.2086 -0.79658,-0.85151 -0.79658,-2.38973 0,-1.97771 1.64809,-3.15885 1.64809,-1.2086 4.42238,-1.2086 1.45582,0 2.91163,0.35709 1.45582,0.35709 2.38973,0.96139 l -1.12619,2.08758 q -1.78543,-1.15367 -4.20264,-1.15367 -1.67556,0 -2.55454,0.54937 -0.87898,0.54936 -0.87898,1.45581 0,0.71418 0.49443,1.1262 0.49442,0.41202 1.2086,0.6043 0.74164,0.19228 2.06011,0.43949 1.75797,0.30215 2.82923,0.65924 1.09872,0.32962 1.86783,1.15366 0.76911,0.82405 0.76911,2.30733 0,1.97771 -1.70302,3.15884 -1.67556,1.15367 -4.58719,1.15367 z m 30.72618,-10.13577 q 1.67556,0.46696 2.63694,1.70303 0.96139,1.2086 0.96139,3.07644 0,2.49961 -1.89531,3.84555 -1.86783,1.34594 -5.46617,1.34594 h -9.17438 v -19.22774 h 8.62502 q 3.29618,0 5.08162,1.31847 1.8129,1.31848 1.8129,3.65327 0,1.51075 -0.71418,2.60948 -0.6867,1.09873 -1.86783,1.67556 z m -10.19071,-7.03186 v 6.15288 h 5.63098 q 2.11506,0 3.24125,-0.76911 1.15367,-0.79658 1.15367,-2.30733 0,-1.51075 -1.15367,-2.27986 -1.12619,-0.79658 -3.24125,-0.79658 z m 6.31769,14.7779 q 2.3348,0 3.51593,-0.76911 1.18113,-0.76911 1.18113,-2.41721 0,-3.21378 -4.69706,-3.21378 h -6.31769 v 6.4001 z m 16.777,-12.47057 q 3.0215,0 4.61466,1.48329 1.62062,1.48328 1.62062,4.42238 v 8.78982 h -2.49961 v -1.92277 q -0.65923,1.01632 -1.8953,1.56568 -1.2086,0.5219 -2.88416,0.5219 -2.44467,0 -3.92795,-1.18113 -1.45582,-1.18114 -1.45582,-3.10391 0,-1.92277 1.40088,-3.07644 1.40088,-1.18113 4.44985,-1.18113 h 4.17516 v -0.5219 q 0,-1.70303 -0.98885,-2.60948 -0.98886,-0.90645 -2.91163,-0.90645 -1.29101,0 -2.52708,0.43949 -1.23606,0.41203 -2.08758,1.1262 l -1.09873,-1.97771 q 1.1262,-0.90645 2.69189,-1.37341 1.56568,-0.49443 3.32365,-0.49443 z m -0.6043,12.82765 q 1.51075,0 2.60948,-0.65923 1.09873,-0.68671 1.59315,-1.92278 v -2.03265 h -4.06529 q -3.35112,0 -3.35112,2.2524 0,1.09872 0.85151,1.73049 0.85152,0.63177 2.36227,0.63177 z m 16.03534,2.03265 q -1.78543,0 -3.43353,-0.46696 -1.64809,-0.49443 -2.58201,-1.23607 l 1.09873,-2.08758 q 0.96139,0.6867 2.3348,1.09873 1.37341,0.41202 2.77429,0.41202 3.46099,0 3.46099,-1.97771 0,-0.65924 -0.46696,-1.04379 -0.46696,-0.38456 -1.18113,-0.54937 -0.68671,-0.19228 -1.97771,-0.41202 -1.75797,-0.27468 -2.88416,-0.63177 -1.09873,-0.35709 -1.89531,-1.2086 -0.79658,-0.85151 -0.79658,-2.38973 0,-1.97771 1.64809,-3.15885 1.6481,-1.2086 4.42238,-1.2086 1.45582,0 2.91163,0.35709 1.45582,0.35709 2.38974,0.96139 l -1.1262,2.08758 q -1.78543,-1.15367 -4.20263,-1.15367 -1.67556,0 -2.55455,0.54937 -0.87898,0.54936 -0.87898,1.45581 0,0.71418 0.49443,1.1262 0.49443,0.41202 1.2086,0.6043 0.74164,0.19228 2.06012,0.43949 1.75796,0.30215 2.82922,0.65924 1.09873,0.32962 1.86784,1.15366 0.76911,0.82405 0.76911,2.30733 0,1.97771 -1.70303,3.15884 -1.67556,1.15367 -4.58719,1.15367 z m 22.87491,-7.36148 q 0,0.30215 -0.0549,0.79658 h -11.81133 q 0.24722,1.92277 1.67557,3.10391 1.45581,1.15366 3.59833,1.15366 2.60948,0 4.20263,-1.75796 l 1.45582,1.70302 q -0.98886,1.15367 -2.47214,1.75797 -1.45581,0.6043 -3.26872,0.6043 -2.30732,0 -4.09276,-0.93392 -1.78543,-0.96139 -2.77429,-2.66442 -0.96138,-1.70302 -0.96138,-3.84554 0,-2.11506 0.93392,-3.81808 0.96138,-1.70303 2.60948,-2.63695 1.67556,-0.96139 3.76314,-0.96139 2.08758,0 3.70821,0.96139 1.64809,0.93392 2.55454,2.63695 0.93392,1.70302 0.93392,3.90048 z m -7.19667,-5.27389 q -1.89531,0 -3.18631,1.15366 -1.26354,1.15367 -1.48329,3.0215 h 9.33919 q -0.21974,-1.84037 -1.51075,-2.99403 -1.26354,-1.18113 -3.15884,-1.18113 z m 15.87055,-2.22493 q 3.0215,0 4.61466,1.48329 1.62062,1.48328 1.62062,4.42238 v 8.78982 h -2.49961 v -1.92277 q -0.65923,1.01632 -1.8953,1.56568 -1.2086,0.5219 -2.88416,0.5219 -2.44467,0 -3.92796,-1.18113 -1.45581,-1.18114 -1.45581,-3.10391 0,-1.92277 1.40088,-3.07644 1.40087,-1.18113 4.44985,-1.18113 h 4.17516 v -0.5219 q 0,-1.70303 -0.98885,-2.60948 -0.98886,-0.90645 -2.91163,-0.90645 -1.29101,0 -2.52708,0.43949 -1.23607,0.41203 -2.08758,1.1262 l -1.09873,-1.97771 q 1.1262,-0.90645 2.69189,-1.37341 1.56568,-0.49443 3.32365,-0.49443 z m -0.6043,12.82765 q 1.51075,0 2.60948,-0.65923 1.09872,-0.68671 1.59315,-1.92278 v -2.03265 h -4.06529 q -3.35112,0 -3.35112,2.2524 0,1.09872 0.85151,1.73049 0.85152,0.63177 2.36227,0.63177 z m 25.67668,-18.51357 v 20.38141 h -2.52707 v -2.30733 q -0.87898,1.2086 -2.22493,1.84037 -1.34594,0.63177 -2.96656,0.63177 -2.11505,0 -3.79061,-0.93392 -1.67556,-0.93392 -2.63695,-2.60948 -0.93392,-1.70303 -0.93392,-3.90048 0,-2.19746 0.93392,-3.87302 0.96139,-1.67556 2.63695,-2.60948 1.67556,-0.93392 3.79061,-0.93392 1.56569,0 2.88416,0.6043 1.31847,0.57683 2.19746,1.7305 v -8.02072 z m -7.49882,18.23889 q 1.37341,0 2.49961,-0.63177 1.1262,-0.65924 1.75797,-1.8129 0.63176,-1.18113 0.63176,-2.69188 0,-1.51075 -0.63176,-2.66442 -0.63177,-1.18113 -1.75797,-1.8129 -1.1262,-0.63177 -2.49961,-0.63177 -1.40087,0 -2.52707,0.63177 -1.09873,0.63177 -1.75796,1.8129 -0.63177,1.15367 -0.63177,2.66442 0,1.51075 0.63177,2.69188 0.65923,1.15366 1.75796,1.8129 1.1262,0.63177 2.52707,0.63177 z m 18.86457,2.30733 q -2.16999,0 -3.90049,-0.96139 -1.73049,-0.96139 -2.71935,-2.63695 -0.96139,-1.70302 -0.96139,-3.84554 0,-2.14252 0.96139,-3.81808 0.98886,-1.70303 2.71935,-2.63695 1.7305,-0.96139 3.90049,-0.96139 2.16999,0 3.87301,0.96139 1.7305,0.93392 2.69189,2.63695 0.98885,1.67556 0.98885,3.81808 0,2.14252 -0.98885,3.84554 -0.96139,1.67556 -2.69189,2.63695 -1.70302,0.96139 -3.87301,0.96139 z m 0,-2.30733 q 1.40088,0 2.4996,-0.63177 1.1262,-0.65924 1.75797,-1.8129 0.63177,-1.18113 0.63177,-2.69188 0,-1.51075 -0.63177,-2.66442 -0.63177,-1.18113 -1.75797,-1.8129 -1.09872,-0.63177 -2.4996,-0.63177 -1.40088,0 -2.52708,0.63177 -1.09872,0.63177 -1.75796,1.8129 -0.63177,1.15367 -0.63177,2.66442 0,1.51075 0.63177,2.69188 0.65924,1.15366 1.75796,1.8129 1.1262,0.63177 2.52708,0.63177 z m 15.51346,2.30733 q -1.78543,0 -3.43352,-0.46696 -1.6481,-0.49443 -2.58202,-1.23607 l 1.09873,-2.08758 q 0.96139,0.6867 2.3348,1.09873 1.37341,0.41202 2.77429,0.41202 3.46099,0 3.46099,-1.97771 0,-0.65924 -0.46696,-1.04379 -0.46696,-0.38456 -1.18113,-0.54937 -0.68671,-0.19228 -1.97771,-0.41202 -1.75797,-0.27468 -2.88416,-0.63177 -1.09873,-0.35709 -1.89531,-1.2086 -0.79658,-0.85151 -0.79658,-2.38973 0,-1.97771 1.6481,-3.15885 1.64809,-1.2086 4.42238,-1.2086 1.45581,0 2.91163,0.35709 1.45581,0.35709 2.38973,0.96139 l -1.1262,2.08758 q -1.78543,-1.15367 -4.20263,-1.15367 -1.67556,0 -2.55454,0.54937 -0.87899,0.54936 -0.87899,1.45581 0,0.71418 0.49443,1.1262 0.49443,0.41202 1.2086,0.6043 0.74164,0.19228 2.06012,0.43949 1.75796,0.30215 2.82922,0.65924 1.09873,0.32962 1.86784,1.15366 0.76911,0.82405 0.76911,2.30733 0,1.97771 -1.70303,3.15884 -1.67556,1.15367 -4.58719,1.15367 z m 30.56136,-7.36148 q 0,0.30215 -0.0549,0.79658 H 766.536 q 0.24722,1.92277 1.67556,3.10391 1.45582,1.15366 3.59834,1.15366 2.60948,0 4.20263,-1.75796 l 1.45582,1.70302 q -0.98886,1.15367 -2.47214,1.75797 -1.45582,0.6043 -3.26872,0.6043 -2.30733,0 -4.09276,-0.93392 -1.78543,-0.96139 -2.77429,-2.66442 -0.96138,-1.70302 -0.96138,-3.84554 0,-2.11506 0.93392,-3.81808 0.96138,-1.70303 2.60947,-2.63695 1.67556,-0.96139 3.76315,-0.96139 2.08758,0 3.7082,0.96139 1.6481,0.93392 2.55455,2.63695 0.93392,1.70302 0.93392,3.90048 z m -7.19667,-5.27389 q -1.89531,0 -3.18631,1.15366 -1.26354,1.15367 -1.48329,3.0215 h 9.33919 q -0.21974,-1.84037 -1.51075,-2.99403 -1.26354,-1.18113 -3.15884,-1.18113 z m 29.19262,-2.22493 q 2.74682,0 4.33997,1.59316 1.62063,1.59315 1.62063,4.72453 v 8.3778 h -2.63695 v -8.07565 q 0,-2.11505 -0.98885,-3.18631 -0.96139,-1.07126 -2.77429,-1.07126 -2.00518,0 -3.18631,1.26353 -1.18114,1.23607 -1.18114,3.57087 v 7.49882 h -2.63694 v -8.07565 q 0,-2.11505 -0.98886,-3.18631 -0.96139,-1.07126 -2.77429,-1.07126 -2.00518,0 -3.18631,1.26353 -1.18113,1.23607 -1.18113,3.57087 v 7.49882 H 782.1868 V 445.3829 h 2.52708 v 2.16999 q 0.79657,-1.1262 2.08758,-1.70303 1.291,-0.6043 2.9391,-0.6043 1.70302,0 3.0215,0.68671 1.31847,0.6867 2.03265,2.00518 0.82404,-1.26354 2.27986,-1.97771 1.48328,-0.71418 3.32365,-0.71418 z m 31.27552,9.88855 h -10.21817 l -2.11506,4.80694 h -2.82922 l 8.70742,-19.22774 h 2.71935 l 8.73489,19.22774 h -2.88416 z m -0.96139,-2.19745 -4.1477,-9.42159 -4.1477,9.42159 z m 22.35307,-7.55376 v 12.58044 q 0,3.81808 -1.89531,5.63098 -1.8953,1.84037 -5.65845,1.84037 -2.06011,0 -3.92795,-0.57683 -1.86784,-0.54937 -3.0215,-1.59316 l 1.26354,-2.03264 q 1.01632,0.87898 2.4996,1.37341 1.51075,0.52189 3.10391,0.52189 2.55454,0 3.76314,-1.2086 1.23607,-1.2086 1.23607,-3.68074 v -1.15366 q -0.93392,1.12619 -2.30733,1.70303 -1.34594,0.54936 -2.93909,0.54936 -2.08759,0 -3.79062,-0.87898 -1.67556,-0.90645 -2.63694,-2.49961 -0.96139,-1.62062 -0.96139,-3.68074 0,-2.06011 0.96139,-3.65327 0.96138,-1.62062 2.63694,-2.49961 1.70303,-0.87898 3.79062,-0.87898 1.64809,0 3.04897,0.6043 1.42834,0.6043 2.33479,1.78544 v -2.2524 z m -7.58122,11.64652 q 1.42834,0 2.55454,-0.6043 1.15366,-0.6043 1.78543,-1.67556 0.65924,-1.09873 0.65924,-2.47214 0,-2.11505 -1.40088,-3.40606 -1.40088,-1.31847 -3.59833,-1.31847 -2.22493,0 -3.62581,1.31847 -1.40088,1.29101 -1.40088,3.40606 0,1.37341 0.63177,2.47214 0.65924,1.07126 1.78544,1.67556 1.15366,0.6043 2.60948,0.6043 z m 25.89646,-4.28504 q 0,0.30215 -0.0549,0.79658 H 859.5144 q 0.24721,1.92277 1.67556,3.10391 1.45581,1.15366 3.59833,1.15366 2.60948,0 4.20264,-1.75796 l 1.45581,1.70302 q -0.98885,1.15367 -2.47214,1.75797 -1.45581,0.6043 -3.26871,0.6043 -2.30733,0 -4.09276,-0.93392 -1.78544,-0.96139 -2.77429,-2.66442 -0.96139,-1.70302 -0.96139,-3.84554 0,-2.11506 0.93392,-3.81808 0.96139,-1.70303 2.60948,-2.63695 1.67556,-0.96139 3.76314,-0.96139 2.08758,0 3.70821,0.96139 1.64809,0.93392 2.55454,2.63695 0.93392,1.70302 0.93392,3.90048 z m -7.19667,-5.27389 q -1.8953,0 -3.18631,1.15366 -1.26354,1.15367 -1.48328,3.0215 h 9.33919 q -0.21975,-1.84037 -1.51076,-2.99403 -1.26353,-1.18113 -3.15884,-1.18113 z m 18.75467,-2.22493 q 2.77429,0 4.39492,1.62063 1.64809,1.59315 1.64809,4.69706 v 8.3778 h -2.63695 v -8.07565 q 0,-2.11505 -1.01632,-3.18631 -1.01633,-1.07126 -2.91163,-1.07126 -2.14252,0 -3.37859,1.26353 -1.23607,1.23607 -1.23607,3.57087 v 7.49882 h -2.63695 V 445.3829 h 2.52708 v 2.19746 q 0.79658,-1.1262 2.14252,-1.7305 1.37341,-0.6043 3.1039,-0.6043 z m 19.24913,13.84398 q -0.57684,0.49442 -1.42835,0.76911 -0.85152,0.24721 -1.75797,0.24721 -2.19745,0 -3.40605,-1.18113 -1.2086,-1.18114 -1.2086,-3.37859 v -7.99325 h -2.47214 v -2.16999 h 2.47214 v -3.18631 h 2.63694 v 3.18631 h 4.17517 v 2.16999 h -4.17517 v 7.88337 q 0,1.18114 0.57684,1.81291 0.6043,0.63176 1.70302,0.63176 1.2086,0 2.06012,-0.6867 z m 15.98041,-6.34516 q 0,0.30215 -0.0549,0.79658 h -11.81133 q 0.24722,1.92277 1.67556,3.10391 1.45582,1.15366 3.59834,1.15366 2.60948,0 4.20263,-1.75796 l 1.45582,1.70302 q -0.98886,1.15367 -2.47214,1.75797 -1.45582,0.6043 -3.26872,0.6043 -2.30733,0 -4.09276,-0.93392 -1.78543,-0.96139 -2.77429,-2.66442 -0.96138,-1.70302 -0.96138,-3.84554 0,-2.11506 0.93392,-3.81808 0.96138,-1.70303 2.60947,-2.63695 1.67556,-0.96139 3.76315,-0.96139 2.08758,0 3.7082,0.96139 1.6481,0.93392 2.55455,2.63695 0.93392,1.70302 0.93392,3.90048 z m -7.19667,-5.27389 q -1.89531,0 -3.18631,1.15366 -1.26354,1.15367 -1.48329,3.0215 h 9.33919 q -0.21974,-1.84037 -1.51075,-2.99403 -1.26354,-1.18113 -3.15884,-1.18113 z m 15.15637,12.63537 q -1.78544,0 -3.43353,-0.46696 -1.64809,-0.49443 -2.58201,-1.23607 l 1.09873,-2.08758 q 0.96139,0.6867 2.3348,1.09873 1.37341,0.41202 2.77429,0.41202 3.46099,0 3.46099,-1.97771 0,-0.65924 -0.46696,-1.04379 -0.46696,-0.38456 -1.18113,-0.54937 -0.68671,-0.19228 -1.97771,-0.41202 -1.75797,-0.27468 -2.88417,-0.63177 -1.09872,-0.35709 -1.8953,-1.2086 -0.79658,-0.85151 -0.79658,-2.38973 0,-1.97771 1.64809,-3.15885 1.6481,-1.2086 4.42238,-1.2086 1.45582,0 2.91163,0.35709 1.45582,0.35709 2.38974,0.96139 l -1.1262,2.08758 q -1.78543,-1.15367 -4.20263,-1.15367 -1.67556,0 -2.55455,0.54937 -0.87898,0.54936 -0.87898,1.45581 0,0.71418 0.49443,1.1262 0.49443,0.41202 1.2086,0.6043 0.74164,0.19228 2.06011,0.43949 1.75797,0.30215 2.82923,0.65924 1.09873,0.32962 1.86784,1.15366 0.76911,0.82405 0.76911,2.30733 0,1.97771 -1.70303,3.15884 -1.67556,1.15367 -4.58719,1.15367 z"
         id="path2" /></g><g
       id="text1"
       style="font-weight:bold;font-size:130.085px;font-family:Oswald;-inkscape-font-specification:'Oswald Bold';letter-spacing:0px;word-spacing:0px;stroke-width:2.43908;stroke-linecap:round;stroke-miterlimit:0"
       inkscape:label="SIMBRA"
       aria-label="SIMBRA"><path
         style="font-weight:800;font-family:Montserrat;-inkscape-font-specification:'Montserrat Ultra-Bold'"
         d="m 488.37508,201.81045 q -11.05722,0 -21.46402,-2.73179 Q 456.50425,196.34688 450,191.7939 l 8.45553,-18.99241 q 6.11399,4.03264 14.17927,6.50425 8.06527,2.47162 15.87037,2.47162 14.82969,0 14.82969,-7.41485 0,-3.90255 -4.29281,-5.72374 -4.16272,-1.95127 -13.52884,-4.03263 -10.27671,-2.21145 -17.17122,-4.68306 -6.89451,-2.6017 -11.83774,-8.19536 -4.94323,-5.59365 -4.94323,-15.08986 0,-8.32544 4.55298,-14.95978 4.55297,-6.76442 13.52884,-10.66697 9.10595,-3.90255 22.24454,-3.90255 8.97586,0 17.69156,2.08136 8.71569,1.95128 15.35003,5.85383 l -7.93519,19.12249 q -13.0085,-7.02459 -25.23649,-7.02459 -7.67501,0 -11.18731,2.34153 -3.51229,2.21145 -3.51229,5.85383 0,3.64238 4.16272,5.46357 4.16272,1.82119 13.39875,3.77246 10.4068,2.21145 17.17122,4.81315 6.89451,2.47162 11.83774,8.06527 5.07331,5.46357 5.07331,14.95978 0,8.19535 -4.55297,14.82969 -4.55298,6.63433 -13.65893,10.66697 -9.10595,3.90255 -22.11445,3.90255 z"
         id="path3" /><path
         style="font-weight:800;font-family:Montserrat;-inkscape-font-specification:'Montserrat Ultra-Bold'"
         d="m 540.53909,108.92975 h 25.75683 v 91.05951 h -25.75683 z"
         id="path4" /><path
         style="font-weight:800;font-family:Montserrat;-inkscape-font-specification:'Montserrat Ultra-Bold'"
         d="m 666.85172,199.98926 -0.26017,-48.26154 -23.4153,39.28567 h -11.44748 l -23.28522,-37.98482 v 46.96069 h -23.80556 v -91.05951 h 21.20386 l 32.00091,52.55435 31.2204,-52.55435 h 21.20386 l 0.26017,91.05951 z"
         id="path5" /><path
         style="font-weight:800;font-family:Montserrat;-inkscape-font-specification:'Montserrat Ultra-Bold'"
         d="m 778.72489,152.50823 q 7.8051,2.73179 12.22799,8.58561 4.42289,5.72374 4.42289,13.9191 0,11.96782 -9.62629,18.47207 -9.62629,6.50425 -27.83819,6.50425 h -49.17213 v -91.05951 h 46.57043 q 17.43139,0 26.53734,6.50425 9.10595,6.37417 9.10595,17.30131 0,6.50425 -3.25212,11.70765 -3.12204,5.07332 -8.97587,8.06527 z m -44.48907,-24.97632 v 17.56147 h 17.69156 q 13.0085,0 13.0085,-8.84578 0,-8.71569 -13.0085,-8.71569 z m 21.59411,53.85519 q 13.52884,0 13.52884,-9.23603 0,-9.23604 -13.52884,-9.23604 h -21.59411 v 18.47207 z"
         id="path6" /><path
         style="font-weight:800;font-family:Montserrat;-inkscape-font-specification:'Montserrat Ultra-Bold'"
         d="m 848.58042,175.79345 h -14.04918 v 24.19581 h -25.75683 v -91.05951 h 41.6272 q 12.35808,0 21.46403,4.16272 9.10595,4.03264 14.04918,11.70765 4.94323,7.54493 4.94323,17.82165 0,9.88646 -4.68306,17.30131 -4.55298,7.28476 -13.13859,11.44748 l 19.64284,28.6187 h -27.57802 z m 16.26063,-33.17168 q 0,-6.37417 -4.03264,-9.88646 -4.03264,-3.5123 -11.96782,-3.5123 h -14.30935 v 26.66743 h 14.30935 q 7.93518,0 11.96782,-3.38221 4.03264,-3.51229 4.03264,-9.88646 z m 101.2061,39.67593 h -38.50516 l -7.15467,17.69156 h -26.27717 l 40.19626,-91.05951 h 25.36658 l 40.32635,91.05951 h -26.79751 z m -7.54493,-18.99241 -11.70765,-29.13905 -11.70765,29.13905 z"
         id="path7" /></g></g><metadata
     id="metadata1"><rdf:RDF><cc:Work
         rdf:about=""><cc:license
           rdf:resource="http://creativecommons.org/licenses/by-nc-sa/4.0/" /><dc:creator><cc:Agent><dc:title>Daniel Vartanian</dc:title></cc:Agent></dc:creator><dc:title>Logo SIMBRA</dc:title></cc:Work><cc:License
         rdf:about="http://creativecommons.org/licenses/by-nc-sa/4.0/"><cc:permits
           rdf:resource="http://creativecommons.org/ns#Reproduction" /><cc:permits
           rdf:resource="http://creativecommons.org/ns#Distribution" /><cc:requires
           rdf:resource="http://creativecommons.org/ns#Notice" /><cc:requires
           rdf:resource="http://creativecommons.org/ns#Attribution" /><cc:prohibits
           rdf:resource="http://creativecommons.org/ns#CommercialUse" /><cc:permits
           rdf:resource="http://creativecommons.org/ns#DerivativeWorks" /><cc:requires
           rdf:resource="http://creativecommons.org/ns#ShareAlike" /></cc:License></rdf:RDF></metadata><g
     inkscape:groupmode="layer"
     id="layer12"
     inkscape:label="Symbol"
     style="display:inline"><g
       inkscape:groupmode="layer"
       id="layer17"
       inkscape:label="Background"
       style="display:inline"><path
         id="circle4-9-3"
         style="display:inline;fill:#ffd000;stroke-width:1.34202;stroke-linecap:square;stroke-miterlimit:3"
         inkscape:label="Background"
         d="M 400,200 A 200,200 0 0 1 200,400 200,200 0 0 1 0,200 200,200 0 0 1 200,0 200,200 0 0 1 400,200 Z" /></g><g
       inkscape:groupmode="layer"
       id="layer16"
       inkscape:label="Brazil"><path
         d="m 178.02826,331.75151 5.84526,6.22863 11.68415,6.43634 8.0299,6.32632 4.28935,4.71326 2.30465,3.72157 8.7649,-10.24688 8.60275,-10.29977 6.94838,-9.50504 7.74089,-8.43998 1.06351,-13.08229 3.80919,-12.2048 10.2264,-7.53734 11.16645,-5.85943 12.80476,-4.03364 13.67664,-2.79718 6.94892,-10.5339 6.20516,-11.31972 3.85508,-11.26778 4.89592,-11.43888 -0.62036,-13.13851 -0.52924,-10.34002 7.38136,-11.01451 8.19368,-10.84509 6.5704,-8.23215 6.43816,-8.34768 3.15688,-10.25944 -1.30052,-11.89485 -6.58816,-9.37451 -9.9004,-1.97264 -7.83716,-5.64797 -7.94476,-7.48043 -7.77752,-1.92077 -10.37676,-0.37352 -9.06584,-2.30042 -8.37184,-1.46968 -7.29193,-7.23355 -10.36992,-4.08534 -12.96689,-3.54455 -11.16126,-4.184471 -3.40878,-11.427791 -5.91294,-5.57506 -1.9435,-6.330664 -3.51301,-8.543176 -4.73178,3.10848 -7.36792,9.09054 -12.0509,1.369784 -11.84283,-0.06216 -11.56556,3.972584 -9.21654,2.382636 -7.17353,-3.993352 -0.23283,-11.633404 -1.24688,-11.190596 -7.95788,3.19582 -9.11468,2.1792 -10.42619,2.902019 -8.04532,-0.768539 3.77252,7.884312 3.74041,7.507992 -12.1607,8.292208 -11.52898,-1.613632 -4.708686,-6.175212 -6.45237,0.700292 -9.5468,2.19284 0.650976,6.636452 -4.750952,4.936211 2.452192,6.248127 1.742028,13.68998 -4.582424,12.07475 -12.347132,4.50139 -10.319936,7.37603 -4.197888,12.81657 2.33146,12.23159 4.884552,7.08386 8.822556,4.38946 6.514052,-0.60392 0.48042,6.97822 12.114608,0.38167 12.260376,-3.2625 11.073708,-4.7811 3.55132,8.02727 6.29197,10.47397 13.36587,5.40042 11.41365,4.7557 7.22997,9.16031 2.34443,10.8541 10.76326,2.77843 4.56917,7.61055 3.06709,7.33099 -2.80279,12.81428 2.37933,14.08041 8.82311,3.12115 7.72619,8.81835 5.48894,5.82999 4.02737,6.58575 2.36375,8.42094 0.85889,9.43987 -8.36502,4.96388 -7.78735,4.0035 -6.35362,8.02543 z"
         style="display:inline;fill:#183eff;fill-rule:nonzero;stroke:#000000;stroke-width:2.9878;stroke-linecap:square;stroke-linejoin:miter;stroke-dasharray:none"
         id="path24-9-0"
         inkscape:label="Brazil"
         inkscape:linked-fill="path7" /></g><g
       inkscape:groupmode="layer"
       id="layer14"
       inkscape:label="Links"><path
         style="baseline-shift:baseline;display:inline;overflow:visible;vector-effect:none;fill:#ffffff;stroke-width:0.398374;stroke-linecap:square;stroke-miterlimit:0;enable-background:accumulate;stop-color:#000000"
         d="m 296.5422,157.75791 v 1.4939 c 0,24.79873 -2.50368,48.58451 -8.6296,65.98213 -3.06296,8.6988 -7.02824,15.78188 -11.93407,20.62826 -4.90584,4.84637 -10.69202,7.50529 -17.77973,7.50529 h -1.49391 v 2.98779 h 1.49391 c 7.85126,0 14.51425,-3.06769 19.87897,-8.36738 5.36471,-5.29969 9.49139,-12.78214 12.65303,-21.76114 6.32324,-17.95802 8.7992,-41.97703 8.7992,-66.97495 v -1.4939 z"
         id="path12-8"
         inkscape:label="Link Segment 3" /><path
         style="baseline-shift:baseline;display:inline;overflow:visible;vector-effect:none;fill:#ffffff;stroke-width:0.398374;stroke-linecap:square;stroke-miterlimit:0;enable-background:accumulate;stop-color:#000000"
         d="m 118.76816,135.84739 -1.4939,1.49389 c 0,5.14566 3.19898,11.23742 8.14408,17.7992 4.9451,6.56177 11.73288,13.53067 19.27287,19.93966 14.63583,12.44047 31.89641,22.84935 44.62402,23.45345 12.68932,47.27614 23.56861,82.80532 23.56861,120.06752 v 1.49389 h 2.98779 v -1.49389 c 0,-38.13738 -11.15119,-74.11366 -23.95297,-121.89054 l -1.44332,-1.1072 c -11.07975,0 -29.05182,-10.22155 -43.84984,-22.79987 -7.39902,-6.28916 -14.05634,-13.13882 -18.82158,-19.46193 -4.16876,-5.53161 -6.81534,-10.70826 -7.4127,-14.4737 54.48134,0.35016 88.39151,17.95939 108.80258,41.04333 20.61708,23.31694 27.51109,52.34683 27.51109,74.95018 v 1.4939 h 2.9878 v -1.4939 c 0,-23.20956 -7.04906,-52.93972 -28.26116,-76.9296 -21.21209,-23.98988 -56.57099,-42.08439 -112.66337,-42.08439 z"
         id="path11-6"
         inkscape:label="Link Segment 2" /><path
         style="baseline-shift:baseline;display:inline;overflow:visible;vector-effect:none;fill:#ffffff;stroke-width:0.398374;stroke-linecap:square;stroke-miterlimit:3;enable-background:accumulate;stop-color:#000000"
         d="m 200.05963,109.85976 c -26.09634,0.1141 -52.99416,9.41888 -82.03843,26.18759 l -1.29392,0.74695 1.49389,2.58787 1.29394,-0.74694 c 32.87679,-18.98143 62.61952,-28.11262 91.39087,-25.2827 28.61498,2.81454 56.42768,17.46572 85.59654,46.49218 -0.21248,11.5734 -6.40768,19.42817 -16.02516,25.03838 -9.78668,5.70888 -23.06752,8.87738 -36.39982,10.48219 -26.66457,3.20963 -53.43725,0.24744 -53.43725,0.24744 l -1.65885,-0.18442 v 1.66897 c 0,1.95036 0.79752,4.09913 2.09768,6.60195 1.30016,2.5028 3.14591,5.32767 5.42161,8.36195 4.55142,6.06854 10.82526,12.96534 17.85678,19.49461 7.03151,6.52926 14.81393,12.68552 22.40693,17.24131 4.57047,2.74228 9.0625,4.90461 13.32527,6.20513 -3.44642,1.35964 -6.73445,3.48628 -9.80527,6.17323 -5.403,4.72762 -10.20882,11.13382 -14.25118,18.08163 -8.08472,13.89563 -13.14942,29.82733 -13.14942,39.34403 v 1.49389 h 2.98779 v -1.49389 c 0,-8.41011 4.89464,-24.34825 12.74483,-37.84079 3.9251,-6.74627 8.58066,-12.91373 13.63496,-17.33624 5.05428,-4.42251 10.44899,-7.0688 15.94738,-7.0688 v -2.98779 c -5.49839,0 -12.55088,-2.72421 -19.89688,-7.13181 -7.346,-4.4076 -15.00055,-10.45154 -21.91209,-16.8694 -6.91154,-6.41787 -13.08687,-13.21516 -17.49886,-19.0978 -2.20598,-2.94131 -3.97051,-5.65634 -5.16017,-7.94646 -0.72747,-1.40036 -1.14796,-2.55989 -1.42387,-3.55968 4.90466,0.48238 27.92582,2.48206 52.12698,-0.43105 13.5579,-1.63197 27.16725,-4.81254 37.54821,-10.86812 10.381,-6.05557 17.54788,-15.22439 17.54788,-28.21136 v -0.61857 l -0.43728,-0.43805 c -29.66036,-29.66039 -58.30002,-44.90561 -87.89419,-47.81646 -3.69927,-0.36386 -7.41084,-0.53528 -11.1389,-0.51897 z"
         id="path2-8"
         inkscape:label="Link Segment 1" /></g><g
       inkscape:groupmode="layer"
       id="layer13"
       inkscape:label="Arrows"><path
         id="path1-2-6-4"
         d="m 210.75272,324.39442 4.22539,14.78885 11.6198,-30.63405 -30.63404,11.61982 z"
         style="display:inline;fill:#ff0000;fill-opacity:1;fill-rule:nonzero;stroke:none;stroke-width:0.0398372"
         sodipodi:nodetypes="ccccc"
         inkscape:transform-center-x="-3.9968068"
         inkscape:transform-center-y="9.3258861"
         inkscape:label="South" /><path
         id="path1-2-1-3"
         d="m 262.92048,258.47343 14.78885,-4.22539 -30.63405,-11.6198 11.61982,30.63404 z"
         style="display:inline;fill:#ff0000;fill-opacity:1;fill-rule:nonzero;stroke:none;stroke-width:0.0398372"
         sodipodi:nodetypes="ccccc"
         inkscape:transform-center-x="-9.325883"
         inkscape:transform-center-y="-3.9968024"
         inkscape:label="Southeast" /><path
         id="path1-2-1-4-1-1"
         d="m 185.00028,197.55654 -3.73512,14.9202 25.38006,-20.71995 -32.33977,-5.25398 z"
         style="display:inline;fill:#ff0000;fill-opacity:1;fill-rule:nonzero;stroke:none;stroke-width:0.0398372"
         sodipodi:nodetypes="ccccc"
         inkscape:transform-center-x="-10.028899"
         inkscape:transform-center-y="15.098993"
         inkscape:label="Central-West" /><path
         id="path1-2-1-4-4"
         d="m 301.85468,158.85197 3.73512,-14.92021 -25.38008,20.71995 32.3398,5.25397 z"
         style="display:inline;fill:#ff0000;fill-opacity:1;fill-rule:nonzero;stroke:none;stroke-width:0.398374;stroke-dasharray:none"
         sodipodi:nodetypes="ccccc"
         inkscape:transform-center-x="10.0289"
         inkscape:transform-center-y="-15.098989"
         inkscape:label="Northeast" /><path
         id="path1-2-9"
         d="m 112.72183,135.14333 -10.69483,11.05372 32.33977,-5.25397 -25.38008,-20.71996 z"
         style="display:inline;fill:#ff0000;fill-opacity:1;fill-rule:nonzero;stroke:none;stroke-width:0.0398372"
         sodipodi:nodetypes="ccccc"
         inkscape:transform-center-x="-5.1524728"
         inkscape:transform-center-y="3.1001452"
         inkscape:label="North" /></g></g></svg>
