<?xml version="1.0" encoding="UTF-8" standalone="no"?>
<!-- Created with Inkscape (http://www.inkscape.org/) -->

<svg
   version="1.1"
   id="svg1"
   width="1000"
   height="356.05499"
   viewBox="0 0 999.99999 356.05499"
   sodipodi:docname="usp-each-logo.svg"
   xml:space="preserve"
   inkscape:version="1.4.3 (0d15f75042, 2025-12-25)"
   inkscape:export-filename="usp-each-logo.png"
   inkscape:export-xdpi="96"
   inkscape:export-ydpi="96"
   xmlns:inkscape="http://www.inkscape.org/namespaces/inkscape"
   xmlns:sodipodi="http://sodipodi.sourceforge.net/DTD/sodipodi-0.dtd"
   xmlns="http://www.w3.org/2000/svg"
   xmlns:svg="http://www.w3.org/2000/svg"><defs
     id="defs1" /><sodipodi:namedview
     id="namedview1"
     pagecolor="#ffffff"
     bordercolor="#000000"
     borderopacity="0.25"
     inkscape:showpageshadow="2"
     inkscape:pageopacity="0.0"
     inkscape:pagecheckerboard="0"
     inkscape:deskcolor="#d1d1d1"
     inkscape:zoom="0.33993424"
     inkscape:cx="229.45614"
     inkscape:cy="151.49989"
     inkscape:window-width="1920"
     inkscape:window-height="1011"
     inkscape:window-x="0"
     inkscape:window-y="0"
     inkscape:window-maximized="1"
     inkscape:current-layer="layer2"><inkscape:page
       x="0"
       y="0"
       id="page1"
       width="1000"
       height="356.05499"
       margin="0"
       bleed="0" /></sodipodi:namedview><g
     inkscape:groupmode="layer"
     id="layer2"
     inkscape:label="Name"
     transform="translate(28.322792)"><path
       id="path1"
       d="M 842.70019,253.70484 V 102.40358 h 26.93744 v 60.07149 H 944.741 v -60.07149 h 26.93743 V 253.70484 H 944.741 v -67.8518 h -75.10337 v 67.8518 h -26.93744"
       style="fill:#231f20;fill-opacity:1;fill-rule:nonzero;stroke:none;stroke-width:0.160408" /><path
       id="path2"
       d="m 820.15314,222.35117 c -12.18625,21.62198 -35.46958,33.92453 -62.17442,33.92453 -29.04681,0 -53.20758,-11.26374 -65.24625,-38.78507 -5.50042,-12.61086 -8.27066,-26.13717 -8.27066,-40.58037 0,-27.48605 13.2305,-56.06929 35.92031,-67.95398 23.12292,-12.112464 58.58127,-12.628979 79.18737,2.4302 8.24341,6.02334 15.47464,12.60652 20.25963,21.77869 l -21.13386,13.09257 c -3.65251,-7.28256 -10.19557,-13.06208 -17.43483,-17.04343 -12.44611,-6.84625 -32.98965,-9.10319 -48.2044,1.40036 -16.56381,11.43555 -21.72738,31.45295 -21.72738,46.18811 0,20.3655 8.46959,41.4392 23.8977,50.4083 13.33798,7.75415 34.80548,10.02619 50.5111,-2.57168 5.20526,-4.17367 9.21227,-9.12325 12.22635,-14.58516 l 22.18934,12.29693"
       style="fill:#231f20;fill-opacity:1;fill-rule:nonzero;stroke:none;stroke-width:0.160408" /><path
       id="path3"
       d="m 575.63892,192.88377 h 51.00997 l -25.65738,-69.765 z m -50.25926,60.82107 59.4202,-151.30126 h 33.33132 l 60.59601,151.30126 h -29.12541 l -15.49229,-38.93298 h -66.80862 l -14.39989,38.93298 h -27.52132"
       style="fill:#231f20;fill-opacity:1;fill-rule:nonzero;stroke:none;stroke-width:0.160408" /><path
       id="path4"
       d="M 399.28716,253.70484 V 102.40358 h 113.11703 v 23.37797 h -86.90624 v 38.04736 h 74.14252 v 21.8926 h -74.14252 v 44.60439 h 87.09873 v 23.37894 H 399.28716"
       style="fill:#231f20;fill-opacity:1;fill-rule:nonzero;stroke:none;stroke-width:0.160408" /></g><g
     inkscape:groupmode="layer"
     id="layer3"
     inkscape:label="Symbol"><path
       id="path5"
       d="m 239.64743,230.91599 c 12.31459,0 23.67154,4.0986 32.78756,10.99923 -8.18886,12.16796 -18.66998,22.66463 -30.83058,30.86248 -6.51899,-14.25632 -17.71231,-25.93104 -31.62296,-33.05736 8.53375,-5.56602 18.7213,-8.80435 29.66598,-8.80435 z m 43.66007,21.95723 c 6.73715,9.05555 10.72652,20.27663 10.72652,32.42696 0,3.0184 -0.25183,5.97844 -0.72504,8.86259 -2.68044,0.40614 -5.42182,0.61853 -8.21454,0.61853 -12.30175,0 -23.64905,-4.09043 -32.76188,-10.9811 12.00339,-8.46847 22.48932,-18.93899 30.97494,-30.92698 z m 1.78694,-66.86159 c 2.13985,0 4.24763,0.12833 6.32172,0.36894 -1.00898,15.10987 -4.98069,29.40758 -11.3345,42.32097 -11.39381,-8.15694 -25.3542,-12.95975 -40.43262,-12.95975 -1.02983,0 -2.05322,0.0263 -3.07182,0.0707 8.97807,-17.68203 27.33364,-29.8009 48.51722,-29.8009 z m 54.25826,50.67089 c 0.0833,1.22696 0.12832,2.46564 0.12832,3.71329 0,21.41587 -12.38836,39.93988 -30.38462,48.80872 0.0706,-1.29257 0.11229,-2.59284 0.11229,-3.90371 0,-13.94931 -4.11128,-26.93856 -11.18531,-37.8276 1.30415,0.0727 2.61307,0.11404 3.93483,0.11404 13.76468,0 26.59418,-4.00331 37.39449,-10.90474 z M 306.32774,190.317 c 13.44066,5.70735 24.11265,16.6655 29.43983,30.3009 -9.28446,7.38138 -21.0312,11.79437 -33.81096,11.79437 -2.25053,0 -4.46739,-0.14035 -6.64733,-0.40663 5.88378,-12.89591 9.6983,-26.93296 11.01846,-41.68864 z m 41.34695,-41.74959 c 5.48279,8.49043 8.66689,18.6042 8.66689,29.46068 0,11.32004 -3.46321,21.83259 -9.38391,30.53973 -6.58477,-12.76805 -17.00814,-23.23793 -29.74137,-29.88045 13.04282,-6.5896 23.72926,-17.16053 30.45839,-30.11996 z m -45.71808,-24.92432 c 13.1888,0 25.28042,4.69678 34.69641,12.50868 -5.4106,14.00048 -16.44831,25.20021 -30.33811,30.83056 -1.37631,-15.20354 -5.40096,-29.64193 -11.61038,-42.8548 2.37245,-0.31601 4.79301,-0.48444 7.25208,-0.48444 z m -10.53564,47.481 c -2.08371,-0.18928 -4.19148,-0.28713 -6.32493,-0.28713 -13.76467,0 -26.59415,3.99898 -37.39448,10.89978 -0.0818,-1.22553 -0.12833,-2.46227 -0.12833,-3.70865 0,-22.1685 13.27062,-41.2411 32.2999,-49.70907 6.48694,13.04282 10.53565,27.50849 11.54784,42.80507 z M 309.80381,67.702133 c 18.054,8.848148 30.48889,27.405841 30.48889,48.860517 0,1.12767 -0.0385,2.24252 -0.10587,3.35254 -10.97195,-7.23282 -24.10783,-11.44677 -38.22862,-11.44677 -1.017,0 -2.02756,0.0208 -3.03333,0.0642 6.93768,-10.819571 10.96234,-23.684352 10.96234,-37.487529 0,-1.121258 -0.0321,-2.234494 -0.0833,-3.342919 z m -23.8961,-5.522875 c 2.77989,0 5.51166,0.208532 8.17926,0.612763 0.41063,2.690054 0.62398,5.445877 0.62398,8.251427 0,12.598506 -4.28452,24.194457 -11.47724,33.414752 -8.44714,-11.911954 -18.8737,-22.322484 -30.79688,-30.756778 9.22992,-7.216792 20.84992,-11.522164 33.47088,-11.522164 z M 240.32596,16.660056 c 21.43222,0 39.96905,12.404412 48.83003,30.423131 -1.07634,-0.04973 -2.15909,-0.0786 -3.24667,-0.0786 -14.08871,0 -27.19889,4.191482 -38.15482,11.393836 0.0754,-1.328184 0.1203,-2.664389 0.1203,-4.013427 0,-13.85611 -4.05352,-26.769018 -11.03932,-37.614257 1.15494,-0.07218 2.3179,-0.110682 3.49048,-0.110683 z m 31.85879,98.490994 c -13.739,6.51741 -25.00131,17.40435 -31.99353,30.86907 -5.48275,-8.48884 -8.66687,-18.601 -8.66687,-29.45747 0,-11.86544 3.80489,-22.843817 10.25813,-31.785002 11.96008,8.099039 22.2936,18.419742 30.40227,30.373402"
       style="fill:#f68b1b;fill-opacity:1;fill-rule:evenodd;stroke:none;stroke-width:0.160409" /><path
       id="path6"
       d="m 232.17079,61.980351 c -13.06048,-6.034579 -27.30798,-9.940532 -42.29176,-11.278341 5.61591,-13.907443 16.81726,-24.964421 30.82093,-30.389445 7.50553,9.326167 11.99857,21.17396 11.99857,34.07243 0,2.57777 -0.17966,5.112228 -0.52774,7.595356 z m -3.55144,15.131361 c -7.73652,11.210971 -12.26968,24.802388 -12.26968,39.452528 0,1.11966 0.0304,2.23289 0.0818,3.34133 -18.0524,-8.84975 -30.48889,-27.404239 -30.48889,-48.862122 0,-1.827057 0.0914,-3.631656 0.26628,-5.412193 15.14741,1.044261 29.47831,5.064105 42.41048,11.480457 z M 166.9149,50.685969 c -15.04359,1.323372 -29.34371,5.238951 -42.45152,11.297591 -0.34841,-2.483128 -0.5332,-5.020795 -0.5332,-7.598565 0,-13.015569 4.57727,-24.964419 12.2068,-34.325877 14.02933,5.485982 25.22459,16.631185 30.77792,30.626851 z M 178.31517,0 c 11.17887,0 21.57015,3.3766049 30.21297,9.1641535 C 195.61364,15.814702 185.05394,26.392057 178.41782,39.31459 171.83144,26.329499 161.29419,15.689583 148.38754,8.9780798 156.97245,3.304421 167.25658,0 178.31517,0 Z m -7.33389,65.595965 c -0.13955,1.798182 -0.21495,3.61401 -0.21495,5.449086 0,13.856112 4.05352,26.764203 11.03932,37.609449 -1.15494,0.0738 -2.3163,0.11549 -3.49048,0.11549 -22.05958,0 -41.05486,-13.137479 -49.58395,-32.017593 12.90407,-6.286421 27.17612,-10.193979 42.25006,-11.156432 z M 104.40732,73.55545 C 92.458793,81.965682 82.005276,92.36338 73.530562,104.26571 66.282654,95.024561 61.957233,83.378884 61.957233,70.727442 c 0,-2.674015 0.197463,-5.299906 0.570894,-7.869655 2.800897,-0.445937 5.670609,-0.678529 8.596304,-0.678529 12.536263,0 24.083767,4.246021 33.282889,11.376192 z m 11.93409,-57.213002 c 1.22936,0 2.44622,0.04331 3.65492,0.125119 -7.10868,10.907796 -11.24113,23.929782 -11.24113,37.917428 0,1.254397 0.0344,2.500773 0.10089,3.739129 C 97.985999,51.090198 85.030424,47.004586 71.124431,47.004586 c -1.269636,0 -2.527721,0.03529 -3.780353,0.104267 8.792484,-18.204794 27.429895,-30.766405 48.997332,-30.766405 z m -0.82017,67.989264 c 6.52093,13.647577 17.35991,24.837688 30.75019,31.801038 -8.58619,5.67206 -18.87112,8.97968 -29.93002,8.97968 -11.83945,0 -22.793602,-3.78724 -31.722594,-10.21323 8.236506,-12.06433 18.742004,-22.460428 30.902424,-30.567488 z M 9.0555704,147.97871 C 3.3360044,156.58785 0,166.91978 0,178.02809 0,189.34974 3.4625669,199.86132 9.3845368,208.56846 16.028362,195.68428 26.576519,185.14382 39.464879,178.50931 26.385954,171.80743 15.705619,161.08731 9.0555704,147.97871 Z M 20.215832,135.72348 c 5.299744,14.06784 16.264002,25.36543 30.112409,31.10325 1.389139,-15.13295 5.398716,-29.50879 11.574453,-42.66552 -2.458104,-0.34007 -4.965774,-0.51812 -7.517236,-0.51812 -12.944181,0 -24.830148,4.52674 -34.169626,12.08039 z M 46.846248,67.891415 c -17.846113,8.921936 -30.107276,27.368947 -30.107276,48.671235 0,0.98009 0.02872,1.95217 0.08021,2.91784 10.83625,-6.96977 23.729102,-11.01207 37.566279,-11.01207 1.202425,0 2.395545,0.0304 3.582249,0.0914 C 50.893363,97.669677 46.78289,84.678174 46.78289,70.727422 c 0,-0.94962 0.02583,-1.894427 0.06336,-2.836026 z M 65.241281,170.63164 c 1.933084,0.20852 3.894242,0.31761 5.88315,0.31761 21.566152,0 40.202929,-12.56322 48.996039,-30.76642 -1.25134,0.0674 -2.50959,0.10427 -3.77841,0.10427 -14.64421,0 -28.231306,-4.52994 -39.439867,-12.26323 -6.501527,12.98026 -10.586335,27.37856 -11.660912,42.60777"
       style="fill:#2c9db9;fill-opacity:1;fill-rule:evenodd;stroke:none;stroke-width:0.160409" /><path
       id="path7"
       d="M 76.140892,227.88137 C 95.344866,219.48621 108.769,200.32362 108.769,178.02809 c 0,-0.9801 -0.0269,-1.95378 -0.0783,-2.92105 -10.836412,6.97137 -23.729903,11.01687 -37.566279,11.01687 -2.002704,0 -3.98327,-0.085 -5.942662,-0.25183 0.932938,14.97544 4.764619,29.16665 10.959123,42.00929 z m 102.174278,19.40449 c 22.49733,0 41.80732,13.66667 50.07961,33.14944 -13.08455,6.45581 -27.59352,10.45849 -42.92538,11.41533 0.22136,-2.2544 0.33685,-4.53973 0.33685,-6.85234 0,-13.8497 -4.04873,-26.75458 -11.0281,-37.59534 1.16938,-0.0756 2.34679,-0.11709 3.53702,-0.11709 z m 29.67239,99.9616 c -8.53374,5.56796 -18.7261,8.80745 -29.67239,8.80745 -11.19655,0 -21.60146,-3.38737 -30.25101,-9.18966 12.71994,-6.55544 23.15773,-16.92251 29.80667,-29.58421 6.66819,12.85162 17.2263,23.36338 30.11673,29.96642 z M 232.3328,295.374 c 0.23901,2.06527 0.36573,4.16695 0.36573,6.29605 0,13.09209 -4.62779,25.10269 -12.33704,34.48854 -13.78552,-5.2327 -24.89221,-15.90935 -30.69581,-29.40374 15.12495,-1.32577 29.49917,-5.27087 42.66712,-11.38085 z m -91.64487,-58.96706 c 17.75708,8.95273 29.94366,27.35081 29.94366,48.59071 0,2.30075 -0.14277,4.56715 -0.42027,6.79347 -15.01651,-1.06143 -29.22151,-5.05095 -42.05854,-11.39657 7.97152,-11.31506 12.65289,-25.11023 12.65289,-39.99874 0,-1.33844 -0.0433,-2.66871 -0.11774,-3.98887 z m -20.8995,102.85956 c -1.1705,0.0759 -2.3524,0.11597 -3.54214,0.11597 -21.066323,0 -39.336557,-11.9875 -48.368372,-29.50959 1.117248,0.0526 2.239466,0.0833 3.369227,0.0833 13.835893,0 26.73196,-4.04584 37.567565,-11.01673 -0.0343,0.90664 -0.0595,1.81583 -0.0595,2.73128 0,13.85035 4.05353,26.7525 11.03323,37.59581 z m 46.34369,-32.58737 c -5.77471,13.26566 -16.68509,23.78125 -30.21956,29.03464 -7.49285,-9.31943 -11.98238,-21.15712 -11.98238,-34.04372 0,-2.1291 0.12849,-4.22821 0.36654,-6.29412 12.92606,5.99657 27.01314,9.90829 41.8354,11.3032 z M 62.623249,294.09635 c 2.808437,0.44802 5.688896,0.68495 8.623896,0.68495 12.362219,0 23.760542,-4.13117 32.896295,-11.082 -12.158976,-8.60577 -22.755416,-19.27408 -31.285311,-31.49034 -6.900623,9.117 -10.995537,20.47539 -10.995537,32.78869 0,3.10102 0.261947,6.13868 0.760657,9.0987 z M 16.991457,236.68252 c -0.08341,1.22696 -0.129771,2.46516 -0.129771,3.71329 0,21.24166 12.183523,39.63847 29.942535,48.59071 -0.07459,-1.32032 -0.117098,-2.64866 -0.117098,-3.98823 0,-13.80206 4.020164,-26.66796 10.956075,-37.48754 -1.080351,0.0496 -2.165035,0.0764 -3.25774,0.0764 -13.76387,0 -26.594004,-4.00332 -37.394001,-10.90475 z m 97.975893,36.05636 c 6.70075,-9.04063 10.66332,-20.22722 10.66332,-32.34307 0,-11.32132 -3.46369,-21.83756 -9.38631,-30.54471 -7.06617,13.70244 -18.548543,24.75926 -32.564899,31.28163 8.248538,12.48109 18.893109,23.23858 31.287889,31.60615 z M 20.570495,220.61854 c 9.283656,7.38186 21.036162,11.79373 33.814963,11.79373 2.34277,0 4.653137,-0.14661 6.917627,-0.43422 -5.894379,-12.92109 -9.707295,-26.99055 -11.01623,-41.77655 -13.570739,5.67366 -24.352611,16.68894 -29.71636,30.41704 z m 267.595775,89.26557 c -8.97969,17.68009 -27.33364,29.80155 -48.51884,29.80155 -1.01378,0 -2.02113,-0.0306 -3.02209,-0.0858 7.11253,-10.91083 11.24946,-23.93602 11.24946,-37.92913 0,-0.84904 -0.0144,-1.6968 -0.0449,-2.53831 10.77467,6.85059 23.55603,10.82376 37.26616,10.82376 1.02984,0 2.05163,-0.0276 3.07023,-0.072"
       style="fill:#4fc5d8;fill-opacity:1;fill-rule:evenodd;stroke:none;stroke-width:0.160409" /></g><g
     inkscape:groupmode="layer"
     id="layer4"
     inkscape:label="Guides"
     sodipodi:insensitive="true"
     style="display:none"><rect
       style="fill:#ff00ff;fill-opacity:0.5;stroke:none;stroke-width:73.375;stroke-linecap:square;stroke-miterlimit:0"
       id="rect1-3"
       width="356.34158"
       height="356.05499"
       x="0"
       y="0"
       ry="0"
       inkscape:label="1" /><rect
       style="fill:#ffff00;fill-opacity:0.5;stroke:none;stroke-width:51.884;stroke-linecap:square;stroke-miterlimit:0"
       id="rect1-0"
       width="178.17093"
       height="356.05499"
       x="0"
       y="0"
       ry="0"
       inkscape:label="1/2" /><rect
       style="fill:#00ffff;fill-opacity:0.5;stroke:none;stroke-width:42.3632;stroke-linecap:square;stroke-miterlimit:0"
       id="rect1-7"
       width="118.78062"
       height="356.05499"
       x="0"
       y="0"
       ry="0"
       inkscape:label="1/3" /><rect
       style="fill:#ff0000;fill-opacity:0.5;stroke:none;stroke-width:36.6876;stroke-linecap:square;stroke-miterlimit:0"
       id="rect1"
       width="89.085953"
       height="356.05499"
       x="0"
       y="0"
       ry="0"
       inkscape:label="1/4" /><rect
       style="fill:#00ff00;fill-opacity:0.5;stroke:none;stroke-width:32.8143;stroke-linecap:square;stroke-miterlimit:0"
       id="rect1-3-2"
       width="71.268364"
       height="356.05499"
       x="0"
       y="0"
       ry="0"
       inkscape:label="1/5" /><rect
       style="fill:#00ff00;fill-opacity:0.5;stroke:none;stroke-width:32.8143;stroke-linecap:square;stroke-miterlimit:0"
       id="rect1-3-2-6"
       width="71.268364"
       height="356.05499"
       x="356.34158"
       y="0"
       ry="0"
       inkscape:label="1/5" /></g></svg>
