<?xml version="1.0" encoding="UTF-8" standalone="no"?>
<!-- Generator: Adobe Illustrator 24.3.0, SVG Export Plug-In . SVG Version: 6.00 Build 0)  -->

<svg
   version="1.1"
   id="Layer_1"
   x="0px"
   y="0px"
   viewBox="0 0 1000 278.09399"
   xml:space="preserve"
   sodipodi:docname="omf-logo.svg"
   width="1000"
   height="278.09399"
   inkscape:version="1.4.3 (0d15f75042, 2025-12-25)"
   inkscape:export-filename="omf-logo.png"
   inkscape:export-xdpi="96"
   inkscape:export-ydpi="96"
   xmlns:inkscape="http://www.inkscape.org/namespaces/inkscape"
   xmlns:sodipodi="http://sodipodi.sourceforge.net/DTD/sodipodi-0.dtd"
   xmlns="http://www.w3.org/2000/svg"
   xmlns:svg="http://www.w3.org/2000/svg"><defs
   id="defs6" /><sodipodi:namedview
   id="namedview6"
   pagecolor="#ffffff"
   bordercolor="#000000"
   borderopacity="0.25"
   inkscape:showpageshadow="2"
   inkscape:pageopacity="0.0"
   inkscape:pagecheckerboard="0"
   inkscape:deskcolor="#d1d1d1"
   inkscape:zoom="0.34753364"
   inkscape:cx="375.50322"
   inkscape:cy="148.18709"
   inkscape:window-width="1920"
   inkscape:window-height="1011"
   inkscape:window-x="0"
   inkscape:window-y="0"
   inkscape:window-maximized="1"
   inkscape:current-layer="Layer_1" />
<style
   type="text/css"
   id="style1">
	.st0{fill:#03A3DF;}
	.st1{fill:#FFFFFF;}
	.st2{fill:#CCCCCC;}
	.st3{fill:#00A3E0;}
	.st4{fill:#FF7F32;}
</style>
<path
   class="st0"
   d="m 106.99899,223.30225 c -2.58451,-0.51691 -5.16903,-1.55072 -7.236644,-2.58453 -2.584516,-1.5507 -5.685937,-2.58451 -8.270454,-4.65212 -1.55071,-1.03381 -3.101419,-1.03381 -4.135226,-2.06762 -1.033807,-1.0338 -2.584517,-1.5507 -4.135227,-2.58451 0.516904,0 0.516904,0 1.033807,0 0,0 0,0 0,0 -2.584517,-1.55071 -4.65213,-3.61833 -7.236648,-5.16903 -0.516903,-0.5169 -1.550709,-0.5169 -2.067613,-1.03381 h -0.516903 c -1.550709,-1.55071 -3.10142,-3.10142 -4.65213,-4.65214 0,0 0,0 0,0 0.516903,0 0.516903,0 1.033807,0 -0.516904,-0.51689 -1.033807,-1.03379 -1.55071,-1.5507 -1.550711,-2.06761 -3.101421,-4.13523 -5.169033,-6.20284 -0.516904,-0.5169 -0.516904,-0.5169 -1.033808,-0.5169 -0.516903,0 -1.033806,0 -1.55071,-1.03381 -1.033806,-1.55071 -2.067613,-3.10142 -3.10142,-4.13523 0,0 -0.516903,-0.51691 -0.516903,-0.51691 h 1.55071 c 0,-0.51689 0,-0.51689 -0.516903,-0.51689 -1.550711,-2.58452 -3.10142,-5.68595 -4.135227,-8.27046 -0.516903,-0.5169 -0.516903,-0.5169 -1.033807,-0.5169 -1.033807,0 -1.033807,0 -1.55071,-1.03381 -0.516903,-2.06761 -1.55071,-3.61832 -2.584516,-5.68593 0.516903,0 1.033806,0 1.55071,0 -1.033807,-3.61833 -2.067614,-6.71975 -3.101421,-10.33808 -0.516903,0 -0.516903,0 -1.033806,0 -0.516904,0 -1.033807,0 -1.033807,-1.03379 -0.516903,-2.06762 -1.033806,-4.13524 -1.033806,-6.20285 h 2.067613 c -0.516904,-3.61832 -0.516904,-7.23664 -1.033807,-11.37187 h -2.067614 c 0,-2.58452 0.516903,-5.16903 0.516903,-7.75356 h 2.067614 c 0.516904,-3.61831 1.033807,-7.23664 1.55071,-10.85496 h -2.067613 c 0.516903,-2.06762 1.033807,-4.13523 1.55071,-6.20284 0,-0.51691 0.516903,-1.03381 1.033806,-1.03381 0.516904,0 1.033808,0 1.033808,-1.03381 1.033806,-3.10141 2.067613,-5.68593 3.101419,-8.78736 0,0 0,-0.5169 0.516904,-0.5169 h -1.55071 c 0.516903,-1.5507 1.033806,-2.58451 1.55071,-4.13522 0,-0.51691 0.516903,-0.51691 0.516903,-1.03381 0.516904,-1.033807 1.033807,-1.550711 2.067614,-1.550711 0,0 0.516903,0 0.516903,-0.516903 1.55071,-3.10142 3.10142,-5.685936 5.169033,-8.787357 -0.516903,0 -1.033806,0 -1.550709,0 1.033806,-1.033806 1.550709,-2.067613 2.067613,-3.10142 0.516903,-0.516904 0.516903,-1.033807 1.033806,-1.55071 0.516904,-0.516903 1.033808,-1.033806 2.067614,-1.033806 0,0 0.516903,0 0.516903,-0.516904 2.067613,-2.584517 4.135227,-4.65213 6.719743,-7.236647 0,0 0,0 0,-0.516903 h -1.033806 c 0,0 0,0 0,0 0.516903,0 0.516903,-0.516904 1.033806,-0.516904 1.550711,-1.033806 2.584517,-2.584517 4.135227,-3.618323 0.516903,-0.516903 1.033807,-0.516903 1.550711,-1.033807 2.584516,-2.067613 5.685937,-4.135227 8.270453,-5.685936 0,0 0,0 0,0 0,0 -0.516904,0 -0.516904,0 0.516904,0 0.516904,-0.516903 0.516904,-0.516903 1.033807,-0.516904 2.067614,-1.033808 3.10142,-2.067614 1.55071,-1.033807 3.101421,-1.55071 5.169034,-2.067613 2.584517,-1.033807 5.169033,-2.584518 7.753547,-3.618324 2.06762,-1.033807 4.13523,-1.55071 6.20284,-2.584517 0.51691,-0.516903 1.55072,-0.516903 2.06762,-0.516903 0,0 0,0 0.5169,0 1.0338,0 2.06761,-0.516904 2.58451,-0.516904 1.03381,0 1.55072,-0.516903 2.58452,-0.516903 0,0 -0.5169,0.516903 -0.5169,0.516903 -0.5169,0.516904 -1.03381,0.516904 -2.06762,0.516904 2.06762,0.516903 3.61833,0 5.16904,-1.033807 0.5169,-0.516903 1.0338,-0.516903 1.55071,-0.516903 1.03381,-0.516903 2.58452,-0.516903 3.61833,-1.033807 0,0 -0.51691,0.516904 -0.51691,0.516904 -1.55071,0.516903 -3.10142,1.033806 -4.65213,1.550709 0,0 -0.5169,0 -0.5169,0.516904 1.0338,0 1.5507,0 2.58451,0 0.51691,0 1.03381,0 1.03381,0 2.06762,-1.033807 4.13522,-2.067613 5.68594,-2.584517 -1.03381,0 -2.06762,0 -3.10142,0 -1.03381,0 -1.55071,0 -2.58452,0 0,0 -0.5169,0 -0.5169,-0.516903 2.58452,-0.516903 5.68593,-0.516903 8.27045,-1.033807 1.55071,0 3.10142,0 5.16903,0 v 0 c 1.55072,0 1.55072,0 2.58452,-0.516904 0.51691,1.033808 1.03381,0.516904 1.55071,0.516904 v 0 c 4.13523,0.516904 8.27045,0.516904 12.40568,1.033807 v 0 c -3.10142,0 -5.68593,0 -8.78736,0.516903 1.03381,1.033807 2.06762,2.067613 2.58452,3.10142 0,0 0.51691,0 0.51691,0 2.58451,0 5.68593,0 8.27044,0 4.65214,0 9.30427,0.516904 13.9564,0.516904 0.5169,0 1.0338,0 1.0338,0.516903 -7.75355,0.516903 -14.9902,0.516903 -22.74375,1.033807 0,0 0,0.516903 0,0.516903 1.03381,1.55071 1.55072,3.10142 2.58452,4.65213 0,0.516903 0.51691,0.516903 1.03381,0.516903 5.16903,0 10.85497,0 16.5409,0.516904 5.68595,0 11.37188,0.516903 17.05782,0.516903 1.03381,0 1.55071,0 2.58452,0.516903 0,0 -0.5169,0 -0.5169,0 -3.61833,0 -7.23665,0.516904 -10.33808,0.516904 -6.71974,0 -12.92258,0.516904 -19.64232,0.516904 -1.55072,0 -2.58452,0 -4.13523,0 0,0.516903 0,0.516903 0,0.516903 0.51691,2.067613 1.55071,4.135227 2.06761,6.719743 0,0.516903 0,0.516903 0.5169,0.516903 5.16905,0 9.82117,0 14.9902,0 7.75356,0 15.50711,0.516903 23.26066,0.516903 2.58451,0 5.68593,0.516905 8.27044,0.516905 v 0 c -1.03379,0 -2.0676,0.516903 -3.10141,0.516903 -4.65213,0 -9.30426,0.516903 -13.95639,0.516903 -6.20284,0 -12.92258,0.516903 -19.12542,0.516903 H 155.071 c 0,0 -0.5169,0 -0.5169,0 0.5169,3.10142 1.55071,6.20284 2.06762,9.304261 18.60851,0.516903 37.21703,0.516903 55.82556,2.067612 v 0.516904 c -1.55071,0 -3.10143,0.516903 -4.65214,0.516903 -7.23665,0.516904 -14.47329,0.516904 -21.70993,1.033807 -4.13523,0 -8.78736,0 -12.92259,0.516904 -5.16903,0 -10.33807,0 -15.5071,0.516903 0.51691,3.618324 1.03381,7.236646 1.55072,10.85497 20.67612,0.516904 41.86916,0.516904 62.54529,2.067614 v 0.5169 c -1.03381,0 -1.5507,0 -2.58451,0.51691 -3.10142,0 -6.20284,0.5169 -9.30426,0.5169 -5.16903,0 -10.85497,0.51691 -16.54091,0.51691 -4.13523,0 -7.75354,0 -11.88878,0.5169 -5.68593,0 -11.37187,0 -17.0578,0.5169 h -5.16903 c 0.51689,4.13523 0.51689,8.27045 1.03379,12.40568 h 3.61833 c 5.16903,0 10.33807,0 15.50711,0 6.20284,0 12.40567,0 18.60851,0.51691 6.20284,0 11.88878,0.5169 18.09162,0.5169 3.10142,0 6.20284,0.5169 9.30426,1.0338 0.51691,0 1.03381,0 1.03381,0.5169 -1.03381,0 -2.06762,0.51691 -3.10142,0.51691 -4.65213,0 -9.30427,0.5169 -13.9564,0.5169 -6.20283,0 -12.92258,0.51691 -19.12542,0.51691 l -12.92258,0.5169 c -5.68594,0 -11.37187,0 -16.54091,0.5169 0,0 0,0 -0.51691,0 0,4.13523 0.51691,8.78736 0.51691,12.92259 h 2.58452 c 5.16903,0 10.33806,0 15.5071,0 4.13522,0 8.78735,0 12.92258,0.5169 6.20284,0 11.88878,0.51691 18.09162,0.51691 5.16903,0 10.85496,0.5169 16.02401,1.0338 1.0338,0 2.58451,0.51691 3.61831,0.51691 v 0 c -1.0338,-1.03381 -2.06761,-1.03381 -3.10141,-1.03381 -5.16904,0.5169 -10.33807,0.5169 -15.5071,1.03381 -6.20284,0 -11.88878,0.5169 -18.09162,0.5169 -4.13523,0 -8.27045,0 -12.92259,0.5169 -5.16903,0 -10.33806,0 -16.024,0.5169 h -3.10142 c 0,4.65214 0,8.78736 -0.51691,13.43949 h 3.10143 c 3.10141,0 6.20284,0 8.78736,0 7.23665,0 13.95639,0 21.19303,0.5169 4.65213,0 9.30426,0 13.95639,0.5169 5.68594,0 11.37188,0.51691 17.05781,1.03381 1.03381,0 2.06762,0 3.10142,0.51691 v 0 c -1.0338,0 -1.5507,0 -2.58451,0.5169 -4.65213,0.51691 -9.82117,0.51691 -14.4733,1.03381 -6.20284,0 -11.88877,0.5169 -18.09161,0.5169 -4.13523,0 -8.27046,0 -12.40569,0.51691 -5.68593,0 -11.37187,0 -17.05781,0.5169 h -3.10142 c -0.51689,4.13522 -0.51689,8.27045 -1.0338,12.40568 h 2.58451 c 4.13524,0 8.27046,0 11.88878,0 6.71974,0 12.92259,0 19.64233,0.5169 5.16903,0 10.85497,0.51691 16.024,0.51691 3.61833,0 7.23665,0.5169 11.37188,1.0338 0.51689,0 1.0338,0 1.5507,0 v 0 c -2.58451,0 -5.16903,0.5169 -7.23664,0.5169 -6.20284,0.51691 -12.40568,0.51691 -19.12543,1.03381 -3.61832,0 -7.23664,0 -11.37187,0.5169 -5.16903,0 -9.82116,0 -14.9902,0.51691 -3.61831,0 -7.23664,0 -11.37187,0 h -0.5169 c -0.5169,3.61833 -1.03381,7.23664 -1.55071,11.37187 9.30426,0 19.12542,0.5169 28.42968,0.5169 9.30426,0 18.60852,0.51691 27.91279,1.55071 v 0 c -0.51691,0 -1.03381,0 -1.55072,0 -4.65212,0 -9.30426,0.51691 -13.43948,1.03381 -6.71975,0 -13.9564,0.51691 -20.67614,0.51691 -5.16903,0 -10.85496,0 -16.02401,0.5169 -1.5507,0 -3.10141,0 -4.65212,0 -0.51691,0 -1.03381,0.5169 -1.03381,1.03381 -0.51691,2.58451 -1.03381,5.16903 -1.55071,8.27044 v 0 c 16.024,0.51691 31.53111,0 47.5551,1.55072 0,0 0,0 0,0 -1.03379,0 -2.0676,0 -3.10141,0.5169 -3.61833,0 -6.71974,0.51691 -10.33807,0.51691 -7.75354,0 -15.5071,0.5169 -23.77755,0.5169 -3.61833,0 -7.23665,0 -10.85497,0 -0.5169,0 -1.03381,0 -1.03381,1.03381 -0.5169,2.06761 -1.55071,4.13522 -2.06761,6.71974 0,0 0,0.51691 0,0.51691 12.92258,0.5169 25.32826,0 37.73394,1.0338 v 0 c -1.5507,0 -2.58451,0.51691 -4.13523,0.51691 -6.20283,0 -11.88877,0.51689 -18.09161,0.51689 -5.16904,0 -10.85498,0 -16.02401,0.51691 -0.5169,0 -1.0338,0 -1.0338,0.5169 -0.51691,1.55071 -1.55072,3.10142 -2.06761,4.65214 0,0 0,0.5169 0,0.5169 8.78735,0 17.0578,0 25.84516,1.0338 v 0 c -2.06761,0 -4.13523,0.5169 -6.20283,0.5169 -6.71975,0 -13.43949,0.51691 -20.15924,0.51691 0,0 -0.5169,0 -0.5169,0 -1.03381,1.03381 -2.06762,2.06761 -2.58452,3.61833 4.13522,0 8.27046,0 11.88877,0.5169 v 0.5169 c -2.58451,0 -5.68593,0 -8.27044,0.5169 -2.58452,0 -5.68595,1.03381 -8.27046,1.03381 0.51691,-0.51691 1.03381,-0.51691 1.55071,-1.03381 0,0 0,0 0,0 h -2.58451 c 0,0.5169 0,0.5169 0,1.55071 -1.03381,-1.55071 -2.06762,-1.55071 -3.61833,-1.03381 0,0 0,0 0,0 -1.0338,0 -2.06761,0 -3.10142,0 -0.5169,0 -0.5169,0 -0.5169,0 -0.51691,0 -1.55071,0 -2.58452,0 -4.13523,0 -8.27045,-0.5169 -11.88878,-1.5507 v 0 c 0.51691,0 1.03381,0 1.55071,0 0,0 -0.5169,0 -0.5169,-0.5169 0,0 0.5169,0 1.03381,0 1.03381,0 2.06761,0 2.58451,0.5169 0,0 0,0 0,0 0,0 0,0 -0.5169,0 -2.06761,-1.03381 -4.65213,-1.55071 -6.71975,-2.58452 -1.0338,-0.5169 -2.58451,0 -3.61832,0 1.03381,0.5169 2.58452,1.03381 4.13523,1.55071 0.5169,0.51691 1.55071,0.51691 2.58452,1.03381 0,0 -0.51691,0 -0.51691,0 -2.06761,-0.5169 -4.13522,-1.55071 -6.20284,-2.06762 0,-1.0338 -0.5169,-1.0338 -1.55071,-1.0338 z m 46.5213,-83.73835 c -5.68593,0 -10.85497,0 -16.5409,0 v 12.92259 h 16.5409 z m 0,-5.68594 c 0,-4.13522 0,-8.78735 0,-12.92258 h -16.5409 v 12.40568 c 5.68593,0.5169 10.85497,0.5169 16.5409,0.5169 z m -40.83536,6.20284 c 0,4.13524 0,8.27046 0,12.40569 h 16.024 V 140.0808 Z m 16.54091,-6.71974 v -11.88877 h -16.02401 c 0,4.13522 0,7.75355 -0.5169,11.88877 z m 23.77755,24.81137 h -16.5409 v 10.85496 c 0,0.51691 0,1.03381 1.0338,1.03381 3.61832,0 7.75355,0 11.37187,0 h 3.61833 c 0.5169,-4.13522 0.5169,-7.75355 0.5169,-11.88877 z m -0.5169,-54.27485 h -15.5071 v 11.37187 h 16.024 c 0,-3.61832 -0.5169,-7.75356 -0.5169,-11.37187 z m -22.74375,66.16362 c 0,-0.5169 0,-1.55071 0,-2.06761 0,-3.10142 0,-5.68594 0,-8.78735 0,-0.51691 0,-0.51691 -0.5169,-0.51691 -1.03381,0 -2.58452,0 -3.61833,0 -3.61832,0 -7.23664,0 -10.85497,0 0,0 -0.5169,0 -0.5169,0 0,0 0,0.51691 0,0.51691 l 0.5169,10.33806 c 0,0.5169 0.51691,0.5169 0.51691,0.5169 3.10142,0 6.20284,0 9.82116,0 1.0338,0 3.10142,0 4.65213,0 z m 0,-66.16362 h -14.9902 c -0.5169,3.61831 -0.5169,7.23664 -1.03381,10.85496 0,0 0,0 0.51691,0 5.16903,0 9.82117,0 14.9902,0 0.5169,0 0.5169,0 0.5169,-0.5169 0,-1.55071 0,-2.58451 0,-4.13522 0,-1.55072 0,-3.61833 0,-6.20284 z M 90.974989,140.0808 c 0,4.13524 0.516903,7.75356 0.516903,11.88879 h 14.473288 c 0,-4.13523 0,-7.75355 -0.5169,-11.88879 0,0 -13.956388,0 -14.473291,0 z m 0.516903,-6.71974 h 14.473288 c 0,-4.13522 0.51691,-7.75355 0.51691,-11.37187 H 92.008796 c 0,3.61832 -0.516904,7.23665 -0.516904,11.37187 z m 45.487498,52.72415 h 14.47329 c 0.51691,-3.61833 0.51691,-7.23665 1.03381,-10.85498 h -15.5071 c 0,3.61833 0,7.23665 0,10.85498 z m -30.4973,-27.39588 H 92.008796 c 0.516904,3.61832 1.033807,7.23665 1.55071,10.85497 h 13.439484 c 0.5169,-3.61832 0,-7.23665 -0.5169,-10.85497 z m 30.4973,-59.960791 h 14.9902 c -0.51691,-3.618323 -0.51691,-7.236647 -1.03381,-10.338066 h -13.95639 c 0,3.618323 0,6.719743 0,10.338066 z m -20.67614,86.839771 h 13.9564 c 0,-3.61833 -0.51691,-6.71975 -0.51691,-10.33808 h -14.9902 c 0.51691,3.61833 1.03381,7.23665 1.55071,10.33808 z m -7.75355,-81.15383 c -0.5169,0 -0.5169,-0.5169 0,0 -4.65212,0 -8.787354,0 -12.922581,0 0,0 -0.516903,0 -0.516903,0.5169 -0.516903,1.0338 -1.033807,2.58451 -1.033807,3.61832 -0.516903,2.06762 -0.516903,4.13523 -1.033806,6.20284 h 13.956387 c 0.5169,-3.10141 1.03381,-6.71974 1.55071,-10.33806 z m 6.71975,-6.202844 h 14.9902 c 0,-3.10142 0.5169,-6.719744 0.5169,-10.338067 h -0.5169 c -2.58452,0 -5.16904,0 -7.75356,0 -1.55071,0 -3.10142,0 -4.65212,0 -0.51691,0 -0.51691,0 -0.51691,0.516904 0,1.033806 -0.5169,2.067613 -0.5169,2.584516 -0.51691,3.10142 -1.03381,5.169033 -1.55071,7.236647 z M 72.883373,140.0808 v 1.03381 c 0,3.10143 0.516903,6.71975 0.516903,9.82117 0,0.5169 0,1.03381 1.033806,1.03381 3.10142,0 6.20284,0 9.821164,0 h 1.550709 c 0,-4.13523 -0.516903,-7.75355 -0.516903,-11.37188 H 72.883373 Z m 1.033806,-18.60851 c -0.516903,3.61832 -0.516903,7.75355 -1.033806,11.37187 h 12.405679 c 0.516903,-3.61832 0.516903,-7.75355 1.033807,-11.37187 z m 36.700141,64.09602 v 0 c -0.5169,-3.61833 -1.03381,-6.71975 -1.55071,-9.82117 0,-0.51691 -0.51691,-0.51691 -0.51691,-0.51691 -3.10142,0 -6.20284,0 -9.304257,0 h -3.101421 c 1.033808,3.10143 2.067614,6.20284 2.584517,9.30427 0,0 0.516904,0.5169 0.516904,0.5169 2.584517,0 5.169037,0 8.270447,0 0.51691,0.51691 1.55072,0.51691 3.10143,0.51691 z M 86.322859,158.68933 H 74.434082 c 0.516903,3.61832 1.55071,7.23665 2.067613,10.85497 h 11.371874 z m 50.656531,41.35227 h 12.40568 c 0.5169,-3.10142 1.03381,-6.20285 1.03381,-9.30426 h -13.95639 c 0.5169,0 0.5169,9.30426 0.5169,9.30426 z M 109.06661,98.211636 c 0.5169,-3.10142 1.55071,-6.20284 2.06761,-9.821163 0,0 0,0 0,0 -3.61833,0 -7.75355,0 -11.371874,0 0,0 -0.516903,0.516903 -0.516903,0.516903 -0.516904,2.067613 -1.55071,4.135227 -2.067613,6.20284 0,1.033806 -0.516904,1.55071 -0.516904,2.584517 H 109.06661 Z M 86.839762,114.75254 c 0.516904,-3.61832 1.550711,-7.23665 2.067614,-10.33806 0,0 0,0 0,0 -3.618324,0 -7.236647,0 -10.85497,0 0,0 -0.516904,0 -0.516904,0.5169 -1.033807,3.10142 -1.55071,6.71975 -2.584517,9.82116 z m 30.497298,75.9848 c 0.51691,3.10141 1.55071,6.20284 2.06761,8.78736 h 12.40569 l -0.51691,-8.78736 z M 136.97939,83.738343 h 13.43949 c -0.51691,-3.101421 -1.03381,-6.202841 -1.55072,-8.787358 h -11.88877 z m -5.16903,-8.787358 h -1.55071 c -3.10143,0 -6.20284,0 -9.82117,0 -0.51691,0 -0.51691,0 -0.51691,0.516904 -0.5169,1.550709 -1.0338,3.10142 -1.0338,5.169033 0,1.033807 -0.5169,2.067614 -0.5169,3.101421 h 12.92258 c 0,-3.101421 0.51691,-6.202841 0.51691,-8.787358 z M 78.569309,175.74714 c 0,0 0,0.5169 0,0 1.033807,3.61833 2.067613,6.20284 3.618323,9.30426 0,0 0.516904,0.51691 0.516904,0.51691 2.584516,0 5.685937,0 8.270453,0 H 92.5257 c -1.033808,-3.10143 -2.067614,-6.71975 -3.101421,-9.82117 0.516903,0 -10.85497,0 -10.85497,0 z M 68.231242,151.45268 c 0,-3.61832 -0.516904,-7.75355 -0.516904,-11.37188 h -9.30426 c 0.516904,3.61833 0.516904,7.23665 0.516904,11.37188 z m -8.270453,-29.46349 c -0.516904,3.61832 -1.033807,7.23665 -1.033807,10.85497 h 9.30426 c 0.516904,-3.61832 0.516904,-7.23665 1.033807,-10.85497 z m 20.15923,-23.777554 c 0.516903,0 0.516903,0 1.033806,0 3.101421,0 6.202841,0 9.304261,0 0.516903,0 0.516903,0 1.033806,-0.516903 1.033808,-2.584517 2.067614,-5.169033 2.584517,-8.270454 0,0 0,-0.516903 0,-0.516903 0,0 0,0 -0.516903,0 -3.10142,0 -6.20284,0 -9.30426,0 0,0 -0.516903,0 -0.516903,0.516903 -1.033807,1.55071 -1.550711,3.618324 -2.584518,5.169034 -0.516903,1.033806 -0.516903,2.067613 -1.033806,3.618323 z M 114.23564,199.5247 c -1.03381,-2.58452 -1.55071,-5.68595 -2.58451,-8.27046 0,0 -0.51691,-0.5169 -0.51691,-0.5169 -1.55071,0 -3.10142,0 -5.16904,0 h -6.202834 v 0.5169 c 1.033804,2.58451 2.067614,5.16903 3.101424,7.75355 0,0 0.5169,0.51691 0.5169,0.51691 4.13522,0 7.23665,0 10.85497,0 z M 71.849565,169.5443 c -1.033806,-3.61832 -1.55071,-7.23665 -2.584516,-10.33806 h -8.787357 c 0,0 0,0.51689 0,0.51689 0.516903,3.10142 1.55071,6.20285 2.584516,9.30426 0,0.51691 0.516904,0.51691 1.033808,0.51691 z M 101.31306,83.221439 c 0,0 0,0 0,0 4.13522,0 7.23664,0 10.85496,0 0.51691,0 0.51691,0 0.51691,-0.516903 0.5169,-1.550711 1.0338,-3.10142 1.55071,-5.169034 0.5169,-1.033807 0.5169,-2.067613 1.03381,-3.10142 h -1.55072 c -2.58451,0 -5.68593,0 -8.78735,0 -0.5169,0 -0.5169,0 -0.5169,0.516903 -0.5169,1.033807 -1.03381,1.55071 -1.03381,2.584517 -0.5169,2.067614 -1.55071,4.135227 -2.06761,5.685937 z M 61.511498,114.75254 h 8.787357 c 0,0 0.516904,-0.5169 0.516904,-0.5169 0.516903,-1.55071 0.516903,-2.58451 1.033806,-4.13522 0.516903,-2.06762 1.033808,-3.61833 1.550711,-5.68594 0,0 0,0 0,0 -2.584517,0 -5.169034,0 -7.753551,0 0,0 -0.516903,0.5169 -0.516903,0.5169 -0.516903,2.06761 -1.55071,4.13523 -2.067614,6.20284 -1.033806,1.0338 -1.55071,2.06761 -1.55071,3.61832 z m 85.805952,97.17784 c 0.51691,-2.58453 1.03381,-5.16904 1.55071,-7.75356 h -11.88877 v 7.75356 z M 84.772149,191.25424 c 0,0.5169 0,0.5169 0.516903,0.5169 1.55071,2.58452 2.584517,4.65213 4.135227,7.23665 0,0.51691 0.516903,0.51691 1.033807,0.51691 1.55071,0 3.10142,0 5.169033,0 h 3.618324 c -1.033807,-2.58452 -2.584517,-5.68595 -4.135227,-8.27046 0,0 -0.516903,-0.5169 -0.516903,-0.5169 -1.55071,0 -3.101421,0 -5.169034,0 0,0.5169 -4.65213,0.5169 -4.65213,0.5169 z m 35.666331,12.92258 c 1.03381,2.58452 1.55071,4.65213 2.58452,7.23665 0,0 0.5169,0 0.5169,0 0.51691,0 1.55071,0 2.06761,0 h 7.23665 c 0,-2.58452 -0.51691,-4.65213 -1.0338,-7.23665 0,0 -0.51691,-0.5169 -0.51691,-0.5169 h -3.61832 c 0,0.5169 -7.23665,0.5169 -7.23665,0.5169 z M 65.646725,175.74714 c 0,0 0,0.5169 0,0 1.033807,3.10142 2.584517,6.20284 4.135227,9.30426 0,0 0.516903,0.51691 0.516903,0.51691 1.55071,0 3.101421,0 5.169034,0 h 2.584517 v 0 c -1.033808,-3.10143 -2.584517,-6.20284 -3.618324,-8.78736 0,0 -0.516903,-0.51691 -0.516903,-0.51691 -3.10142,-0.5169 -5.685937,-0.5169 -8.270454,-0.5169 z M 79.603116,88.907376 h -7.236648 c 0,0 -0.516903,0 -0.516903,0.516903 -1.033806,1.55071 -2.067613,3.101421 -2.584516,5.169034 -0.516903,1.033806 -1.033807,2.584517 -2.067614,3.618323 h 8.270454 c 0,0 0.516903,-0.516903 0.516903,-0.516903 0.516903,-1.550711 1.033806,-2.584517 1.55071,-4.135227 0.516904,-1.55071 1.55071,-3.10142 2.067614,-4.65213 z M 148.35126,70.815759 c -0.5169,-2.067613 -1.03381,-4.135227 -1.55071,-5.685937 0,-0.516903 -0.51691,-1.033806 -1.55071,-1.033806 -2.58452,0 -5.68594,0 -8.27045,-0.516904 v 7.236647 z m -47.55511,4.135226 H 92.5257 c 0,0 -0.516904,0 -0.516904,0.516904 -1.55071,2.584517 -3.10142,4.65213 -4.65213,7.236647 0,0 0,0.516903 0,0.516903 h 9.30426 c 0.516904,0 0.516904,0 1.033807,-0.516903 1.033806,-2.067614 2.067613,-4.135227 3.101417,-6.202841 -0.5169,-0.516903 -0.5169,-1.033806 0,-1.55071 z m 32.56491,-11.371873 h -1.03381 c -2.0676,0 -4.13522,0 -6.20284,0 -2.0676,0 -2.0676,0 -2.58451,2.067613 -0.5169,1.55071 -1.03381,3.101421 -1.55071,5.169034 h 10.85497 c 0,-2.067613 0,-4.652131 0.5169,-7.236647 z M 105.96518,204.17682 c 0,0 0,0.51691 0,0 1.03381,2.58452 2.58452,4.65213 4.13524,6.71975 0,0 0.5169,0 0.5169,0 2.06761,0 4.13522,0 6.20284,0 h 2.06761 c -1.0338,-2.58452 -2.06761,-4.65213 -3.10142,-6.71975 0,0 -0.5169,-0.5169 -0.5169,-0.5169 h -4.13523 c -1.55071,0.5169 -3.10142,0.5169 -5.16904,0.5169 z M 54.791755,140.59771 h -5.685937 c 0.516904,3.61833 0.516904,7.23665 1.033807,11.37188 h 5.685937 c -0.516904,-4.13523 -0.516904,-7.75355 -1.033807,-11.37188 z m -4.135227,-18.60852 c -0.516903,3.61832 -1.033806,7.23665 -1.55071,10.85497 h 5.685937 c 0.516903,-3.61832 1.033807,-7.23665 1.033807,-10.85497 0.516903,0 -5.169034,0 -5.169034,0 z M 107.51589,70.298855 v 0 l 9.30427,0.516904 c 0,0 0.5169,0 0.5169,-0.516904 0.51691,-0.516903 0.51691,-1.550709 1.03381,-2.584517 0.5169,-1.55071 1.0338,-2.584516 2.06761,-4.135226 0,0 0,0 0,0 -2.58451,0 -5.16903,0 -7.75355,0 0,0 -0.51691,0 -0.51691,0.516904 -1.5507,2.067612 -3.10141,4.135226 -4.65213,6.202839 z M 86.322859,199.5247 c 0,-0.51691 0,-0.51691 0,0 -2.067613,-2.58452 -3.10142,-5.16904 -4.65213,-7.23665 -0.516904,-1.03381 -1.033807,-1.03381 -2.067613,-1.03381 -2.067614,0 -4.135227,0 -6.20284,0 v 0 c 2.067613,2.58451 3.618322,5.16903 5.685936,7.75355 0,0 0.516904,0 0.516904,0 2.067613,0.51691 4.65213,0.51691 6.719743,0.51691 z m -26.36207,-30.49731 c 0,0 0,0 0,0 -1.033807,-3.61831 -1.550711,-6.71974 -2.584518,-9.82115 0,0 -0.516903,-0.51691 -0.516903,-0.51691 -1.033806,0 -2.584516,0 -4.135227,0 -0.516903,0 -1.033806,0 -1.550709,0 1.033806,3.61832 2.067613,6.71975 3.10142,9.82116 0,0 0.516903,0.5169 0.516903,0.5169 -0.516903,0 5.169034,0 5.169034,0 z m -2.067614,-54.27485 3.10142,-10.33806 h -5.169033 c 0,0 -0.516904,0.5169 -0.516904,0.5169 -1.033806,2.58451 -1.55071,4.65213 -2.584517,7.23664 -0.516903,1.03381 -0.516903,1.55071 -0.516903,2.58452 2.067614,0 3.618324,0 5.685937,0 z M 88.390473,75.467889 h -6.202841 c 0,0 -0.516903,0 -0.516903,0.516903 -2.067613,2.584517 -3.618323,4.65213 -5.685937,7.236647 0,0 0,0.516904 -0.516903,0.516904 h 7.236647 c 0,0 0.516903,0 0.516903,-0.516904 1.55071,-3.10142 3.618323,-5.169033 5.169034,-7.75355 z m 5.169033,129.225841 c 0,0 0,0 0,0 2.067613,2.58451 3.618324,4.65212 5.685937,6.71974 0,0 0.516903,0.51691 1.033807,0.51691 2.06761,0 4.13523,0 6.20284,0 0,0 0.5169,0 0.5169,0 -1.55071,-2.06762 -3.10141,-4.13524 -4.65213,-6.71975 0,0 -0.5169,-0.5169 -0.5169,-0.5169 z M 66.680532,185.56831 c -1.033807,-2.58453 -2.584516,-4.65214 -3.618324,-7.23665 -0.516903,-0.51691 -0.516903,-1.55071 -1.033806,-2.06762 -0.516904,-0.5169 -1.55071,0 -2.584517,0 h -2.584517 c 0,0 0,0 0,0 1.55071,3.10143 3.101421,6.20284 4.65213,8.78736 0,0 0.516904,0.51691 0.516904,0.51691 z M 95.627119,70.298855 c 0,0 0,0 0,0 h 7.753551 c 0,0 0.51691,0 0.51691,-0.516903 1.0338,-1.033806 1.5507,-2.584517 2.58451,-3.618324 0.5169,-1.033806 1.55071,-1.550709 2.06761,-2.584516 h -5.16903 c -1.55071,0 -3.10142,0.516904 -4.135227,2.067613 -0.516904,0.516903 -1.033807,1.033807 -2.067613,2.067613 0,1.033808 -0.516904,2.067614 -1.550711,2.584517 z M 136.97939,220.71772 h 7.23665 c 0,0 0.5169,0 0.5169,0 0.5169,-1.5507 1.03381,-3.61831 2.06761,-5.68593 h -9.30426 v 5.68593 z M 58.410078,98.211636 h 4.65213 c 0.516904,0 0.516904,0 1.033808,-0.516903 1.550709,-2.584517 3.101419,-5.169033 4.65213,-8.270454 0,0 0,-0.516903 0,-0.516903 h -4.65213 c 0,0 -0.516904,0 -0.516904,0.516903 -0.516904,1.033807 -1.033807,1.55071 -1.55071,2.584517 -1.033807,2.067613 -2.067613,3.618323 -3.618324,6.20284 z M 134.39487,220.71772 c -0.51691,-2.0676 -0.51691,-3.61831 -1.03381,-5.68593 h -9.30425 c 0.5169,1.03381 1.0338,2.58452 2.0676,3.61833 0.51691,1.55071 1.55072,2.0676 3.10143,2.0676 1.55071,-0.51689 3.61832,0 5.16903,0 z m -37.733944,-9.30425 v 0 c -1.55071,-1.55071 -2.584517,-3.10142 -4.135226,-4.65213 -0.516904,-1.0338 -1.033808,-2.06761 -2.067614,-2.06761 -1.033807,-0.51691 -2.067613,0 -3.10142,0 h -3.618323 c 0,0 0,0 0,0 2.067612,2.06761 4.135226,4.13522 6.202839,5.68593 0.516904,0 0.516904,0.51691 1.033807,0.51691 2.067614,0.5169 3.618324,0.5169 5.685937,0.5169 z M 137.49629,60.477692 h 8.27046 c -0.51691,-1.55071 -1.03381,-3.101421 -2.06762,-5.169034 0,0 0,-0.516903 -0.5169,-0.516903 h -6.20284 c 0.5169,0.516903 0.5169,5.685937 0.5169,5.685937 z M 65.646725,191.25424 c 0.516903,0 0.516903,0.5169 0,0 2.067613,3.10142 4.135227,5.68594 6.20284,7.75355 0,0 0.516903,0.51691 0.516903,0.51691 h 4.135227 v 0 c -2.067613,-2.58452 -4.135227,-5.16904 -5.685936,-7.75356 0,0 -0.516904,-0.5169 -0.516904,-0.5169 z m 47.555105,23.77755 c 0,0 0,0 0,0 1.03381,1.55071 2.06762,2.58452 3.10142,3.61833 0.51691,1.03381 1.55072,1.55071 2.58452,1.55071 1.55071,0 3.61832,0 5.16904,0 -1.03381,-1.55071 -2.06762,-2.58452 -2.58452,-4.13523 -0.51691,-1.03381 -1.03381,-1.03381 -2.06762,-1.03381 -1.5507,0 -4.13522,0 -6.20284,0 z M 133.87796,60.477692 c 0.51691,-1.55071 0.51691,-3.101421 1.03381,-5.169034 h -6.20284 c 0,0 -0.5169,0.516904 -0.5169,0.516904 -1.03381,1.550709 -1.55071,2.584516 -2.58452,4.135227 0,0 0,0.516903 0,0.516903 z m -34.632517,3.618324 h -3.618324 c -1.033806,0 -2.067613,0.516903 -3.101419,1.033806 -1.550711,1.55071 -3.618324,3.10142 -5.169034,4.65213 0,0 -0.516904,0.516903 -0.516904,0.516903 0,0 0,0 0,0.516904 H 92.5257 c 0,0 0.516903,0 0.516903,-0.516904 1.033806,-1.033806 2.067613,-2.067613 3.101419,-3.10142 1.033808,-1.033807 2.067614,-2.067613 3.101421,-3.101419 z M 79.603116,75.467889 c -1.033807,0 -2.584518,0 -3.618324,0 -0.516903,0 -0.516903,0 -1.033807,0.516903 -2.067612,2.067614 -4.135226,4.65213 -6.202839,6.719744 0,0 0,0.516903 -0.516904,0.516903 h 4.135226 c 0,0 0.516905,0 0.516905,-0.516903 0.516903,-0.516904 1.033806,-1.550711 1.550709,-2.067614 2.067613,-2.067613 3.618324,-3.618324 5.169034,-5.169033 z M 114.75254,60.477692 h 7.23665 c 0,0 0.5169,0 0.5169,-0.516903 1.03381,-1.550711 2.06762,-2.584518 3.10142,-4.135227 v -0.516904 h -4.13522 c -1.03381,0 -2.06762,0.516904 -3.10142,1.033807 -1.03381,1.55071 -2.06762,3.10142 -3.61833,4.135227 z M 103.89758,215.03179 c 0,0 0,0.5169 0,0 1.5507,1.55071 3.10141,2.58452 4.65212,3.61833 1.03381,1.03381 2.58452,1.55071 4.65213,1.55071 1.03381,0 2.06762,0 3.10142,0 -2.06761,-1.55071 -3.61832,-3.61833 -5.16903,-5.16904 0,0 -0.5169,0 -0.5169,0 -0.5169,0 -6.71974,0 -6.71974,0 z M 77.535502,204.69373 c 0,0 0,0 0,0 2.067614,2.06761 4.135227,3.61832 5.685937,5.16903 1.55071,1.55071 3.618323,1.55071 5.169034,1.55071 0,0 0,0 0,0 -2.584518,-2.06762 -4.65213,-4.13523 -7.236648,-6.20284 0,0 -0.516903,0 -0.516903,0 -1.033806,-0.5169 -2.067613,-0.5169 -3.10142,-0.5169 z M 117.85397,55.825562 h -4.13524 c 0,0 -0.5169,0 -0.5169,0.516903 -2.06761,1.033806 -3.61832,2.584517 -5.68594,3.618324 -0.5169,0 -0.5169,0.516903 -1.0338,0.516903 0,0 0,0 0,0 h 5.68593 c 0,0 0,0 0.51691,0 1.55071,-1.55071 3.61832,-3.101421 5.16904,-4.65213 z M 108.5497,220.20083 c -2.06761,-1.55071 -4.13522,-2.58452 -5.68593,-4.13523 -1.03381,-1.03381 -2.06762,-1.03381 -3.101424,-1.03381 -1.033807,0 -2.067613,0 -3.10142,0 0,0 0,0 0,0 2.584517,1.55071 5.169034,3.10142 7.753554,4.65214 0,0 0.5169,0 0.5169,0 0,0.5169 3.61832,0.5169 3.61832,0.5169 z M 80.636922,70.298855 c 0,0 0,0 0,0 1.55071,0.516904 3.101421,0 4.65213,-1.033806 2.067614,-1.550711 3.618324,-2.584517 5.685937,-4.135227 0.516903,-0.516903 1.033807,-0.516903 1.033807,-1.033806 -1.55071,0 -3.10142,-0.516904 -4.135227,0.516903 -2.584517,2.067613 -5.169033,3.618323 -7.236647,5.685936 z M 111.13422,55.825562 c -0.5169,0 -1.55071,0 -2.58452,0 -0.5169,0 -1.55071,0 -2.06761,0.516903 -2.58451,1.033806 -4.65213,2.584517 -6.719744,3.618324 0,0 0,0 -0.516903,0.516903 h 4.135227 c 0,0 0.51691,0 0.51691,0 2.58451,-1.55071 5.16903,-3.101421 7.23664,-4.65213 z m 26.36207,170.578108 h 3.61832 c 0,0 0.51691,0 0.51691,0 0.5169,-1.03381 1.55071,-2.06762 2.06761,-3.61833 h -6.20284 c 0,1.03381 0,2.58452 0,3.61833 z m -8.27045,-3.61833 c 0,0 0,0.51691 0,0 1.03381,1.03381 1.55071,2.06762 2.58452,3.10143 0,0 0.51689,0 0.51689,0 h 3.61833 c -0.5169,-1.03381 -0.5169,-2.06762 -1.03381,-3.61833 0,0.5169 -5.68593,0.5169 -5.68593,0.5169 z m 1.03381,3.61833 c -1.03381,-1.03381 -2.06762,-2.06762 -3.10143,-3.10142 0,0 -0.5169,0 -0.5169,0 h -5.16903 c 2.58452,1.55071 5.68593,3.61832 8.78736,3.10142 z m -27.39588,-6.20284 c 0,0 -0.51691,0 0,0 -3.101424,-1.55071 -5.68594,-3.10142 -8.270457,-4.65214 0,0 -0.516904,0 -0.516904,0 -1.033806,0 -1.550709,0 -2.584517,0 2.584517,1.55072 4.65213,2.58452 7.236647,4.13524 1.033807,0.5169 2.584521,1.03379 4.135231,0.5169 z M 137.49629,53.757948 h 5.68594 c -0.51691,-1.033807 -1.55071,-2.067613 -2.06762,-2.584516 0,0 0,-0.516904 -0.5169,-0.516904 h -3.10142 c 0,1.033807 0,2.067613 0,3.10142 z M 125.60751,226.40367 c 0,-0.5169 0,-0.5169 0,0 l -5.68594,-3.10142 c 0,0 -0.5169,0 -0.5169,0 h -4.13522 c 0,0 0,0 0,0 3.61832,1.0338 6.71974,3.10142 10.33806,3.10142 z M 106.48209,55.825562 c -1.03381,0 -2.06761,0 -3.10142,0.516903 -2.58452,1.033806 -5.169034,2.584517 -7.753551,3.618324 0,0 0,0 -0.516903,0.516903 1.55071,0.516903 3.10142,0 4.65213,-1.033807 0,0 0,0 0,0 2.067614,-1.55071 4.135234,-2.584517 6.719744,-3.618323 z m 29.9804,-5.169034 c -1.03381,0.516904 -2.58453,-0.516903 -3.61833,0.516904 -1.0338,0.516903 -2.06761,1.550709 -2.58451,2.067613 0,0 0,0 0,0 h 4.65212 c 0,0 0.51691,-0.516904 0.51691,-0.516904 0.5169,-0.516903 0.5169,-1.033806 1.03381,-2.067613 z m -4.65213,0 c -2.06762,0 -6.71975,1.55071 -7.75355,2.584517 3.10141,0.516903 5.68593,0 7.75355,-2.584517 z"
   id="path1"
   style="stroke-width:5.16903" />
<path
   class="st1"
   d="M 131.29345,273.95878 C 55.825562,273.95878 0,214.51489 0,135.94558 0,56.342465 55.825562,3.6183235 131.29345,3.6183235 h 66.16363 c 78.0524,0 132.32725,53.7579475 132.32725,132.3272565 0,78.56931 -55.30865,138.0132 -132.32725,138.0132 z m 66.16363,-47.55511 c 50.13962,0 85.28905,-37.73395 85.28905,-88.39047 0,-50.656534 -35.66633,-87.356672 -85.28905,-87.356672 h -66.16363 c -48.588914,0 -84.255245,36.183234 -84.255245,87.356672 0,51.17342 35.149427,88.39047 84.255245,88.39047 z"
   id="path2"
   style="stroke-width:5.16903;fill:#000000" />
<path
   class="st1"
   d="M 690.06597,273.95878 638.37564,83.738343 561.87394,260.00239 c -5.16903,11.37187 -12.40568,18.09161 -24.29446,18.09161 -11.37188,0 -19.12542,-6.20284 -24.29446,-18.09161 L 437.30024,83.738343 385.6099,273.95878 H 339.0886 L 408.35365,19.125424 C 411.97197,6.2028402 419.20861,0 431.61429,0 c 9.82117,0 19.12543,5.6859368 23.77756,16.024003 L 538.61329,207.27824 621.83472,16.024003 C 626.48686,5.6859368 634.2404,0 644.57848,0 c 11.37187,0 19.12542,6.2028402 22.74375,19.125424 l 69.26504,254.316446 z"
   id="path3"
   style="stroke-width:5.16903;fill:#000000" />
<path
   class="st1"
   d="M 768.11838,273.95878 V 3.1014201 H 997.62346 V 50.139625 H 814.63968 V 273.44187 c 0.5169,0.51691 -46.5213,0.51691 -46.5213,0.51691 z m 81.67073,-112.16803 v -41.35227 h 39.28465 v 41.35227 z"
   id="path4"
   style="stroke-width:5.16903;fill:#000000" />
<rect
   x="889.07379"
   y="135.42868"
   class="st2"
   width="77.5355"
   height="11.371874"
   id="rect4"
   style="stroke-width:5.16903" />
<rect
   x="578.27271"
   y="778.04614"
   transform="rotate(-45)"
   class="st3"
   width="28.94631"
   height="28.94631"
   id="rect5"
   style="stroke-width:5.16898" />
<rect
   x="847.20459"
   y="119.40467"
   class="st4"
   width="43.936783"
   height="43.936783"
   id="rect6"
   style="stroke-width:5.16903" />
</svg>
